<?xml version="1.0" standalone="no"?>
<!DOCTYPE svg PUBLIC "-//W3C//DTD SVG 1.1//EN" "http://www.w3.org/Graphics/SVG/1.1/DTD/svg11.dtd" >
<svg>
<metadata>
Created by FontForge 20090914 at Wed Mar 27 13:45:55 2013
 By www-data
Copyright (c) by ASCON, 1996. All rights reserved.
</metadata>
<defs>
<font id="GOST-2.304-81typeA" horiz-adv-x="391" >
  <font-face 
    font-family="GOST type A"
    font-weight="300"
    font-stretch="normal"
    units-per-em="1000"
    panose-1="2 1 4 1 1 0 3 4 2 3"
    ascent="800"
    descent="-200"
    x-height="487.999"
    cap-height="683.998"
    bbox="-51 -219 1147 830.002"
    underline-thickness="49"
    underline-position="-74"
    unicode-range="U+0020-U+2212"
  />
<missing-glyph horiz-adv-x="830" 
d="M52 0h726v830h-726v-830zM727 52h-623v726h623v-726z" />
    <glyph glyph-name=".notdef" horiz-adv-x="830" 
d="M52 0h726v830h-726v-830zM727 52h-623v726h623v-726z" />
    <glyph glyph-name="space" unicode=" " horiz-adv-x="293" 
 />
    <glyph glyph-name="space" unicode="&#xa0;" horiz-adv-x="293" 
 />
    <glyph glyph-name="exclam" unicode="!" horiz-adv-x="146" 
d="M73 0c7.33301 0 13.167 2.50195 17.5 7.50195s6.5 10.5 6.5 16.5c0 16 -8 24 -24 24c-8 0 -14.167 -2.33301 -18.5 -7s-6.5 -10.334 -6.5 -17.001s2.33301 -12.334 7 -17.001s10.667 -7 18 -7zM49.001 659.002v-488c0 -8 2.33301 -14.167 7 -18.5
s10.334 -6.5 17.001 -6.5s12.334 2.16699 17.001 6.5s7 10.5 7 18.5v488c0 8 -2.33301 14.167 -7 18.5s-10.334 6.5 -17.001 6.5s-12.334 -2.33301 -17.001 -7s-7 -10.667 -7 -18z" />
    <glyph glyph-name="quotedbl" unicode="&#x22;" horiz-adv-x="244" 
d="M97 653l-24.999 -96.998c-2.66699 -12.667 -10.334 -19 -23.001 -19c-6.66699 0 -12.667 2.16699 -18 6.5s-8 10.166 -8 17.499c0 2.66699 0.333008 5 1 7l25 97c3.33301 12.667 11 19 23 19c7.33301 0 13.5 -2.33301 18.5 -7s7.5 -10.334 7.5 -17.001
c0 -2.66699 -0.333008 -5 -1 -7zM194.001 653.002l-24 -96.998c-4 -12.667 -12 -19 -24 -19c-6.66699 0 -12.5 2.16699 -17.5 6.5s-7.5 10.166 -7.5 17.499c0 2.66699 0.333008 5 1 7l24 97c4 12.667 12 19 24 19c6.66699 0 12.5 -2.33301 17.5 -7s7.5 -10.334 7.5 -17.001
c0 -2.66699 -0.333008 -5 -1 -7z" />
    <glyph glyph-name="numbersign" unicode="#" horiz-adv-x="562" 
d="M490 454c8 0 14.168 2.33496 18.501 7.00195s6.5 10.334 6.5 17.001c0 16 -8.33301 24 -25 24h-61l33 152v6c0 7.33301 -2.33301 13.166 -7 17.499s-10.334 6.5 -17.001 6.5c-12.667 0 -20.667 -6.66699 -24 -20l-35 -162h-131l32 152c0.666992 0.666992 1 2.66699 1 6
c0 7.33301 -2.5 13.166 -7.5 17.499s-10.833 6.5 -17.5 6.5c-12.667 0 -20.667 -6.66699 -24 -20l-34 -162h-71c-8 0 -14 -2.33301 -18 -7s-6 -10.334 -6 -17.001s2.16699 -12.334 6.5 -17.001s10.166 -7 17.499 -7h60l-48 -224h-71c-7.33301 0 -13.166 -2.5 -17.499 -7.5
s-6.5 -10.5 -6.5 -16.5c0 -16.667 8 -25 24 -25h61l-32 -152c-0.666992 -0.666992 -1 -2.66699 -1 -6c0 -6.66699 2.5 -12.167 7.5 -16.5s10.833 -6.5 17.5 -6.5c12.667 0 20.667 6.66699 24 20l34 161h132l-33 -152v-6c0 -6.66699 2.33301 -12.167 7 -16.5
s10.334 -6.5 17.001 -6.5c12.667 0 20.667 6.66699 24 20l35 161h71c7.33301 0 13.166 2.5 17.499 7.5s6.5 10.833 6.5 17.5s-2 12.334 -6 17.001s-10 7 -18 7h-61l48 224h71zM369.001 454.002l-48 -224h-132l48 224h132z" />
    <glyph glyph-name="dollar" unicode="$" horiz-adv-x="439" 
d="M244 684v72.9971c0 8 -2.5 14 -7.5 18s-10.5 6 -16.5 6c-16.667 0 -25 -8 -25 -24v-73c-42 0 -77 -15.333 -105 -46c-26.667 -27.333 -40 -61 -40 -101c0 -39.333 14.667 -73.666 44 -102.999l101 -102v-283h-24c-30.667 0 -58.667 8.66699 -84 26
c-4.66699 2.66699 -9.33398 4 -14.001 4c-6.66699 0 -12.334 -2.5 -17.001 -7.5s-7 -10.833 -7 -17.5c0 -8 3.66699 -14.333 11 -19c33.333 -23.333 70.333 -35 111 -35h24v-73c0 -7.33301 2.16699 -13 6.5 -17s9.5 -6 15.5 -6c6.66699 0 12.834 2.5 18.501 7.5
s8.5 11.833 8.5 20.5v68c42.667 0 78 15 106 45c26 28.667 39 62.334 39 101.001c0 40.667 -14.333 75.334 -43 104.001l-102 102v283h25c30 0 58 -9 84 -27c4.66699 -2.66699 9.33398 -4 14.001 -4c7.33301 0 13.333 2.5 18 7.5s7 10.833 7 17.5c0 9.33301 -4 16 -12 20
c-35.333 23.333 -72.333 35 -111 35h-25zM244 48.9971l-0.000976562 234.001l68 -68c18.667 -18.667 28 -41.334 28 -68.001c0 -26 -8.66699 -48.667 -26 -68c-19.333 -20 -42.666 -30 -69.999 -30zM194.999 634.998l-0.00195312 -235l-67 68
c-19.333 19.333 -29 42.333 -29 69c0 12.667 2.33301 25 7 37s11.334 22.5 20.001 31.5s18.834 16.167 30.501 21.5s24.5 8 38.5 8z" />
    <glyph glyph-name="percent" unicode="%" horiz-adv-x="830" 
d="M781 146c0 47.333 -15.333 84.334 -46 111.001c-27.333 24 -60.666 36 -99.999 36c-40.667 0 -74.334 -12.333 -101.001 -37c-30.667 -26.667 -46 -63.334 -46 -110.001s15.333 -83.334 46 -110.001c28 -24 61.667 -36 101 -36c40 0 73.667 12 101 36
c30 26.667 45 63.334 45 110.001zM631 646.001c2.66699 3.33301 4 7.99902 4 13.999c0 6.66699 -2.5 12.334 -7.5 17.001s-10.833 7 -17.5 7c-9.33301 0 -16.333 -4 -21 -12l-390 -635c-2.66699 -3.33301 -4 -7.66602 -4 -12.999c0 -6.66699 2.5 -12.334 7.5 -17.001
s11.167 -7 18.5 -7c8 0 14.667 4 20 12zM341 537c0 46.667 -15.332 83.333 -45.999 110c-26.667 24.667 -60 37 -100 37c-40.667 0 -74.334 -12.333 -101.001 -37c-30 -27.333 -45 -64 -45 -110c0 -46.667 15.333 -83.334 46 -110.001c26.667 -24 60 -36 100 -36
s73.667 12 101 36c30 26.667 45 63.334 45 110.001zM732.001 145.999c0 -30 -10 -54.333 -30 -73c-19.333 -16 -41.666 -24 -66.999 -24c-26.667 0 -49.334 8 -68.001 24c-20 18 -30 42.333 -30 73c0 31.333 10.333 56 31 74c18 16 40.333 24 67 24
c26 0 48.333 -8.33301 67 -25c20 -18 30 -42.333 30 -73zM292.001 536.999c0 -31.333 -10 -56 -30 -74c-18 -16 -40.333 -24 -67 -24c-27.333 0 -49.666 8.33301 -66.999 25c-20 18 -30 42.333 -30 73s10 55 30 73c18.667 16.667 41 25 67 25
c27.333 0 49.666 -8.33301 66.999 -25c20 -18 30 -42.333 30 -73z" />
    <glyph glyph-name="ampersand" unicode="&#x26;" horiz-adv-x="537" 
d="M212 472l-48 75.999c-6 10 -9 20.333 -9 31c0 15.333 5.16699 28.5 15.5 39.5s22.833 16.5 37.5 16.5c16.667 0 31.167 -5.83301 43.5 -17.5s18.5 -25.167 18.5 -40.5c0 -9.33301 -2.66699 -18.666 -8 -27.999zM364 143.999l-49 -54
c-13.333 -14.667 -27.5 -25.167 -42.5 -31.5s-30.5 -9.5 -46.5 -9.5c-34 0 -63.333 12 -88 36s-37 52.333 -37 85c0 24 6.66699 46.667 20 68l91 143zM184 426.999l-103.999 -161.998c-19.333 -30 -29 -61.333 -29 -94c0 -46.667 17.667 -86.667 53 -120
c36 -34 77 -51 123 -51c22.667 0 44.5 4.66699 65.5 14s40.5 23.666 58.5 42.999l40 44l56 -88c4.66699 -7.33301 11 -11 19 -11c7.33301 0 13.5 2.33301 18.5 7s7.5 10.334 7.5 17.001c0 4.66699 -1.33301 9.33398 -4 14.001l-63 98l60 67
c4.66699 4.66699 7 10.334 7 17.001s-2.5 12.5 -7.5 17.5s-10.833 7.5 -17.5 7.5c-7.33301 0 -13.333 -3 -18 -9l-52 -57l-156 246l62 96c5.33301 8.66699 9.16602 17.167 11.499 25.5s3.5 17.166 3.5 26.499c0 29.333 -11 54.666 -33 75.999c-22 22 -47.667 33 -77 33
c-14 0 -27.333 -2.83301 -40 -8.5s-23.5 -13.334 -32.5 -23.001s-16.167 -20.834 -21.5 -33.501s-8 -26 -8 -40c0 -20 5.66699 -39.333 17 -58z" />
    <glyph glyph-name="quotesingle" unicode="'" horiz-adv-x="146" 
d="M97 653l-25 -145.998c-3.33301 -12.667 -11 -19 -23 -19c-6.66699 0 -12.667 2.16699 -18 6.5s-8 10.166 -8 17.499c0 2.66699 0.333008 5 1 7l25 146c3.33301 12.667 11 19 23 19c7.33301 0 13.5 -2.33301 18.5 -7s7.5 -10.334 7.5 -17.001
c0 -2.66699 -0.333008 -5 -1 -7z" />
    <glyph glyph-name="parenleft" unicode="(" horiz-adv-x="195" 
d="M150 -18c-31.333 119.333 -47.001 239.336 -47.001 360.003c0 120 15.667 240 47 360c0.666992 2 1 4 1 6c0 7.33301 -2.5 13.166 -7.5 17.499s-10.833 6.5 -17.5 6.5c-4.66699 0 -9.16699 -1.33301 -13.5 -4s-7.16602 -7.33398 -8.49902 -14.001
c-34 -123.333 -51 -247.333 -51 -372c0 -126 17 -250.333 51 -373c2.66699 -12 10 -18 22 -18c6.66699 0 12.5 2.16699 17.5 6.5s7.5 10.166 7.5 17.499c0 2.66699 -0.333008 5 -1 7z" />
    <glyph glyph-name="parenright" unicode=")" horiz-adv-x="195" 
d="M96 -31c33.333 123.333 50 247.666 50 372.999c0 126 -16.667 250 -50 372c-4 12 -11.667 18 -23 18c-6.66699 0 -12.5 -2.16699 -17.5 -6.5s-7.5 -9.83301 -7.5 -16.5c0 -2.66699 0.333008 -5 1 -7c32 -119.333 48 -239.333 48 -360c0 -122 -16 -242 -48 -360
c-0.666992 -2 -1 -4.33301 -1 -7c0 -7.33301 2.5 -13.166 7.5 -17.499s10.833 -6.5 17.5 -6.5c11.333 0 19 6 23 18z" />
    <glyph glyph-name="asterisk" unicode="*" horiz-adv-x="439" 
d="M261 586l31 61.999c2 4 3 8 3 12c0 6.66699 -2.5 12.334 -7.5 17.001s-10.833 7 -17.5 7c-8.66699 0 -15.667 -4.66699 -21 -14l-27 -54l-27 54c-5.33301 9.33301 -12.666 14 -21.999 14c-6 0 -11.667 -2.33301 -17 -7s-8 -10.334 -8 -17.001
c0 -3.33301 1 -7.33301 3 -12l31 -62h-58c-8 0 -14 -2.5 -18 -7.5s-6 -10.5 -6 -16.5c0 -16.667 8 -25 24 -25h58l-31 -62c-2 -4 -3 -8 -3 -12c0 -6.66699 2.66699 -12.334 8 -17.001s11 -7 17 -7c9.33301 0 16.666 4.66699 21.999 14l27 54l27 -54
c4 -9.33301 11 -14 21 -14c6.66699 0 12.5 2.33301 17.5 7s7.5 10.334 7.5 17.001c0 2.66699 -1 6.66699 -3 12l-31 62h58c8 0 14.167 2.5 18.5 7.5s6.5 10.833 6.5 17.5s-2 12.334 -6 17.001s-10.333 7 -19 7h-58z" />
    <glyph glyph-name="plus" unicode="+" horiz-adv-x="342" 
d="M198 269l0.000976562 97c0 8 -2.5 14.167 -7.5 18.5s-10.833 6.5 -17.5 6.5s-12.334 -2.33301 -17.001 -7s-7 -10.667 -7 -18v-97h-98c-7.33301 0 -13.166 -2.5 -17.499 -7.5s-6.5 -10.833 -6.5 -17.5s2.16699 -12.334 6.5 -17.001s10.166 -7 17.499 -7h98v-98
c0 -8 2.5 -14 7.5 -18s10.5 -6 16.5 -6c16.667 0 25 8 25 24v98h97c8 0 14.167 2.33301 18.5 7s6.5 10.334 6.5 17.001c0 16.667 -8.33301 25 -25 25h-97z" />
    <glyph glyph-name="comma" unicode="," horiz-adv-x="146" 
d="M97 13l-25.001 -96.001c-3.33301 -13.333 -11 -20 -23 -20c-6.66699 0 -12.667 2.33301 -18 7s-8 10.334 -8 17.001c0 2.66699 0.333008 5 1 7l25 97c2.66699 12.667 10.334 19 23.001 19c7.33301 0 13.5 -2.16699 18.5 -6.5s7.5 -9.83301 7.5 -16.5
c0 -3.33301 -0.333008 -6 -1 -8z" />
    <glyph glyph-name="hyphen" unicode="-" 
d="M342 220c8 0 14 2.33301 18 7s6 10.334 6 17.001c0 16.667 -8 25 -24 25h-293c-8 0 -14.167 -2.5 -18.5 -7.5s-6.5 -10.833 -6.5 -17.5s2.33301 -12.334 7 -17.001s10.667 -7 18 -7h293z" />
    <glyph glyph-name="period" unicode="." horiz-adv-x="146" 
d="M73 49c-7.33301 0 -13.166 -2.49902 -17.499 -7.49902s-6.5 -10.833 -6.5 -17.5s2.16699 -12.334 6.5 -17.001s10.166 -7 17.499 -7c8 0 14.167 2.5 18.5 7.5s6.5 10.5 6.5 16.5c0 16.667 -8.33301 25 -25 25z" />
    <glyph glyph-name="slash" unicode="/" horiz-adv-x="537" 
d="M488 742c1.33301 4 2 7.66797 2 11.001c0 6.66699 -2.5 12.167 -7.5 16.5s-10.833 6.5 -17.5 6.5c-10.667 0 -18 -4.66699 -22 -14l-392 -830c-1.33301 -4 -2 -7.66699 -2 -11c0 -6.66699 2.5 -12.334 7.5 -17.001s10.833 -7 17.5 -7c10 0 17.333 5 22 15z" />
    <glyph glyph-name="zero" unicode="0" horiz-adv-x="439" 
d="M391 146l0.000976562 391.001c0 41.333 -14.333 76 -43 104c-28.667 28.667 -63.334 43 -104.001 43h-49c-40.667 0 -75.334 -14.333 -104.001 -43c-28 -29.333 -42 -64 -42 -104v-391c0 -40.667 14.333 -75.334 43 -104.001c28 -28 62.333 -42 103 -42h49
c40.667 -0 75.334 14.333 104.001 43s43 63 43 103zM342.001 146.001c0 -28 -9.33301 -51.167 -28 -69.5s-42 -27.5 -70 -27.5h-49c-13.333 0 -25.833 2.5 -37.5 7.5s-22 12 -31 21s-16 19.333 -21 31s-7.5 24.167 -7.5 37.5v391c0 14 2.5 26.833 7.5 38.5s12 22 21 31
s19.333 16 31 21s24.167 7.5 37.5 7.5h49c14 0 26.833 -2.66699 38.5 -8s22 -12.5 31 -21.5s16 -19.333 21 -31s7.5 -24.167 7.5 -37.5v-391z" />
    <glyph glyph-name="one" unicode="1" horiz-adv-x="293" 
d="M244 24l-0.000976562 635c0 7.33301 -2.5 13.166 -7.5 17.499s-10.833 6.5 -17.5 6.5s-12 -2.33301 -16 -7l-146 -146c-5.33301 -5.33301 -8 -11 -8 -17c0 -6.66699 2.5 -12.5 7.5 -17.5s10.833 -7.5 17.5 -7.5c6 0 11.667 2.66699 17 8l104 105v-577
c0 -7.33301 2.5 -13.166 7.5 -17.499s10.833 -6.5 17.5 -6.5s12.334 2 17.001 6s7 10 7 18z" />
    <glyph glyph-name="two" unicode="2" horiz-adv-x="439" 
d="M365 0c8 0 14.168 2.5 18.501 7.5s6.5 10.5 6.5 16.5c0 16.667 -8.33301 25 -25 25h-246l243 368c11.333 17.333 19.666 34 24.999 50s8 32.333 8 49c0 47.333 -19.333 87.333 -58 120c-37.333 32 -79 48 -125 48c-34.667 0 -64.334 -9 -89.001 -27
c-28.667 -19.333 -50 -49 -64 -89c-1.33301 -4 -2 -7 -2 -9c0 -7.33301 2.5 -13.166 7.5 -17.499s11.167 -6.5 18.5 -6.5c4.66699 0 9 1.33301 13 4s6.66699 6.66699 8 12c10.667 28.667 26 50 46 64c18.667 12.667 40 19 64 19c33.333 0 63.333 -11.667 90 -35
c26.667 -22.667 40 -50.334 40 -83.001c0 -25.333 -7.66699 -49.333 -23 -72l-268 -406c-2.66699 -2.66699 -4 -6.66699 -4 -12c0 -6.66699 2.33301 -12.667 7 -18s10.334 -8 17.001 -8h292z" />
    <glyph glyph-name="three" unicode="3" 
d="M263 374c17.333 14 30.667 30.834 40 50.501s14 40.834 14 63.501v49c0 41.333 -14.333 76.333 -43 105c-28 28 -62.333 42 -103 42h-98c-7.33301 0 -13.166 -2.5 -17.499 -7.5s-6.5 -10.833 -6.5 -17.5s2.16699 -12.334 6.5 -17.001s10.166 -7 17.499 -7h98
c13.333 0 25.833 -2.5 37.5 -7.5s22 -12 31 -21s16.167 -19.333 21.5 -31s8 -24.5 8 -38.5v-49c0 -28 -9.33301 -51.167 -28 -69.5s-42 -27.5 -70 -27.5c-8 0 -14.167 -2.5 -18.5 -7.5s-6.5 -10.833 -6.5 -17.5s2.33301 -12.334 7 -17.001s10.667 -7 18 -7h24
c28 0 51.333 -9.33301 70 -28s28 -42 28 -70v-98c0 -28 -9.33301 -51.167 -28 -69.5s-42 -27.5 -70 -27.5h-122c-7.33301 0 -13.166 -2.5 -17.499 -7.5s-6.5 -10.833 -6.5 -17.5s2.16699 -12.334 6.5 -17.001s10.166 -7 17.499 -7h122c40 0 74.667 14 104 42
c28.667 28.667 43 63.334 43 104.001v98c0 28 -7.33301 53.5 -22 76.5s-33.667 40.833 -57 53.5z" />
    <glyph glyph-name="four" unicode="4" horiz-adv-x="439" 
d="M293 195l-0.000976562 122.999c0 8 -2.5 14 -7.5 18s-10.5 6 -16.5 6c-16.667 0 -25 -8 -25 -24v-123h-141l92 459v6c0 6.66699 -2.5 12.334 -7.5 17.001s-10.833 7 -17.5 7c-12 0 -19.667 -6.66699 -23 -20l-98 -488v-6c0 -6.66699 2.33301 -12.334 7 -17.001
s10.334 -7 17.001 -7h171v-122c0 -7.33301 2.5 -13.166 7.5 -17.499s10.833 -6.5 17.5 -6.5s12.334 2 17.001 6s7 10 7 18v122h74c7.33301 0 13.166 2.5 17.499 7.5s6.5 10.833 6.5 17.5c0 16 -8 24 -24 24h-74z" />
    <glyph glyph-name="five" unicode="5" 
d="M342 146v98.002c0 40.667 -14.333 75 -43 103c-28.667 28.667 -63 43 -103 43h-98v245h219c8 0 14.167 2.33301 18.5 7s6.5 10.334 6.5 17.001c0 16.667 -8.33301 25 -25 25h-244c-16 0 -24 -8.33301 -24 -25v-293c0 -16.667 8 -25 24 -25h123
c13.333 0 25.833 -2.5 37.5 -7.5s22 -11.833 31 -20.5s16 -18.834 21 -30.501s7.5 -24.5 7.5 -38.5v-98c0 -14 -2.5 -26.833 -7.5 -38.5s-12 -21.834 -21 -30.501s-19.333 -15.5 -31 -20.5s-24.167 -7.5 -37.5 -7.5h-123c-7.33301 0 -13.166 -2.5 -17.499 -7.5
s-6.5 -10.833 -6.5 -17.5s2.16699 -12.334 6.5 -17.001s10.166 -7 17.499 -7h123c40 -0 74.333 14.333 103 43s43 63 43 103z" />
    <glyph glyph-name="six" unicode="6" horiz-adv-x="439" 
d="M98 342h146c28 0 51.333 -9.33301 70 -28s28 -42 28 -70v-98c0 -28 -9.33301 -51.167 -28 -69.5s-42 -27.5 -70 -27.5h-49c-13.333 0 -25.833 2.5 -37.5 7.5s-22 12 -31 21s-16 19.333 -21 31s-7.5 24.167 -7.5 37.5v196zM49 364l-0.000976562 -217.999
c0 -40.667 14.333 -75.334 43 -104.001c28 -28 62.333 -42 103 -42h49c40 0 74.667 14 104 42c28.667 28.667 43 63.334 43 104.001v98c0 41.333 -14.333 76.333 -43 105c-28 28 -62.667 42 -104 42h-145c0 22 4 45 12 69c8 21.333 18.667 42.666 32 63.999
c32.667 53.333 77.334 90.666 134.001 111.999c10.667 4.66699 16 12.334 16 23.001c0 6.66699 -2.16699 12.5 -6.5 17.5s-9.83301 7.5 -16.5 7.5c-2.66699 0 -6 -0.666992 -10 -2c-68 -27.333 -121 -71.333 -159 -132c-34.667 -56.667 -52 -118.667 -52 -186z" />
    <glyph glyph-name="seven" unicode="7" horiz-adv-x="439" 
d="M391 654c0.666992 2 0.999023 4.33203 0.999023 6.99902c0 6.66699 -2.33301 12.167 -7 16.5s-10.667 6.5 -18 6.5h-294c-16 0 -24 -8.33301 -24 -25v-73c0 -7.33301 2.33301 -13.166 7 -17.499s10.334 -6.5 17.001 -6.5c16.667 0 25 8 25 24v49h238l-140 -605
c-0.666992 -2 -1 -4.33301 -1 -7c0 -15.333 8.33301 -23 25 -23c12.667 -0 20.667 6.33301 24 19z" />
    <glyph glyph-name="eight" unicode="8" horiz-adv-x="439" 
d="M391 146v98c0 28 -7.33301 53.5 -22 76.5s-33.667 40.833 -57 53.5c16.667 14 29.834 30.833 39.501 50.5s14.5 40.834 14.5 63.501v50c0 40.667 -14.333 75 -43 103c-28.667 28.667 -63.334 43 -104.001 43s-75.334 -14.333 -104.001 -43c-28 -28 -42 -62.333 -42 -103
v-50c0 -22.667 4.83301 -43.834 14.5 -63.501s22.834 -36.5 39.501 -50.5c-24 -12.667 -43 -30.5 -57 -53.5s-21 -48.5 -21 -76.5v-98c0 -40.667 14.333 -75.334 43 -104.001c28 -28 62.333 -42 103 -42h49c40 0 74.667 14 104 42c28.667 28.667 43 63.334 43 104.001z
M317 488c0 -28 -9.33398 -51.168 -28.001 -69.501s-42 -27.5 -70 -27.5c-13.333 0 -25.833 2.5 -37.5 7.5s-22 11.833 -31 20.5s-16 18.834 -21 30.501s-7.5 24.5 -7.5 38.5v50c0 13.333 2.66699 25.833 8 37.5s12.5 22 21.5 31s19.333 16 31 21s24.167 7.5 37.5 7.5
c14 0 26.833 -2.5 38.5 -7.5s21.834 -12 30.501 -21s15.5 -19.333 20.5 -31s7.5 -24.167 7.5 -37.5v-50zM341.999 145.999c0 -28 -9.33301 -51.167 -28 -69.5s-42 -27.5 -70 -27.5h-49c-13.333 0 -25.833 2.5 -37.5 7.5s-22 12 -31 21s-16 19.333 -21 31
s-7.5 24.167 -7.5 37.5v98c0 14 2.5 26.833 7.5 38.5s12 22 21 31s19.333 16 31 21s24.167 7.5 37.5 7.5h49c28 0 51.333 -9.33301 70 -28s28 -42 28 -70v-98z" />
    <glyph glyph-name="nine" unicode="9" horiz-adv-x="439" 
d="M342 342h-147c-13.333 0 -25.833 2.5 -37.5 7.5s-22 12 -31 21s-16 19.333 -21 31s-7.5 24.167 -7.5 37.5v98c0 28 9.16699 51.333 27.5 70s41.5 28 69.5 28h49c28 0 51.333 -9.33301 70 -28s28 -42 28 -70v-195zM391 320l0.00195312 217
c0 40.667 -14.333 75.334 -43 104.001s-63.334 43 -104.001 43h-49c-40.667 0 -75.334 -14.333 -104.001 -43c-28 -29.333 -42 -64 -42 -104v-98c0 -40.667 14.333 -75.334 43 -104.001c28 -28 62.333 -42 103 -42h146c0 -22 -4 -44.5 -12 -67.5s-18.667 -45.167 -32 -66.5
c-33.333 -51.333 -78.333 -88.666 -135 -111.999c-10.667 -4 -16 -11.333 -16 -22c0 -6.66699 2.33301 -12.5 7 -17.5s10 -7.5 16 -7.5c5.33301 0 9 0.333008 11 1c67.333 27.333 120 71.333 158 132c35.333 57.333 53 119.666 53 186.999z" />
    <glyph glyph-name="colon" unicode=":" horiz-adv-x="146" 
d="M73 49c-7.33301 0 -13.166 -2.49902 -17.499 -7.49902s-6.5 -10.833 -6.5 -17.5s2.16699 -12.334 6.5 -17.001s10.166 -7 17.499 -7c8 0 14.167 2.5 18.5 7.5s6.5 10.5 6.5 16.5c0 16.667 -8.33301 25 -25 25zM73 342.001c-7.33301 0 -13.166 -2.49902 -17.499 -7.49902
s-6.5 -10.833 -6.5 -17.5s2.16699 -12.334 6.5 -17.001s10.166 -7 17.499 -7c8 0 14.167 2.5 18.5 7.5s6.5 10.5 6.5 16.5c0 16.667 -8.33301 25 -25 25z" />
    <glyph glyph-name="semicolon" unicode=";" horiz-adv-x="146" 
d="M73 342c-8 0 -14.166 -2.49902 -18.499 -7.49902s-6.5 -10.833 -6.5 -17.5s2.33301 -12.334 7 -17.001s10.667 -7 18 -7s13.166 2.5 17.499 7.5s6.5 10.5 6.5 16.5c0 16.667 -8 25 -24 25zM97.001 19.001l-24.999 -98.001c-3.33301 -12.667 -11 -19 -23 -19
c-6.66699 0 -12.667 2.33301 -18 7s-8 10.334 -8 17.001c0 2.66699 0.333008 5 1 7l25 97c1.33301 7.33301 4.16602 12.333 8.49902 15s9.5 4 15.5 4c6.66699 0 12.5 -2.16699 17.5 -6.5s7.5 -9.83301 7.5 -16.5c0 -2.66699 -0.333008 -5 -1 -7z" />
    <glyph glyph-name="less" unicode="&#x3c;" 
d="M333 144l-201.001 99.999l201 100c8.66699 4.66699 13 12 13 22c0 6 -2.16699 11.667 -6.5 17s-9.83301 8 -16.5 8c-3.33301 0 -7.33301 -1 -12 -3l-244 -122c-9.33301 -5.33301 -14 -12.666 -14 -21.999c0 -10 4.66699 -17.333 14 -22l244 -122c4 -2 8 -3 12 -3
c6.66699 0 12.334 2.66699 17.001 8s7 11.333 7 18c0 8.66699 -4.66699 15.667 -14 21z" />
    <glyph glyph-name="equal" unicode="=" horiz-adv-x="342" 
d="M295 293c8 0 14.167 2.50098 18.5 7.50098s6.5 10.5 6.5 16.5c0 16.667 -8.33301 25 -25 25h-244c-7.33301 0 -13.166 -2.5 -17.499 -7.5s-6.5 -10.833 -6.5 -17.5s2.16699 -12.334 6.5 -17.001s10.166 -7 17.499 -7h244zM295 146.001c8 0 14.167 2.50098 18.5 7.50098
s6.5 10.833 6.5 17.5c0 16 -8.33301 24 -25 24h-244c-7.33301 0 -13.166 -2.33301 -17.499 -7s-6.5 -10.334 -6.5 -17.001s2.16699 -12.5 6.5 -17.5s10.166 -7.5 17.499 -7.5h244z" />
    <glyph glyph-name="greater" unicode="&#x3e;" 
d="M329 222c9.33301 5.33301 14 12.667 14 22s-4.66699 16.666 -14 21.999l-245 122c-3.33301 2 -7 3 -11 3c-6.66699 0 -12.334 -2.66699 -17.001 -8s-7 -11 -7 -17c0 -9.33301 4.66699 -16.666 14 -21.999l200 -100l-200 -100c-9.33301 -5.33301 -14 -12.333 -14 -21
c0 -6.66699 2.33301 -12.667 7 -18s10.334 -8 17.001 -8c3.33301 0 7 1 11 3z" />
    <glyph glyph-name="question" unicode="?" horiz-adv-x="415" 
d="M366 513l0.00195312 23.9971c0 40.667 -14.333 75.334 -43 104.001c-28 28.667 -62.333 43 -103 43h-49c-22.667 0 -44.667 -5.33301 -66 -16s-38.666 -25 -51.999 -43c-3.33301 -5.33301 -5 -10.333 -5 -15c0 -6.66699 2.5 -12.5 7.5 -17.5s10.833 -7.5 17.5 -7.5
c7.33301 0 13.666 3.66699 18.999 11c20 26 46.333 39 79 39h49c13.333 0 25.833 -2.5 37.5 -7.5s22 -12 31 -21s16 -19.333 21 -31s7.5 -24.5 7.5 -38.5v-24c0 -23.333 -7.5 -44.166 -22.5 -62.499s-33.833 -30.5 -56.5 -36.5c-20 -5.33301 -36.167 -16.666 -48.5 -33.999
s-18.5 -36.333 -18.5 -57v-152c0 -8 2.5 -14.167 7.5 -18.5s10.5 -6.5 16.5 -6.5c16.667 0 25 8.33301 25 25v153c0 10.667 2.66699 20 8 28s12.666 13 21.999 15c16.667 4 32.167 10.5 46.5 19.5s26.666 20 36.999 33s18.333 27.333 24 43s8.5 32.5 8.5 50.5z
M195.002 -0.00292969c8 0 14.167 2.50098 18.5 7.50098s6.5 10.5 6.5 16.5c0 16.667 -8.33301 25 -25 25c-7.33301 0 -13.166 -2.5 -17.499 -7.5s-6.5 -10.833 -6.5 -17.5s2.16699 -12.334 6.5 -17.001s10.166 -7 17.499 -7z" />
    <glyph glyph-name="at" unicode="@" horiz-adv-x="781" 
d="M732 342c0 94 -33.3311 174.333 -99.998 241c-67.333 67.333 -147.666 101 -240.999 101c-94 0 -174.667 -33.667 -242 -101c-66.667 -66.667 -100 -147 -100 -241s32.667 -174.667 98 -242c64.667 -66.667 142.667 -100 234 -100c44.667 0 82 3.16699 112 9.5
s59 16.166 87 29.499c9.33301 5.33301 14 12.666 14 21.999c0 6 -2.33301 11.5 -7 16.5s-10.334 7.5 -17.001 7.5c-2 0 -5.66699 -0.666992 -11 -2c-27.333 -13.333 -53.333 -22.333 -78 -27c-12.667 -2.66699 -27.334 -4.5 -44.001 -5.5s-35.334 -1.5 -56.001 -1.5
c-77.333 0 -144 28.667 -200 86c-55.333 57.333 -83 126.333 -83 207s28.667 149.667 86 207s126.333 86 207 86s149.667 -28.667 207 -86s86 -126.333 86 -207c0 -42 -10 -77.333 -30 -106c-20.667 -30.667 -49 -46 -85 -46h-31c-10 0 -18.333 3.33301 -25 10
s-10 15 -10 25v293c0 16 -8 24 -24 24h-137c-11.333 0 -22 -2.16699 -32 -6.5s-18.833 -10.166 -26.5 -17.499s-13.667 -16 -18 -26s-6.5 -21 -6.5 -33v-234c0 -12 2.16699 -23 6.5 -33s10.333 -18.667 18 -26s16.5 -13.166 26.5 -17.499s20.667 -6.5 32 -6.5h78
c23.333 0 43 8 59 24c16 -16 35.667 -24 59 -24h31c49.333 0 89 19.667 119 59c29.333 38.667 44 85.667 44 141zM455.002 225c0 -10 -3.33301 -18.333 -10 -25s-15 -10 -25 -10h-78c-9.33301 0 -17.333 3.33301 -24 10s-10 15 -10 25v234c0 9.33301 3.33301 17.333 10 24
s14.667 10 24 10h113v-268z" />
    <glyph glyph-name="A" unicode="A" horiz-adv-x="488" 
d="M144 196h198.999l48 -177c2.66699 -12.667 10.334 -19 23.001 -19c6 -0 11.5 2.33301 16.5 7s7.5 10.334 7.5 17.001v7l-171 630c-4 14.667 -12 22 -24 22c-11.333 0 -19 -7.33301 -23 -22l-171 -630c-0.666992 -2 -1 -4.33301 -1 -7c0 -6.66699 2.5 -12.334 7.5 -17.001
s10.833 -7 17.5 -7c11.333 -0 19 6.33301 23 19zM329.999 245h-173l86 321z" />
    <glyph glyph-name="B" unicode="B" horiz-adv-x="439" 
d="M98 390v245h122c13.333 0 25.833 -2.5 37.5 -7.5s22 -12 31 -21s16 -19.333 21 -31s7.5 -24.5 7.5 -38.5v-49c0 -13.333 -2.5 -25.833 -7.5 -37.5s-12 -22 -21 -31s-19.333 -16.167 -31 -21.5s-24.167 -8 -37.5 -8h-122zM98 49v292h146c28 0 51.333 -9.16699 70 -27.5
s28 -41.5 28 -69.5v-98c0 -28 -9.33301 -51.167 -28 -69.5s-42 -27.5 -70 -27.5h-146zM73 0l170.999 -0.00195312c38 0 71.667 14.333 101 43c30.667 28.667 46 63 46 103v98c0 28 -7.16699 53.667 -21.5 77s-33.5 41 -57.5 53c16.667 14.667 29.834 31.834 39.501 51.501
s14.5 40.5 14.5 62.5v49c0 40.667 -14.333 75.334 -43 104.001c-28 28.667 -62.333 43 -103 43h-147c-16 0 -24 -8.33301 -24 -25v-635c0 -16 8 -24 24 -24z" />
    <glyph glyph-name="C" unicode="C" 
d="M317 0c8 0 14.167 2.50098 18.5 7.50098s6.5 10.5 6.5 16.5c0 16.667 -8.33301 25 -25 25h-121c-14 0 -26.833 2.5 -38.5 7.5s-22 12 -31 21s-16 19.333 -21 31s-7.5 24.167 -7.5 37.5v391c0 28 9.33301 51.333 28 70s42 28 70 28h121c8 0 14.167 2.33301 18.5 7
s6.5 10.334 6.5 17.001c0 16.667 -8.33301 25 -25 25h-121c-40.667 0 -75.334 -14.333 -104.001 -43s-43 -63.334 -43 -104.001v-391c0 -40.667 14.333 -75.334 43 -104.001c28.667 -28 63.334 -42 104.001 -42h121z" />
    <glyph glyph-name="D" unicode="D" horiz-adv-x="439" 
d="M391 146v391c0 41.333 -14.333 76 -43 104c-28.667 28.667 -63.334 43 -104.001 43h-171c-16 0 -24 -8.33301 -24 -25v-635c0 -16 8 -24 24 -24h171c40.667 -0 75.334 14.333 104.001 43s43 63 43 103zM342 146c0 -28 -9.33301 -51.167 -28 -69.5s-42 -27.5 -70 -27.5
h-146v586h146c14 0 26.833 -2.66699 38.5 -8s22 -12.5 31 -21.5s16 -19.333 21 -31s7.5 -24.167 7.5 -37.5v-391z" />
    <glyph glyph-name="E" unicode="E" 
d="M98 341l122 -0.00195312c8 0 14.167 2.5 18.5 7.5s6.5 10.833 6.5 17.5s-2.16699 12.334 -6.5 17.001s-10.5 7 -18.5 7h-122v245h220c8 0 14 2.33301 18 7s6 10.334 6 17.001c0 16.667 -8 25 -24 25h-244c-16.667 0 -25 -8.33301 -25 -25v-635c0 -16 8.33301 -24 25 -24
h244c8 0 14 2.5 18 7.5s6 10.5 6 16.5c0 16.667 -8 25 -24 25h-220v292z" />
    <glyph glyph-name="F" unicode="F" 
d="M98 390l-0.000976562 244.997h219c8 0 14.167 2.33301 18.5 7s6.5 10.334 6.5 17.001c0 16.667 -8.33301 25 -25 25h-244c-16 0 -24 -8.33301 -24 -25v-635c0 -7.33301 2.33301 -13.166 7 -17.499s10.334 -6.5 17.001 -6.5c16.667 0 25 8 25 24v317h219
c8 0 14.167 2.5 18.5 7.5s6.5 10.833 6.5 17.5s-2 12.334 -6 17.001s-10.333 7 -19 7h-219z" />
    <glyph glyph-name="G" unicode="G" horiz-adv-x="439" 
d="M391 24l0.000976562 342c0 16 -8.33301 24 -25 24h-97c-8 0 -14 -2.5 -18 -7.5s-6 -10.5 -6 -16.5c0 -16.667 8 -25 24 -25h73v-292h-147c-13.333 0 -25.833 2.5 -37.5 7.5s-22 12 -31 21s-16 19.333 -21 31s-7.5 24.167 -7.5 37.5v391c0 14 2.5 26.833 7.5 38.5
s12 22 21 31s19.333 16 31 21s24.167 7.5 37.5 7.5h171c8 0 14.167 2.33301 18.5 7s6.5 10.334 6.5 17.001c0 16.667 -8.33301 25 -25 25h-171c-40.667 0 -75.334 -14.333 -104.001 -43c-28 -29.333 -42 -64 -42 -104v-391c0 -40.667 14.333 -75.334 43 -104.001
c28 -28 62.333 -42 103 -42h171c16.667 0 25 8 25 24z" />
    <glyph glyph-name="H" unicode="H" horiz-adv-x="439" 
d="M342 390l-244.001 -0.00195312v269c0 8 -2.5 14.167 -7.5 18.5s-10.833 6.5 -17.5 6.5s-12.334 -2.33301 -17.001 -7s-7 -10.667 -7 -18v-635c0 -7.33301 2.33301 -13.166 7 -17.499s10.334 -6.5 17.001 -6.5c16.667 0 25 8 25 24v317h244v-317
c0 -7.33301 2.5 -13.166 7.5 -17.499s10.833 -6.5 17.5 -6.5s12.334 2 17.001 6s7 10 7 18v635c0 8 -2.5 14.167 -7.5 18.5s-10.5 6.5 -16.5 6.5c-16.667 0 -25 -8.33301 -25 -25v-269z" />
    <glyph glyph-name="I" unicode="I" horiz-adv-x="146" 
d="M98 24v634.999c0 8 -2.5 14.167 -7.5 18.5s-10.833 6.5 -17.5 6.5s-12.334 -2.33301 -17.001 -7s-7 -10.667 -7 -18v-635c0 -7.33301 2.33301 -13.166 7 -17.499s10.334 -6.5 17.001 -6.5c16.667 0 25 8 25 24z" />
    <glyph glyph-name="J" unicode="J" horiz-adv-x="342" 
d="M293 146v513c0 8 -2.5 14.167 -7.5 18.5s-10.5 6.5 -16.5 6.5c-16.667 0 -25 -8.33301 -25 -25v-513c0 -13.333 -2.5 -25.833 -7.5 -37.5s-12 -22 -21 -31s-19.333 -16 -31 -21s-24.5 -7.5 -38.5 -7.5h-73c-7.33301 0 -13.166 -2.5 -17.499 -7.5s-6.5 -10.833 -6.5 -17.5
s2.16699 -12.334 6.5 -17.001s10.166 -7 17.499 -7h73c41.333 0 76 14 104 42c28.667 28.667 43 63.334 43 104.001z" />
    <glyph glyph-name="K" unicode="K" horiz-adv-x="439" 
d="M98 261l81 108.999l166 -356c3.33301 -9.33301 10.333 -14 21 -14c6 0 11.667 2.33301 17 7s8 10 8 16c0 2.66699 -0.666992 6.66699 -2 12l-177 379l174 231c4 4 6 8.66699 6 14c0 6.66699 -2.66699 12.5 -8 17.5s-11.333 7.5 -18 7.5c-8 0 -14.333 -3.33301 -19 -10
l-249 -332v317c0 8 -2.5 14.167 -7.5 18.5s-10.833 6.5 -17.5 6.5s-12.334 -2.33301 -17.001 -7s-7 -10.667 -7 -18v-635c0 -7.33301 2.33301 -13.166 7 -17.499s10.334 -6.5 17.001 -6.5c16.667 0 25 8 25 24v237z" />
    <glyph glyph-name="L" unicode="L" horiz-adv-x="342" 
d="M269 0c7.33301 0 13.168 2.5 17.501 7.5s6.5 10.5 6.5 16.5c0 16.667 -8 25 -24 25h-171v610c0 8 -2.5 14.167 -7.5 18.5s-10.833 6.5 -17.5 6.5s-12.334 -2.33301 -17.001 -7s-7 -10.667 -7 -18v-635c0 -16 8 -24 24 -24h196z" />
    <glyph glyph-name="M" unicode="M" horiz-adv-x="537" 
d="M488 25l-0.000976562 634c0 8 -2.16699 14.667 -6.5 20s-9.5 8 -15.5 8c-9.33301 0 -17.333 -5.33301 -24 -16l-174 -283l-174 283c-6 10.667 -13.667 16 -23 16c-14.667 0 -22 -9.33301 -22 -28v-634c0 -8 2.33301 -14.167 7 -18.5s10.334 -6.5 17.001 -6.5
c16.667 -0 25 8.33301 25 25v547l149 -243c6 -10 13 -15 21 -15s15 5 21 15l150 243v-547c0 -8 2.5 -14.167 7.5 -18.5s10.5 -6.5 16.5 -6.5c16.667 -0 25 8.33301 25 25z" />
    <glyph glyph-name="N" unicode="N" horiz-adv-x="439" 
d="M391 24l-0.000976562 635.001c0 8 -2.5 14.167 -7.5 18.5s-10.5 6.5 -16.5 6.5c-16.667 0 -25 -8.33301 -25 -25v-524l-247 534c-2 5.33301 -5 9.16602 -9 11.499s-8.33301 3.5 -13 3.5c-6.66699 0 -12.334 -2.33301 -17.001 -7s-7 -10.667 -7 -18v-635
c0 -7.33301 2.33301 -13.166 7 -17.499s10.334 -6.5 17.001 -6.5c16.667 0 25 8 25 24v524l247 -534c4 -9.33301 11.333 -14 22 -14c6.66699 0 12.334 2.16699 17.001 6.5s7 10.166 7 17.499z" />
    <glyph glyph-name="O" unicode="O" horiz-adv-x="439" 
d="M391 146l0.000976562 391.001c0 41.333 -14.333 76 -43 104c-28.667 28.667 -63.334 43 -104.001 43h-49c-40.667 0 -75.334 -14.333 -104.001 -43c-28 -29.333 -42 -64 -42 -104v-391c0 -40.667 14.333 -75.334 43 -104.001c28 -28 62.333 -42 103 -42h49
c40.667 -0 75.334 14.333 104.001 43s43 63 43 103zM342.001 146.001c0 -28 -9.33301 -51.167 -28 -69.5s-42 -27.5 -70 -27.5h-49c-13.333 0 -25.833 2.5 -37.5 7.5s-22 12 -31 21s-16 19.333 -21 31s-7.5 24.167 -7.5 37.5v391c0 14 2.5 26.833 7.5 38.5s12 22 21 31
s19.333 16 31 21s24.167 7.5 37.5 7.5h49c14 0 26.833 -2.66699 38.5 -8s22 -12.5 31 -21.5s16 -19.333 21 -31s7.5 -24.167 7.5 -37.5v-391z" />
    <glyph glyph-name="P" unicode="P" horiz-adv-x="439" 
d="M98 342v292h146c14 0 26.833 -2.5 38.5 -7.5s22 -12 31 -21s16 -19.333 21 -31s7.5 -24.167 7.5 -37.5v-98c0 -13.333 -2.5 -25.833 -7.5 -37.5s-12 -22 -21 -31s-19.333 -16 -31 -21s-24.5 -7.5 -38.5 -7.5h-146zM98 293l146 -0.000976562c40 0 74.667 14 104 42
c28.667 28.667 43 63.334 43 104.001v98c0 40.667 -14.333 75 -43 103c-28.667 28.667 -63.334 43 -104.001 43h-171c-16 0 -24 -8 -24 -24v-634c0 -8 2.33301 -14.167 7 -18.5s10.334 -6.5 17.001 -6.5c16.667 -0 25 8.33301 25 25v268z" />
    <glyph glyph-name="Q" unicode="Q" horiz-adv-x="488" 
d="M320 85c-20 -24 -45.333 -36.001 -76 -36.001h-49c-13.333 0 -25.833 2.5 -37.5 7.5s-22 12 -31 21s-16 19.333 -21 31s-7.5 24.167 -7.5 37.5v391c0 14 2.5 26.833 7.5 38.5s12 22 21 31s19.333 16 31 21s24.167 7.5 37.5 7.5h49c14 0 26.833 -2.66699 38.5 -8
s21.834 -12.5 30.501 -21.5s15.5 -19.333 20.5 -31s7.5 -24.167 7.5 -37.5v-391l-1 -13l-103 104c-4.66699 4.66699 -10.334 7 -17.001 7s-12.5 -2.5 -17.5 -7.5s-7.5 -10.833 -7.5 -17.5c0 -5.33301 2.66699 -10.666 8 -15.999zM380 92.999
c6.66699 16 9.99902 33.667 9.99902 53v391c0 41.333 -14.333 76.333 -43 105c-28 28 -62.333 42 -103 42h-49c-40.667 0 -75.334 -14.333 -104.001 -43c-28 -29.333 -42 -64 -42 -104v-391c0 -40.667 14.333 -75.334 43 -104.001c28 -28 62.333 -42 103 -42h49
c22 0 42.5 4.5 61.5 13.5s35.167 21.167 48.5 36.5l44 -43c4.66699 -4.66699 10.334 -7 17.001 -7s12.334 2.5 17.001 7.5s7 10.833 7 17.5s-2.33301 12.334 -7 17.001z" />
    <glyph glyph-name="R" unicode="R" horiz-adv-x="439" 
d="M98 342v293h146c14 0 26.833 -2.66699 38.5 -8s22 -12.5 31 -21.5s16 -19.333 21 -31s7.5 -24.167 7.5 -37.5v-98c0 -13.333 -2.5 -25.833 -7.5 -37.5s-12 -22 -21 -31s-19.333 -16 -31 -21s-24.5 -7.5 -38.5 -7.5h-146zM238 293l5.99902 -0.00195312
c40 0 74.667 14 104 42c28.667 28.667 43 63.334 43 104.001v98c0 41.333 -14.333 76 -43 104c-28.667 28.667 -63.334 43 -104.001 43h-171c-16 0 -24 -8.33301 -24 -25v-635c0 -7.33301 2.33301 -13.166 7 -17.499s10.334 -6.5 17.001 -6.5c16.667 0 25 8 25 24v269h84
l164 -281c4.66699 -8 11.334 -12 20.001 -12c6.66699 -0 12.5 2.33301 17.5 7s7.5 10.334 7.5 17.001c0 3.33301 -1 7.66602 -3 12.999z" />
    <glyph glyph-name="S" unicode="S" horiz-adv-x="439" 
d="M380 649c-35.333 23.333 -72.332 34.998 -110.999 34.998h-72c-43.333 0 -79 -15.333 -107 -46c-26.667 -27.333 -40 -61 -40 -101s14.333 -74.333 43 -103l219 -218c10 -9.33301 17.167 -20 21.5 -32s6.5 -24.333 6.5 -37c0 -13.333 -2.5 -25.833 -7.5 -37.5
s-11.833 -22 -20.5 -31s-19 -16.167 -31 -21.5s-25 -8 -39 -8h-71c-30.667 0 -58.667 8.66699 -84 26c-4.66699 2.66699 -9.33398 4 -14.001 4c-6.66699 0 -12.334 -2.5 -17.001 -7.5s-7 -10.833 -7 -17.5c0 -8 3.66699 -14.333 11 -19c33.333 -23.333 70.333 -35 111 -35
h71c43.333 0 79 15 107 45c26.667 28.667 40 62.334 40 101.001c0 40.667 -14.333 75.334 -43 104.001l-218 218c-19.333 19.333 -29 42.333 -29 69s9.16699 49.667 27.5 69s41.833 29 70.5 29h72c30.667 0 58.667 -9 84 -27c4.66699 -2.66699 9.33398 -4 14.001 -4
c6.66699 0 12.5 2.66699 17.5 8s7.5 11 7.5 17c0 9.33301 -4 16 -12 20z" />
    <glyph glyph-name="T" unicode="T" horiz-adv-x="439" 
d="M195 635v-611.001c0 -7.33301 2.5 -13.166 7.5 -17.499s10.833 -6.5 17.5 -6.5s12.334 2 17.001 6s7 10 7 18v611h123c7.33301 0 13.166 2.33301 17.499 7s6.5 10.334 6.5 17.001c0 16.667 -8 25 -24 25h-294c-7.33301 0 -13.166 -2.5 -17.499 -7.5
s-6.5 -10.833 -6.5 -17.5s2.16699 -12.334 6.5 -17.001s10.166 -7 17.499 -7h122z" />
    <glyph glyph-name="U" unicode="U" horiz-adv-x="439" 
d="M391 146v513.001c0 8 -2.5 14.167 -7.5 18.5s-10.5 6.5 -16.5 6.5c-16.667 0 -25 -8.33301 -25 -25v-513c0 -28 -9.33301 -51.167 -28 -69.5s-42 -27.5 -70 -27.5h-49c-13.333 0 -25.833 2.5 -37.5 7.5s-22 12 -31 21s-16 19.333 -21 31s-7.5 24.167 -7.5 37.5v513
c0 8 -2.5 14.167 -7.5 18.5s-10.833 6.5 -17.5 6.5s-12.334 -2.33301 -17.001 -7s-7 -10.667 -7 -18v-513c0 -40.667 14.333 -75.334 43 -104.001c28 -28 62.333 -42 103 -42h49c40.667 -0 75.334 14.333 104.001 43s43 63 43 103z" />
    <glyph glyph-name="V" unicode="V" horiz-adv-x="488" 
d="M438 652l0.000976562 7c0 6.66699 -2.5 12.334 -7.5 17.001s-10.5 7 -16.5 7c-12.667 0 -20.334 -6 -23.001 -18l-148 -543l-147 543c-4 12 -11.667 18 -23 18c-6.66699 0 -12.5 -2.33301 -17.5 -7s-7.5 -10.334 -7.5 -17.001c0 -2.66699 0.333008 -5 1 -7l171 -630
c4 -14.667 11.667 -22 23 -22c12 -0 20 7.33301 24 22z" />
    <glyph glyph-name="W" unicode="W" horiz-adv-x="684" 
d="M633 655c0.666992 0.666992 1 2.33398 1 5.00098c0 7.33301 -2.5 13.166 -7.5 17.499s-10.833 6.5 -17.5 6.5c-12.667 0 -20.667 -6.66699 -24 -20l-104 -540l-117 352c-5.33301 14 -13 21 -23 21c-10.667 0 -18.334 -7 -23.001 -21l-116 -352l-105 540
c-3.33301 13.333 -11.333 20 -24 20c-6.66699 0 -12.5 -2.16699 -17.5 -6.5s-7.5 -9.83301 -7.5 -16.5c0 -3.33301 0.333008 -5.33301 1 -6l122 -631c4 -16 12 -24 24 -24c10 0 17.667 7 23 21l123 370l124 -370c4.66699 -14 12.334 -21 23.001 -21c12.667 0 20.667 8 24 24
z" />
    <glyph glyph-name="X" unicode="X" horiz-adv-x="488" 
d="M245 394l-150 277c-5.33301 9.33301 -12 14 -20 14c-7.33301 0 -13.5 -2.33301 -18.5 -7s-7.5 -10.334 -7.5 -17.001c0 -4.66699 1 -9 3 -13l165 -306l-165 -305c-2 -5.33301 -3 -9.66602 -3 -12.999c0 -6.66699 2.5 -12.334 7.5 -17.001s10.833 -7 17.5 -7
c9.33301 0 16.333 4.33301 21 13l150 278l149 -278c4.66699 -8.66699 11.667 -13 21 -13c6.66699 0 12.5 2.33301 17.5 7s7.5 10.334 7.5 17.001c0 3.33301 -1 7.66602 -3 12.999l-165 305l165 306c2 4 3 8.33301 3 13c0 6.66699 -2.5 12.334 -7.5 17.001s-10.833 7 -17.5 7
c-8.66699 0 -15.667 -4.66699 -21 -14z" />
    <glyph glyph-name="Y" unicode="Y" horiz-adv-x="488" 
d="M220 335v-311.001c0 -7.33301 2.5 -13.166 7.5 -17.499s10.833 -6.5 17.5 -6.5s12.334 2 17.001 6s7 10 7 18v311l168 312c2 4.66699 3 9 3 13c0 6.66699 -2.5 12.334 -7.5 17.001s-10.833 7 -17.5 7c-9.33301 0 -16.333 -4.33301 -21 -13l-149 -277l-150 277
c-4.66699 8.66699 -11.334 13 -20.001 13c-7.33301 0 -13.5 -2.33301 -18.5 -7s-7.5 -10.334 -7.5 -17.001c0 -4 1 -8.33301 3 -13z" />
    <glyph glyph-name="Z" unicode="Z" horiz-adv-x="439" 
d="M390 649c2.66699 5.33301 4.00098 10.334 4.00098 15.001c0 13.333 -8.66699 20 -26 20h-294c-7.33301 0 -13.166 -2.5 -17.499 -7.5s-6.5 -10.833 -6.5 -17.5s2.16699 -12.334 6.5 -17.001s10.166 -7 17.499 -7h256l-278 -600c-2.66699 -6 -4 -11 -4 -15
c0 -13.333 8.66699 -20 26 -20h294c7.33301 0 13.166 2.5 17.499 7.5s6.5 10.5 6.5 16.5c0 16.667 -8 25 -24 25h-256z" />
    <glyph glyph-name="bracketleft" unicode="[" horiz-adv-x="195" 
d="M146 -49c8 0 14.167 2.49805 18.5 7.49805s6.5 10.833 6.5 17.5s-2 12.334 -6 17.001s-10.333 7 -19 7h-48v684h48c8 0 14.167 2.33301 18.5 7s6.5 10.334 6.5 17.001c0 16 -8.33301 24 -25 24h-73c-16 0 -24 -8 -24 -24v-732c0 -16.667 8 -25 24 -25h73z" />
    <glyph glyph-name="backslash" unicode="\" horiz-adv-x="537" 
d="M488 -68l-392.001 829.999c-5.33301 9.33301 -12.666 14 -21.999 14c-7.33301 0 -13.5 -2.16699 -18.5 -6.5s-7.5 -9.83301 -7.5 -16.5c0 -2.66699 1 -6.33398 3 -11.001l392 -830c4.66699 -10 12 -15 22 -15c6.66699 0 12.5 2.33301 17.5 7s7.5 10.334 7.5 17.001
c0 1.33301 -0.166992 2.83301 -0.5 4.5s-0.833008 3.83398 -1.5 6.50098z" />
    <glyph glyph-name="bracketright" unicode="]" horiz-adv-x="195" 
d="M146 -24v732.002c0 16 -8 24 -24 24h-73c-8 0 -14.167 -2.33301 -18.5 -7s-6.5 -10.334 -6.5 -17.001s2.33301 -12.334 7 -17.001s10.667 -7 18 -7h49v-684h-49c-8 0 -14.167 -2.5 -18.5 -7.5s-6.5 -10.5 -6.5 -16.5c0 -16.667 8.33301 -25 25 -25h73
c16 0 24 8.33301 24 25z" />
    <glyph glyph-name="asciicircum" unicode="^" horiz-adv-x="342" 
d="M288 771c-14 19.333 -31.3311 34.002 -51.998 44.002s-42.334 15 -65.001 15s-44.334 -5 -65.001 -15s-38 -24.667 -52 -44c-4 -4 -6 -8.66699 -6 -14c0 -6.66699 2.66699 -12.5 8 -17.5s11.333 -7.5 18 -7.5c8 0 14.333 3.33301 19 10
c9.33301 13.333 20.833 23.166 34.5 29.499s28.167 9.5 43.5 9.5c14.667 0 29 -3.33301 43 -10s25.667 -16.334 35 -29.001c4.66699 -6.66699 11 -10 19 -10c6.66699 0 12.5 2.5 17.5 7.5s7.5 10.5 7.5 16.5c0 5.33301 -1.66699 10.333 -5 15z" />
    <glyph glyph-name="underscore" unicode="_" 
d="M391 -98v49h-391v-49h391z" />
    <glyph glyph-name="a" unicode="a" 
d="M288 98c0 -14 -4.83301 -25.666 -14.5 -34.999s-21.167 -14 -34.5 -14h-98c-13.333 0 -24.833 4.66699 -34.5 14s-14.5 21 -14.5 35v293c0 13.333 4.83301 24.666 14.5 33.999s21.167 14 34.5 14h147v-341zM370 47.001c-10 3.33301 -18.167 9.83301 -24.5 19.5
s-9.5 20.167 -9.5 31.5v366c0 16 -8 24 -24 24h-171c-14 0 -26.833 -2.5 -38.5 -7.5s-22 -12 -31 -21s-16 -19.333 -21 -31s-7.5 -24.167 -7.5 -37.5v-293c0 -28 9.33301 -51.333 28 -70s42 -28 70 -28h98c29.333 0 53.666 11 72.999 33c7.33301 -8.66699 14 -15 20 -19
c8.66699 -7.33301 16.334 -12 23.001 -14c2 -0.666992 5 -1 9 -1c6.66699 0 12.167 2.5 16.5 7.5s6.5 10.833 6.5 17.5c0 11.333 -5.66699 19 -17 23z" />
    <glyph glyph-name="b" unicode="b" 
d="M98 439l146 -0.000976562c14 0 25.667 -4.66699 35 -14s14 -20.666 14 -33.999v-293c0 -13.333 -4.83301 -24.833 -14.5 -34.5s-21.167 -14.5 -34.5 -14.5h-146v390zM98 487.999l0.000976562 171c0 8 -2.5 14.167 -7.5 18.5s-10.833 6.5 -17.5 6.5
s-12.334 -2.33301 -17.001 -7s-7 -10.667 -7 -18v-635c0 -16 8 -24 24 -24h171c14 0 26.833 2.66699 38.5 8s22 12.5 31 21.5s16 19.333 21 31s7.5 24.167 7.5 37.5v293c0 13.333 -2.5 25.833 -7.5 37.5s-12 22 -21 31s-19.333 16 -31 21s-24.5 7.5 -38.5 7.5h-146z" />
    <glyph glyph-name="c" unicode="c" 
d="M317 0c8 0 14.168 2.50098 18.501 7.50098s6.5 10.5 6.5 16.5c0 16.667 -8.33301 25 -25 25h-171c-13.333 0 -24.666 4.66699 -33.999 14s-14 21 -14 35v293c0 13.333 4.66699 24.666 14 33.999s20.666 14 33.999 14h171c8 0 14.167 2.5 18.5 7.5s6.5 10.833 6.5 17.5
c0 16 -8.33301 24 -25 24h-171c-14 0 -26.833 -2.5 -38.5 -7.5s-21.834 -12 -30.501 -21s-15.5 -19.333 -20.5 -31s-7.5 -24.167 -7.5 -37.5v-293c0 -28 9.16699 -51.333 27.5 -70s41.5 -28 69.5 -28h171z" />
    <glyph glyph-name="d" unicode="d" 
d="M293 439v-389.999h-146c-14 0 -25.667 4.66699 -35 14s-14 21 -14 35v293c0 13.333 4.66699 24.666 14 33.999s21 14 35 14h146zM293 488.001h-145.999c-28 0 -51.333 -9.16699 -70 -27.5s-28 -41.5 -28 -69.5v-293c0 -13.333 2.5 -25.833 7.5 -37.5s12 -22 21 -31
s19.333 -16.167 31 -21.5s24.5 -8 38.5 -8h170c16.667 0 25 8 25 24v635c0 8 -2.5 14.167 -7.5 18.5s-10.833 6.5 -17.5 6.5s-12.334 -2.33301 -17.001 -7s-7 -10.667 -7 -18v-171z" />
    <glyph glyph-name="e" unicode="e" 
d="M98 268l0.000976562 122c0 14 4.66699 25.667 14 35s20.666 14 33.999 14h98c14 0 25.667 -4.66699 35 -14s14 -21 14 -35v-122h-195zM98.001 220h219c16.667 0 25 8 25 24v146c0 28 -9.33301 51.333 -28 70s-42 28 -70 28h-98c-14 0 -26.833 -2.66699 -38.5 -8
s-21.834 -12.5 -30.501 -21.5s-15.5 -19.333 -20.5 -31s-7.5 -24.167 -7.5 -37.5v-292c0 -28 9.16699 -51.333 27.5 -70s41.5 -28 69.5 -28h171c8 0 14 2.5 18 7.5s6 10.5 6 16.5c0 16.667 -8 25 -24 25h-171c-13.333 0 -24.666 4.66699 -33.999 14s-14 21 -14 35v122z" />
    <glyph glyph-name="f" unicode="f" horiz-adv-x="293" 
d="M146 488l-0.000976562 97.999c0 13.333 4.83301 24.833 14.5 34.5s21.167 14.5 34.5 14.5h24c8 0 14.167 2.33301 18.5 7s6.5 10.334 6.5 17.001c0 16.667 -8.33301 25 -25 25h-24c-14 0 -26.833 -2.66699 -38.5 -8s-22 -12.5 -31 -21.5s-16 -19.333 -21 -31
s-7.5 -24.167 -7.5 -37.5v-98h-24c-7.33301 0 -13.166 -2.33301 -17.499 -7s-6.5 -10.334 -6.5 -17.001s2.16699 -12.5 6.5 -17.5s10.166 -7.5 17.499 -7.5h24v-415c0 -7.33301 2.33301 -13.166 7 -17.499s10.334 -6.5 17.001 -6.5c16.667 0 25 8 25 24v415h73
c8 0 14.167 2.5 18.5 7.5s6.5 10.833 6.5 17.5c0 16 -8.33301 24 -25 24h-73z" />
    <glyph glyph-name="g" unicode="g" 
d="M293 49l-146 0.000976562c-14 0 -25.667 4.83301 -35 14.5s-14 21.167 -14 34.5v294c0 13.333 4.83301 24.666 14.5 33.999s21.167 14 34.5 14h146v-391zM293 0.000976562l-0.00195312 -97c0 -14 -4.66699 -25.667 -14 -35s-20.666 -14 -33.999 -14h-172
c-7.33301 0 -13.166 -2.5 -17.499 -7.5s-6.5 -10.5 -6.5 -16.5c0 -16.667 8 -25 24 -25h172c13.333 0 25.833 2.66699 37.5 8s22 12.5 31 21.5s16 19.333 21 31s7.5 24.167 7.5 37.5v561c0 16.667 -8.33301 25 -25 25h-170c-14 0 -26.833 -2.5 -38.5 -7.5s-22 -12 -31 -21
s-16 -19.333 -21 -31s-7.5 -24.167 -7.5 -37.5v-294c0 -13.333 2.5 -25.833 7.5 -37.5s12 -22 21 -31s19.333 -16.167 31 -21.5s24.5 -8 38.5 -8h146z" />
    <glyph glyph-name="h" unicode="h" 
d="M98 488v170.997c0 8 -2.5 14.167 -7.5 18.5s-10.833 6.5 -17.5 6.5s-12.334 -2.33301 -17.001 -7s-7 -10.667 -7 -18v-635c0 -7.33301 2.33301 -13.166 7 -17.499s10.334 -6.5 17.001 -6.5c16.667 0 25 8 25 24v415h146c14 0 25.667 -4.66699 35 -14
s14 -20.666 14 -33.999v-367c0 -7.33301 2.5 -13.166 7.5 -17.499s10.5 -6.5 16.5 -6.5c16.667 0 25 8 25 24v367c0 13.333 -2.5 25.833 -7.5 37.5s-12 22 -21 31s-19.333 16 -31 21s-24.5 7.5 -38.5 7.5h-146z" />
    <glyph glyph-name="i" unicode="i" horiz-adv-x="146" 
d="M73 684c-7.33301 0 -13.166 -2.5 -17.499 -7.5s-6.5 -10.833 -6.5 -17.5s2.16699 -12.334 6.5 -17.001s10.166 -7 17.499 -7c8 0 14.167 2.33301 18.5 7s6.5 10.334 6.5 17.001s-2.33301 12.5 -7 17.5s-10.667 7.5 -18 7.5zM98 464c0 8 -2.50098 14 -7.50098 18
s-10.5 6 -16.5 6c-6.66699 0 -12.5 -2 -17.5 -6s-7.5 -10 -7.5 -18v-440c0 -7.33301 2.5 -13.166 7.5 -17.499s10.833 -6.5 17.5 -6.5s12.334 2.16699 17.001 6.5s7 10.166 7 17.499v440z" />
    <glyph glyph-name="j" unicode="j" horiz-adv-x="146" 
d="M73 635c17.333 0 26 8.33301 26 25c0 6.66699 -2.33301 12.5 -7 17.5s-11 7.5 -19 7.5s-14.167 -2.5 -18.5 -7.5s-6.5 -10.833 -6.5 -17.5c0 -16.667 8.33301 -25 25 -25zM98 -119l0.000976562 577.999c0 8 -2.5 14 -7.5 18s-10.833 6 -17.5 6
s-12.334 -2.16699 -17.001 -6.5s-7 -10.166 -7 -17.499v-578c0 -14 -4.83301 -26 -14.5 -36s-21.5 -15 -35.5 -15h-26c-8 0 -14 -2.5 -18 -7.5s-6 -10.5 -6 -16.5c0 -16.667 8 -25 24 -25h26c28 0 51.5 9.66699 70.5 29s28.5 43 28.5 71z" />
    <glyph glyph-name="k" unicode="k" 
d="M185 280l150.998 166.996c4.66699 4.66699 7 10.334 7 17.001s-2.5 12.5 -7.5 17.5s-10.833 7.5 -17.5 7.5c-6 0 -12 -3 -18 -9l-202 -224v403c0 8 -2.5 14.167 -7.5 18.5s-10.5 6.5 -16.5 6.5c-16.667 0 -25 -8.33301 -25 -25v-635c0 -7.33301 2.5 -13.166 7.5 -17.499
s10.833 -6.5 17.5 -6.5s12.334 2 17.001 6s7 10 7 18v159l53 59l146 -231c4.66699 -7.33301 11.334 -11 20.001 -11c6.66699 0 12.5 2.33301 17.5 7s7.5 10.334 7.5 17.001c0 4.66699 -1.33301 9.33398 -4 14.001z" />
    <glyph glyph-name="l" unicode="l" horiz-adv-x="244" 
d="M171 0c8 0 14.167 2.5 18.5 7.5s6.5 10.5 6.5 16.5c0 16.667 -8.33301 25 -25 25h-25c-13.333 0 -24.666 4.66699 -33.999 14s-14 21 -14 35v561c0 8 -2.5 14.167 -7.5 18.5s-10.833 6.5 -17.5 6.5s-12.334 -2.33301 -17.001 -7s-7 -10.667 -7 -18v-561
c0 -14 2.5 -26.833 7.5 -38.5s12 -22 21 -31s19.333 -16 31 -21s24.167 -7.5 37.5 -7.5h25z" />
    <glyph glyph-name="m" unicode="m" horiz-adv-x="537" 
d="M244 439l-0.000976562 -415.004c0 -7.33301 2.5 -13.166 7.5 -17.499s10.833 -6.5 17.5 -6.5s12.334 2 17.001 6s7 10 7 18v415h98c13.333 0 24.666 -4.66699 33.999 -14s14 -20.666 14 -33.999v-367c0 -7.33301 2.5 -13.166 7.5 -17.499s10.833 -6.5 17.5 -6.5
c16 0 24 8 24 24v367c0 13.333 -2.5 25.833 -7.5 37.5s-12 22 -21 31s-19.333 16 -31 21s-24.167 7.5 -37.5 7.5h-318c-16 0 -24 -8 -24 -24v-440c0 -7.33301 2.33301 -13.166 7 -17.499s10.334 -6.5 17.001 -6.5c16.667 0 25 8 25 24v415h146z" />
    <glyph glyph-name="n" unicode="n" 
d="M342 24l-0.000976562 366.997c0 13.333 -2.5 25.833 -7.5 37.5s-12 22 -21 31s-19.333 16 -31 21s-24.5 7.5 -38.5 7.5h-171c-16 0 -24 -8 -24 -24v-440c0 -7.33301 2.33301 -13.166 7 -17.499s10.334 -6.5 17.001 -6.5c16.667 0 25 8 25 24v415h146
c14 0 25.667 -4.66699 35 -14s14 -20.666 14 -33.999v-367c0 -7.33301 2.5 -13.166 7.5 -17.499s10.5 -6.5 16.5 -6.5c16.667 0 25 8 25 24z" />
    <glyph glyph-name="o" unicode="o" 
d="M342 98l0.000976562 293c0 13.333 -2.5 25.833 -7.5 37.5s-12 22 -21 31s-19.333 16 -31 21s-24.5 7.5 -38.5 7.5h-98c-14 0 -26.833 -2.5 -38.5 -7.5s-21.834 -12 -30.501 -21s-15.5 -19.333 -20.5 -31s-7.5 -24.167 -7.5 -37.5v-293c0 -28 9.16699 -51.333 27.5 -70
s41.5 -28 69.5 -28h98c28 -0 51.333 9.33301 70 28s28 42 28 70zM293.001 98c0 -14 -4.66699 -25.667 -14 -35s-21 -14 -35 -14h-98c-13.333 0 -24.666 4.66699 -33.999 14s-14 21 -14 35v293c0 13.333 4.66699 24.666 14 33.999s20.666 14 33.999 14h98
c14 0 25.667 -4.66699 35 -14s14 -20.666 14 -33.999v-293z" />
    <glyph glyph-name="p" unicode="p" 
d="M98 48v390.999h147c13.333 0 24.666 -4.66699 33.999 -14s14 -20.666 14 -33.999v-293c0 -13.333 -4.66699 -25 -14 -35s-20.666 -15 -33.999 -15h-147zM98 -0.000976562h146.999c13.333 0 25.833 2.5 37.5 7.5s22 12 31 21s16 19.333 21 31s7.5 24.5 7.5 38.5v293
c0 13.333 -2.5 25.833 -7.5 37.5s-12 22 -21 31s-19.333 16 -31 21s-24.167 7.5 -37.5 7.5h-172c-16 0 -24 -8 -24 -24v-635c0 -8 2.33301 -14 7 -18s10.334 -6 17.001 -6c16.667 0 25 8 25 24v171z" />
    <glyph glyph-name="q" unicode="q" 
d="M293 48l-146 0.000976562c-14 0 -25.667 4.83301 -35 14.5s-14 21.5 -14 35.5v293c0 13.333 4.83301 24.666 14.5 33.999s21.167 14 34.5 14h146v-391zM293 0.000976562v-171c0 -8 2.5 -14 7.5 -18s10.5 -6 16.5 -6c16.667 0 25 8 25 24v635c0 16 -8.33301 24 -25 24
h-170c-14 0 -26.833 -2.5 -38.5 -7.5s-22 -12 -31 -21s-16 -19.333 -21 -31s-7.5 -24.167 -7.5 -37.5v-293c0 -28 9.33301 -51.333 28 -70s42 -28 70 -28h146z" />
    <glyph glyph-name="r" unicode="r" horiz-adv-x="342" 
d="M291 421c-6.66699 20 -19.001 36.166 -37.001 48.499s-37.667 18.5 -59 18.5h-122c-16 0 -24 -8 -24 -24v-440c0 -7.33301 2.33301 -13.166 7 -17.499s10.334 -6.5 17.001 -6.5c16.667 0 25 8 25 24v415h97c10.667 0 20.667 -3 30 -9c10 -6.66699 16.333 -15 19 -25
c4 -10.667 11.667 -16 23 -16c6.66699 0 12.5 2.16699 17.5 6.5s7.5 9.83301 7.5 16.5c0 4 -0.333008 7 -1 9z" />
    <glyph glyph-name="s" unicode="s" 
d="M341 430c-14 18.667 -31.5 33.001 -52.5 43.001s-43.167 15 -66.5 15h-67c-31.333 0 -57 -10.667 -77 -32c-18.667 -20.667 -28 -45.334 -28 -74.001c0 -14.667 3.16699 -29 9.5 -43s15.833 -26.333 28.5 -37l188 -154c14 -11.333 21 -25.666 21 -42.999
c0 -14.667 -5.16699 -27.667 -15.5 -39s-23.833 -17 -40.5 -17h-67c-33.333 0 -60 13 -80 39c-4 6.66699 -10.333 10 -19 10c-7.33301 0 -13.333 -2.33301 -18 -7s-7 -10.334 -7 -17.001c0 -4.66699 1.66699 -9.66699 5 -15c14 -18.667 31.333 -33.167 52 -43.5
s43 -15.5 67 -15.5h67c30.667 0 56 11 76 33c19.333 20.667 29 45 29 73c0 14.667 -3.16699 29.167 -9.5 43.5s-15.833 26.833 -28.5 37.5l-188 153c-14 10.667 -21 25 -21 43c0 15.333 5.16699 28.5 15.5 39.5s23.833 16.5 40.5 16.5h67c33.333 0 60 -13 80 -39
c4.66699 -6.66699 11 -10 19 -10c7.33301 0 13.333 2.33301 18 7s7 10.334 7 17.001c0 5.33301 -1.66699 10.666 -5 15.999z" />
    <glyph glyph-name="t" unicode="t" horiz-adv-x="293" 
d="M146 488l0.000976562 171c0 8 -2.33301 14.167 -7 18.5s-10.334 6.5 -17.001 6.5s-12.334 -2.33301 -17.001 -7s-7 -10.667 -7 -18v-171h-24c-7.33301 0 -13.166 -2.33301 -17.499 -7s-6.5 -10.334 -6.5 -17.001s2.16699 -12.5 6.5 -17.5s10.166 -7.5 17.499 -7.5h24
v-415c0 -7.33301 2.33301 -13.166 7 -17.499s10.334 -6.5 17.001 -6.5c16 0 24 8 24 24v415h74c8 0 14.167 2.5 18.5 7.5s6.5 10.833 6.5 17.5c0 16 -8.33301 24 -25 24h-74z" />
    <glyph glyph-name="u" unicode="u" 
d="M342 24l0.000976562 439.998c0 8 -2.5 14 -7.5 18s-10.833 6 -17.5 6s-12.334 -2.16699 -17.001 -6.5s-7 -10.166 -7 -17.499v-415h-147c-13.333 0 -24.666 4.66699 -33.999 14s-14 21 -14 35v366c0 8 -2.5 14 -7.5 18s-10.833 6 -17.5 6s-12.334 -2.16699 -17.001 -6.5
s-7 -10.166 -7 -17.499v-366c0 -28 9.16699 -51.333 27.5 -70s41.5 -28 69.5 -28h171c16.667 0 25 8 25 24z" />
    <glyph glyph-name="v" unicode="v" 
d="M341 458c0.666992 0.666992 1.00098 3 1.00098 7c0 7.33301 -2.5 13 -7.5 17s-10.833 6 -17.5 6c-12.667 0 -20.334 -6 -23.001 -18l-99 -352l-98 352c-4 12 -11.667 18 -23 18c-6.66699 0 -12.5 -2.16699 -17.5 -6.5s-7.5 -9.83301 -7.5 -16.5
c0 -4 0.333008 -6.33301 1 -7l122 -437c2 -7.33301 5.16699 -12.833 9.5 -16.5s8.83301 -5.5 13.5 -5.5c12 0 20 7.33301 24 22z" />
    <glyph glyph-name="w" unicode="w" horiz-adv-x="586" 
d="M536 458c0.666992 0.666992 1 2.66699 1 6c0 7.33301 -2.66699 13.166 -8 17.499s-11.333 6.5 -18 6.5c-12.667 0 -20.334 -6.33301 -23.001 -19l-79 -353l-94 262c-5.33301 13.333 -13 20 -23 20c-9.33301 0 -16.666 -6.66699 -21.999 -20l-94 -262l-79 353
c-2.66699 12.667 -10.334 19 -23.001 19c-7.33301 0 -13.5 -2.16699 -18.5 -6.5s-7.5 -9.83301 -7.5 -16.5c0 -3.33301 0.333008 -5.66602 1 -6.99902l97 -435c1.33301 -7.33301 4.33301 -13 9 -17s9.33398 -6 14.001 -6c12 0 20 6.66699 24 20l99 277l100 -277
c5.33301 -13.333 13 -20 23 -20c12 0 19.667 7.66699 23 23z" />
    <glyph glyph-name="x" unicode="x" 
d="M223 245l115.999 207.001c2 4 3 8 3 12c0 7.33301 -2.5 13.166 -7.5 17.499s-10.833 6.5 -17.5 6.5c-4 0 -8 -1 -12 -3s-7 -5 -9 -9l-101 -182l-100 183c-5.33301 8 -12.333 12 -21 12c-6.66699 0 -12.667 -2.16699 -18 -6.5s-8 -9.83301 -8 -16.5
c0 -5.33301 1.33301 -9.66602 4 -12.999l115 -209l-115 -208c-2.66699 -3.33301 -4 -7.33301 -4 -12c0 -6.66699 2.66699 -12.334 8 -17.001s11.333 -7 18 -7c9.33301 -0 16.333 4.33301 21 13l100 181l101 -181c4.66699 -8.66699 11.334 -13 20.001 -13
c7.33301 -0 13.5 2.33301 18.5 7s7.5 10 7.5 16c0 4.66699 -1 9 -3 13z" />
    <glyph glyph-name="y" unicode="y" 
d="M172 20l-34.999 -130c-3.33301 -11.333 -9.33301 -20.166 -18 -26.499s-18.667 -9.5 -30 -9.5h-17c-7.33301 0 -13.166 -2.5 -17.499 -7.5s-6.5 -10.833 -6.5 -17.5s2.16699 -12.334 6.5 -17.001s10.166 -7 17.499 -7h17c22 0 42 6.83301 60 20.5
s29.667 30.834 35 51.501l156 581c0.666992 2 1 4 1 6c0 7.33301 -2.5 13.166 -7.5 17.499s-10.833 6.5 -17.5 6.5c-12.667 0 -20.334 -6 -23.001 -18l-97 -358l-100 359c-3.33301 11.333 -11 17 -23 17c-6.66699 0 -12.5 -2.16699 -17.5 -6.5s-7.5 -9.83301 -7.5 -16.5
c0 -4 0.333008 -6.66699 1 -8z" />
    <glyph glyph-name="z" unicode="z" 
d="M339 452c3.33301 5.33301 5 11 5 17c0 12.667 -9 19 -27 19h-244c-7.33301 0 -13.166 -2.33301 -17.499 -7s-6.5 -10.334 -6.5 -17.001s2.16699 -12.5 6.5 -17.5s10.166 -7.5 17.499 -7.5h203l-224 -403c-3.33301 -5.33301 -5 -10.666 -5 -15.999
c0 -13.333 8.66699 -20 26 -20h244c8 0 14.167 2.5 18.5 7.5s6.5 10.5 6.5 16.5c0 16.667 -8.33301 25 -25 25h-202z" />
    <glyph glyph-name="braceleft" unicode="{" horiz-adv-x="225" 
d="M74 317c6.66699 0 13.334 -2.50195 20.001 -7.50195s10 -10.5 10 -16.5v-269c0 -20 7.16699 -37 21.5 -51s31.5 -21 51.5 -21c7.33301 0 13.166 2.33301 17.499 7s6.5 10.334 6.5 17.001c0 16 -8 24 -24 24c-6.66699 0 -12.5 2.5 -17.5 7.5s-7.5 10.833 -7.5 17.5v268
c0 13.333 -3 24 -9 32c-3.33301 2.66699 -6.5 5.33398 -9.5 8.00098s-6.16699 5.66699 -9.5 9l7.5 7.5c3 3 6.83301 6.16699 11.5 9.5c6 8 9 18.667 9 32v268c0 6.66699 2.5 12.5 7.5 17.5s10.833 7.5 17.5 7.5c7.33301 0 13.166 2.33301 17.499 7s6.5 10.334 6.5 17.001
c0 16 -8 24 -24 24c-20.667 0 -38 -7.16699 -52 -21.5s-21 -31.5 -21 -51.5v-268c0 -6.66699 -3.16699 -12.5 -9.5 -17.5s-13.166 -7.5 -20.499 -7.5s-13.166 -2.33301 -17.499 -7s-6.5 -10.334 -6.5 -17.001s2.16699 -12.5 6.5 -17.5s10.166 -7.5 17.499 -7.5z" />
    <glyph glyph-name="bar" unicode="|" horiz-adv-x="293" 
d="M244 24v634.999c0 8 -2.5 14.167 -7.5 18.5s-10.833 6.5 -17.5 6.5s-12.334 -2.33301 -17.001 -7s-7 -10.667 -7 -18v-635c0 -7.33301 2.33301 -13.166 7 -17.499s10.334 -6.5 17.001 -6.5c16.667 0 25 8 25 24zM98 23.999v634.999c0 8 -2.5 14.167 -7.5 18.5
s-10.833 6.5 -17.5 6.5s-12.334 -2.33301 -17.001 -7s-7 -10.667 -7 -18v-635c0 -7.33301 2.33301 -13.166 7 -17.499s10.334 -6.5 17.001 -6.5c16.667 0 25 8 25 24z" />
    <glyph glyph-name="braceright" unicode="}" horiz-adv-x="225" 
d="M150 317c8 0 14.166 2.50586 18.499 7.50586s6.5 10.833 6.5 17.5c0 16 -8.33301 24 -25 24c-6.66699 0 -13.167 2.5 -19.5 7.5s-9.5 10.833 -9.5 17.5v268c0 20 -7.16699 37.167 -21.5 51.5s-31.5 21.5 -51.5 21.5c-8 0 -14.167 -2.33301 -18.5 -7
s-6.5 -10.334 -6.5 -17.001s2.33301 -12.334 7 -17.001s10.667 -7 18 -7c6.66699 0 12.334 -2.5 17.001 -7.5s7 -10.833 7 -17.5v-268c0 -14.667 3.33301 -25.334 10 -32.001c3.33301 -3.33301 6.5 -6.33301 9.5 -9s6.16699 -5.33398 9.5 -8.00098
c-3.33301 -4 -9.66602 -9.66699 -18.999 -17c-6.66699 -7.33301 -10 -18 -10 -32v-268c0 -6.66699 -2.33301 -12.5 -7 -17.5s-10.334 -7.5 -17.001 -7.5c-8 0 -14.167 -2.33301 -18.5 -7s-6.5 -10.334 -6.5 -17.001s2.33301 -12.334 7 -17.001s10.667 -7 18 -7
c20 0 37.167 7 51.5 21s21.5 31 21.5 51v269c0 6 3.16699 11.5 9.5 16.5s12.833 7.5 19.5 7.5z" />
    <glyph glyph-name="asciitilde" unicode="~" horiz-adv-x="439" 
d="M381 225c7.33301 5.33301 10.9961 11.667 10.9961 19c0 6 -2.5 11.667 -7.5 17s-10.833 8 -17.5 8c-4.66699 0 -9.66699 -1.66699 -15 -5c-17.333 -13.333 -37 -20 -59 -20c-20 0 -39.333 6.66699 -58 20c-26.667 19.333 -56 29 -88 29
c-31.333 0 -60.666 -9.66699 -87.999 -29c-6.66699 -4.66699 -10 -11 -10 -19c0 -6.66699 2.33301 -12.667 7 -18s10.334 -8 17.001 -8c6 0 11 2 15 6c16.667 12.667 36.334 19 59.001 19s42.334 -6.33301 59.001 -19c26 -20 55 -30 87 -30c32.667 0 62 10 88 30z" />
    <glyph glyph-name="quotedblbase" horiz-adv-x="244" 
d="M97 13l-25.001 -96.001c-3.33301 -13.333 -11 -20 -23 -20c-6.66699 0 -12.667 2.33301 -18 7s-8 10.334 -8 17.001c0 2.66699 0.333008 5 1 7l25 97c2.66699 12.667 10.334 19 23.001 19c7.33301 0 13.5 -2.16699 18.5 -6.5s7.5 -9.83301 7.5 -16.5
c0 -3.33301 -0.333008 -6 -1 -8zM193.999 12.999l-24 -96.001c-4 -13.333 -12 -20 -24 -20c-6.66699 0 -12.5 2.33301 -17.5 7s-7.5 10.334 -7.5 17.001c0 2.66699 0.333008 5 1 7l24 97c4 12.667 12 19 24 19c6.66699 0 12.5 -2.16699 17.5 -6.5s7.5 -9.83301 7.5 -16.5
c0 -3.33301 -0.333008 -6 -1 -8z" />
    <glyph glyph-name="ellipsis" unicode="&#x85;" horiz-adv-x="439" 
d="M98 24c0 -6.66699 2.33301 -12.334 7 -17.001s10.334 -7 17.001 -7s12.334 2.33301 17.001 7s7 10.334 7 17.001c0 7.33301 -2.33301 13.333 -7 18s-10.334 7 -17.001 7s-12.334 -2.33301 -17.001 -7s-7 -10.667 -7 -18zM195 24c0 -6.66699 2.33301 -12.334 7 -17.001
s10.667 -7 18 -7c6.66699 0 12.334 2.33301 17.001 7s7 10.334 7 17.001c0 7.33301 -2.33301 13.333 -7 18s-10.334 7 -17.001 7c-16.667 0 -25 -8.33301 -25 -25zM293 24c0 -6.66699 2.33301 -12.334 7 -17.001s10.334 -7 17.001 -7c7.33301 0 13.333 2.33301 18 7
s7 10.334 7 17.001c0 16.667 -8.33301 25 -25 25c-6.66699 0 -12.334 -2.33301 -17.001 -7s-7 -10.667 -7 -18z" />
    <glyph glyph-name="circumflex" horiz-adv-x="586" 
d="M537 244c0 28 -9.33301 51.334 -28 70.001s-42 28 -70 28c-7.33301 0 -13.166 -2.5 -17.499 -7.5s-6.5 -10.833 -6.5 -17.5s2.16699 -12.334 6.5 -17.001s10.166 -7 17.499 -7c14 0 25.667 -4.66699 35 -14s14 -21 14 -35c0 -13.333 -4.66699 -24.833 -14 -34.5
s-21 -14.5 -35 -14.5c-9.33301 0 -17.333 2.33301 -24 7l-220 127c-15.333 8.66699 -31.666 13 -48.999 13c-28 0 -51.167 -9.33301 -69.5 -28s-27.5 -42 -27.5 -70s9.16699 -51.333 27.5 -70s41.5 -28 69.5 -28c8 0 14.167 2.5 18.5 7.5s6.5 10.833 6.5 17.5
c0 16 -8.33301 24 -25 24c-13.333 0 -24.666 4.83301 -33.999 14.5s-14 21.167 -14 34.5c0 14 4.66699 25.667 14 35s20.666 14 33.999 14c9.33301 0 17.666 -2 24.999 -6l220 -127c16.667 -9.33301 32.667 -14 48 -14c28 0 51.333 9.33301 70 28s28 42 28 70z" />
    <glyph glyph-name="perthousand" horiz-adv-x="1196" 
d="M781 146c0 47.333 -15.333 84.334 -46 111.001c-27.333 24 -60.666 36 -99.999 36c-40.667 0 -74.334 -12.333 -101.001 -37c-30.667 -26.667 -46 -63.334 -46 -110.001s15.333 -83.334 46 -110.001c28 -24 61.667 -36 101 -36c40 0 73.667 12 101 36
c30 26.667 45 63.334 45 110.001zM631 646.001c2.66699 3.33301 4 7.99902 4 13.999c0 6.66699 -2.5 12.334 -7.5 17.001s-10.833 7 -17.5 7c-9.33301 0 -16.333 -4 -21 -12l-390 -635c-2.66699 -3.33301 -4 -7.66602 -4 -12.999c0 -6.66699 2.5 -12.334 7.5 -17.001
s11.167 -7 18.5 -7c8 0 14.667 4 20 12zM341 537c0 46.667 -15.332 83.333 -45.999 110c-26.667 24.667 -60 37 -100 37c-40.667 0 -74.334 -12.333 -101.001 -37c-30 -27.333 -45 -64 -45 -110c0 -46.667 15.333 -83.334 46 -110.001c26.667 -24 60 -36 100 -36
s73.667 12 101 36c30 26.667 45 63.334 45 110.001zM732.001 145.999c0 -30 -10 -54.333 -30 -73c-19.333 -16 -41.666 -24 -66.999 -24c-26.667 0 -49.334 8 -68.001 24c-20 18 -30 42.333 -30 73c0 31.333 10.333 56 31 74c18 16 40.333 24 67 24
c26 0 48.333 -8.33301 67 -25c20 -18 30 -42.333 30 -73zM292.001 536.999c0 -31.333 -10 -56 -30 -74c-18 -16 -40.333 -24 -67 -24c-27.333 0 -49.666 8.33301 -66.999 25c-20 18 -30 42.333 -30 73s10 55 30 73c18.667 16.667 41 25 67 25
c27.333 0 49.666 -8.33301 66.999 -25c20 -18 30 -42.333 30 -73zM1147 145.999c0 46.667 -14.999 83.668 -44.999 111.001c-27.333 24 -61 36 -101 36c-40.667 0 -74.334 -12.333 -101.001 -37c-30.667 -26.667 -46 -63.334 -46 -110.001s15.333 -83.334 46 -110.001
c28 -24 61.667 -36 101 -36c40 0 73.667 12 101 36c30 26.667 45 63.334 45 110.001zM1099 146c0 -30 -10.332 -54.333 -30.999 -73c-18 -16 -40.333 -24 -67 -24s-49 8 -67 24c-20.667 18 -31 42.333 -31 73c0 31.333 10.333 56 31 74c18 16 40.333 24 67 24
c27.333 0 49.666 -8.33301 66.999 -25c20.667 -18 31 -42.333 31 -73z" />
    <glyph glyph-name="bullet" horiz-adv-x="342" 
d="M173 273l-105.002 105c-5.33301 5.33301 -10.666 8 -15.999 8c-6.66699 0 -12.5 -2.5 -17.5 -7.5s-7.5 -10.833 -7.5 -17.5s2.33301 -12.334 7 -17.001l105 -105l-105 -105c-4.66699 -4.66699 -7 -10 -7 -16c0 -7.33301 2.5 -13.333 7.5 -18s10.833 -7 17.5 -7
c6 0 11.333 2.33301 16 7l105 105l105 -105c4.66699 -4.66699 10.334 -7 17.001 -7s12.5 2.33301 17.5 7s7.5 10.667 7.5 18c0 6 -2.33301 11.333 -7 16l-105 105l105 105c4.66699 4.66699 7 10.334 7 17.001s-2.5 12.5 -7.5 17.5s-10.833 7.5 -17.5 7.5
c-6 0 -11.667 -2.66699 -17 -8z" />
    <glyph glyph-name="section" unicode="&#xa7;" 
d="M232 187l-105 125c-19.333 23.333 -29 49.333 -29 78c0 22 5.5 42.5 16.5 61.5s26.5 34.167 46.5 45.5l105 -125c18.667 -22.667 28 -49 28 -79c0 -22 -5.33301 -42.5 -16 -61.5s-26 -33.833 -46 -44.5zM128 535c-24.667 -16 -44 -36.833 -58 -62.5
s-21 -52.834 -21 -81.501c0 -20 3.66699 -38.667 11 -56s17.333 -35 30 -53l168 -202c7.33301 -10 11 -20.667 11 -32c0 -12.667 -4.5 -23.834 -13.5 -33.501s-20.5 -14.5 -34.5 -14.5h-50c-10 0 -19.333 3 -28 9c-8 7.33301 -14 15.666 -18 24.999
c-2.66699 10.667 -9.66699 16 -21 16c-7.33301 0 -13.5 -2.16699 -18.5 -6.5s-7.5 -10.166 -7.5 -17.499c0 -3.33301 0.333008 -6 1 -8c6.66699 -20.667 18.334 -37 35.001 -49s35.667 -18 57 -18h50c14 0 27 2.66699 39 8s22.167 12.333 30.5 21s15 18.834 20 30.501
s7.5 24.167 7.5 37.5c0 22.667 -7.66699 43.667 -23 63l-31 37c24.667 16.667 44 37.834 58 63.501s21 52.834 21 81.501c0 20 -3.33301 39.333 -10 58s-16.667 36 -30 52l-169 201c-7.33301 8 -11 18.333 -11 31s4.5 24 13.5 34s20.5 15 34.5 15h50
c10.667 0 20.167 -3 28.5 -9s14.166 -14.333 17.499 -25c2.66699 -7.33301 6.66699 -12.333 12 -15c4 -1.33301 7.66699 -2 11 -2c6 0 11.5 2.16699 16.5 6.5s7.5 9.83301 7.5 16.5c0 4 -0.333008 7.33301 -1 10c-6.66699 19.333 -18.5 35.166 -35.5 47.499
s-35.833 18.5 -56.5 18.5h-50c-14 0 -27 -2.66699 -39 -8s-22.167 -12.333 -30.5 -21s-15 -19 -20 -31s-7.5 -24.333 -7.5 -37c0 -10.667 1.83301 -21.5 5.5 -32.5s9.5 -21.167 17.5 -30.5z" />
    <glyph glyph-name="dieresis" unicode="&#xa8;" 
d="M98 341l122 -0.00195312c8 0 14.167 2.5 18.5 7.5s6.5 10.833 6.5 17.5s-2.16699 12.334 -6.5 17.001s-10.5 7 -18.5 7h-122v245h220c8 0 14 2.33301 18 7s6 10.334 6 17.001c0 16.667 -8 25 -24 25h-244c-16.667 0 -25 -8.33301 -25 -25v-635c0 -16 8.33301 -24 25 -24
h244c8 0 14 2.5 18 7.5s6 10.5 6 16.5c0 16.667 -8 25 -24 25h-220v292zM98 804.998c0 -7.33301 2.5 -13.5 7.5 -18.5s11.167 -7.5 18.5 -7.5c6.66699 0 12.5 2.5 17.5 7.5s7.5 11.167 7.5 18.5c0 6.66699 -2.5 12.5 -7.5 17.5s-10.833 7.5 -17.5 7.5
c-7.33301 0 -13.5 -2.5 -18.5 -7.5s-7.5 -10.833 -7.5 -17.5zM242 804.998c0 -7.33301 2.5 -13.5 7.5 -18.5s11.167 -7.5 18.5 -7.5c6.66699 0 12.5 2.5 17.5 7.5s7.5 11.167 7.5 18.5c0 6.66699 -2.5 12.5 -7.5 17.5s-10.833 7.5 -17.5 7.5
c-7.33301 0 -13.5 -2.5 -18.5 -7.5s-7.5 -10.833 -7.5 -17.5z" />
    <glyph glyph-name="guillemotleft" unicode="&#xab;" horiz-adv-x="415" 
d="M364 84l-119 160l119 159c4 4.66699 6 9.66699 6 15c0 6.66699 -2.66699 12.5 -8 17.5s-11.333 7.5 -18 7.5c-8 0 -14.333 -3.33301 -19 -10l-130 -174c-3.33301 -5.33301 -5 -10.333 -5 -15s1.66699 -9.66699 5 -15l130 -174c4.66699 -6.66699 11 -10 19 -10
c6.66699 0 12.667 2.5 18 7.5s8 10.5 8 16.5s-2 11 -6 15zM228 84l-120 160l120 159c3.33301 5.33301 5 10.333 5 15c0 6.66699 -2.66699 12.5 -8 17.5s-11 7.5 -17 7.5c-8.66699 0 -15.334 -3.33301 -20.001 -10l-130 -174c-3.33301 -5.33301 -5 -10.333 -5 -15
s1.66699 -9.66699 5 -15l130 -174c4.66699 -6.66699 11.334 -10 20.001 -10c6 0 11.667 2.5 17 7.5s8 10.5 8 16.5c0 5.33301 -1.66699 10.333 -5 15z" />
    <glyph glyph-name="logicalnot" unicode="&#xac;" horiz-adv-x="393" 
d="M357 173v117.002c0 12 -5.66699 18 -17 18h-286c-6 0 -10.5 -1.83301 -13.5 -5.5s-4.5 -7.83398 -4.5 -12.501s1.5 -8.83398 4.5 -12.501s7.5 -5.5 13.5 -5.5h268v-99c0 -12 6 -18 18 -18c11.333 0 17 6 17 18z" />
    <glyph glyph-name="plusminus" unicode="&#xb1;" 
d="M317 24c8 0 14.167 2.50098 18.5 7.50098s6.5 10.833 6.5 17.5c0 16 -8.33301 24 -25 24h-244c-7.33301 0 -13.166 -2.33301 -17.499 -7s-6.5 -10.334 -6.5 -17.001s2.16699 -12.5 6.5 -17.5s10.166 -7.5 17.499 -7.5h244zM220 317.001l0.000976562 98
c0 8 -2.5 14 -7.5 18s-10.833 6 -17.5 6s-12.334 -2.16699 -17.001 -6.5s-7 -10.166 -7 -17.499v-98h-98c-7.33301 0 -13.166 -2.33301 -17.499 -7s-6.5 -10.334 -6.5 -17.001s2.16699 -12.334 6.5 -17.001s10.166 -7 17.499 -7h98v-98c0 -8 2.5 -14.167 7.5 -18.5
s10.5 -6.5 16.5 -6.5c16.667 0 25 8.33301 25 25v98h97c8 0 14.167 2.33301 18.5 7s6.5 10.334 6.5 17.001c0 16 -8.33301 24 -25 24h-97z" />
    <glyph glyph-name="paragraph" unicode="&#xb6;" horiz-adv-x="537" 
d="M223 287l-0.00292969 -458.002c0 -8 2.5 -14 7.5 -18s10.833 -6 17.5 -6s12.334 2 17.001 6s7 10 7 18v806h102v-806c0 -8 2.5 -14 7.5 -18s10.5 -6 16.5 -6c16.667 0 25 8 25 24v806h43c8 0 14 2.5 18 7.5s6 10.833 6 17.5s-2 12.334 -6 17.001s-10 7 -18 7h-218
c-65.333 0 -115.666 -19.667 -150.999 -59c-32 -35.333 -48 -82 -48 -140c0 -52 16.333 -96.667 49 -134s74.334 -58.666 125.001 -63.999z" />
    <glyph glyph-name="periodcentered" unicode="&#xb7;" horiz-adv-x="107" 
d="M36 268c0 -12 5.99902 -17.999 17.999 -17.999c4.66699 0 8.66699 1.66699 12 5s5 7.66602 5 12.999c0 4.66699 -1.66699 8.83398 -5 12.501s-7.33301 5.5 -12 5.5c-5.33301 0 -9.66602 -1.83301 -12.999 -5.5s-5 -7.83398 -5 -12.501z" />
    <glyph glyph-name="cedilla" unicode="&#xb8;" 
d="M98 269l0.000976562 122c0 13.333 4.66699 24.666 14 33.999s20.666 14 33.999 14h98c14 0 25.667 -4.66699 35 -14s14 -20.666 14 -33.999v-122h-195zM98.001 220h219c16.667 0 25 8 25 24v147c0 13.333 -2.5 25.833 -7.5 37.5s-12 22 -21 31s-19.333 16 -31 21
s-24.5 7.5 -38.5 7.5h-98c-14 0 -26.833 -2.5 -38.5 -7.5s-21.834 -12 -30.501 -21s-15.5 -19.333 -20.5 -31s-7.5 -24.167 -7.5 -37.5v-293c0 -28 9.16699 -51.333 27.5 -70s41.5 -28 69.5 -28h171c8 0 14.167 2.5 18.5 7.5s6.5 10.5 6.5 16.5c0 16.667 -8.33301 25 -25 25
h-171c-13.333 0 -24.666 4.66699 -33.999 14s-14 21 -14 35v122zM98.001 658c0 -7.33301 2.5 -13.333 7.5 -18s11.167 -7 18.5 -7c6.66699 0 12.5 2.33301 17.5 7s7.5 10.667 7.5 18s-2.5 13.5 -7.5 18.5s-10.833 7.5 -17.5 7.5c-7.33301 0 -13.5 -2.5 -18.5 -7.5
s-7.5 -11.167 -7.5 -18.5zM242.001 658c0 -7.33301 2.5 -13.333 7.5 -18s11.167 -7 18.5 -7c6.66699 0 12.5 2.33301 17.5 7s7.5 10.667 7.5 18s-2.5 13.5 -7.5 18.5s-10.833 7.5 -17.5 7.5c-7.33301 0 -13.5 -2.5 -18.5 -7.5s-7.5 -11.167 -7.5 -18.5z" />
    <glyph glyph-name="onesuperior" unicode="&#xb9;" horiz-adv-x="684" 
d="M634 439v147c0 30.667 -10 55 -30 73c-18 16 -40.333 24 -67 24c-26 0 -48.333 -8 -67 -24c-20.667 -18 -31 -42.333 -31 -73v-147c0 -30.667 10.333 -55 31 -73c18 -16 40.333 -24 67 -24s49 8 67 24c20 18 30 42.333 30 73zM391 24l0.00195312 635.001
c0 8 -2.5 14.167 -7.5 18.5s-10.833 6.5 -17.5 6.5s-12.334 -2.33301 -17.001 -7s-7 -10.667 -7 -18v-524l-247 534c-2 5.33301 -5 9.16602 -9 11.499s-8.33301 3.5 -13 3.5c-6.66699 0 -12.334 -2.33301 -17.001 -7s-7 -10.667 -7 -18v-635
c0 -7.33301 2.33301 -13.166 7 -17.499s10.334 -6.5 17.001 -6.5c16.667 0 25 8 25 24v524l246 -534c5.33301 -9.33301 12.666 -14 21.999 -14c6.66699 0 12.5 2.16699 17.5 6.5s7.5 10.166 7.5 17.499zM585.002 439.001c0 -16 -4.99902 -28.333 -14.999 -37
c-9.33301 -7.33301 -20.333 -11 -33 -11c-14 0 -25.333 4 -34 12c-10 8.66699 -15 20.667 -15 36v147c0 16 4.83301 28.167 14.5 36.5s21.167 12.5 34.5 12.5s24.666 -4.33301 33.999 -13s14 -20.667 14 -36v-147z" />
    <glyph glyph-name="guillemotright" unicode="&#xbb;" horiz-adv-x="415" 
d="M360 229c3.33301 5.33301 5 10.334 5 15.001s-1.66699 9.66699 -5 15l-131 174c-4.66699 6.66699 -11 10 -19 10c-6 0 -11.667 -2.5 -17 -7.5s-8 -10.833 -8 -17.5c0 -4.66699 1.66699 -9.66699 5 -15l120 -159l-120 -160c-3.33301 -4.66699 -5 -9.33398 -5 -14.001
c0 -6.66699 2.66699 -12.5 8 -17.5s11 -7.5 17 -7.5c8 0 14.333 3.33301 19 10zM223 229.001c4 4.66699 6 9.66699 6 15c0 4.66699 -2 9.66699 -6 15l-130 174c-4.66699 6.66699 -11 10 -19 10c-6.66699 0 -12.667 -2.5 -18 -7.5s-8 -10.833 -8 -17.5
c0 -5.33301 2 -10.333 6 -15l119 -159l-119 -160c-4 -4 -6 -8.66699 -6 -14c0 -6.66699 2.66699 -12.5 8 -17.5s11.333 -7.5 18 -7.5c8 0 14.333 3.33301 19 10z" />
    <glyph glyph-name="Agrave" unicode="&#xc0;" horiz-adv-x="488" 
d="M144 196h198.999l48 -177c2.66699 -12.667 10.334 -19 23.001 -19c6 -0 11.5 2.33301 16.5 7s7.5 10.334 7.5 17.001v7l-171 630c-4 14.667 -12 22 -24 22c-11.333 0 -19 -7.33301 -23 -22l-171 -630c-0.666992 -2 -1 -4.33301 -1 -7c0 -6.66699 2.5 -12.334 7.5 -17.001
s10.833 -7 17.5 -7c11.333 -0 19 6.33301 23 19zM329.999 245h-173l86 321z" />
    <glyph glyph-name="Aacute" unicode="&#xc1;" horiz-adv-x="439" 
d="M98 49v292h146c28 0 51.333 -9.16699 70 -27.5s28 -41.5 28 -69.5v-98c0 -28 -9.33301 -51.167 -28 -69.5s-42 -27.5 -70 -27.5h-146zM98 390v244.999h244c8 0 14 2.33301 18 7s6 10.334 6 17.001c0 16.667 -8 25 -24 25h-269c-16 0 -24 -8.33301 -24 -25v-635
c0 -16 8 -24 24 -24h171c40.667 -0 75.334 14.333 104.001 43s43 63 43 103v98c0 40.667 -14.333 75 -43 103c-28.667 28.667 -63.334 43 -104.001 43h-146z" />
    <glyph glyph-name="Acircumflex" unicode="&#xc2;" horiz-adv-x="439" 
d="M98 390v245h122c13.333 0 25.833 -2.5 37.5 -7.5s22 -12 31 -21s16 -19.333 21 -31s7.5 -24.5 7.5 -38.5v-49c0 -13.333 -2.5 -25.833 -7.5 -37.5s-12 -22 -21 -31s-19.333 -16.167 -31 -21.5s-24.167 -8 -37.5 -8h-122zM98 49v292h146c28 0 51.333 -9.16699 70 -27.5
s28 -41.5 28 -69.5v-98c0 -28 -9.33301 -51.167 -28 -69.5s-42 -27.5 -70 -27.5h-146zM73 0l170.999 -0.00195312c38 0 71.667 14.333 101 43c30.667 28.667 46 63 46 103v98c0 28 -7.16699 53.667 -21.5 77s-33.5 41 -57.5 53c16.667 14.667 29.834 31.834 39.501 51.501
s14.5 40.5 14.5 62.5v49c0 40.667 -14.333 75.334 -43 104.001c-28 28.667 -62.333 43 -103 43h-147c-16 0 -24 -8.33301 -24 -25v-635c0 -16 8 -24 24 -24z" />
    <glyph glyph-name="Atilde" unicode="&#xc3;" 
d="M317 635c8 0 14.166 2.33105 18.499 6.99805s6.5 10.334 6.5 17.001c0 16.667 -8.33301 25 -25 25h-244c-16 0 -24 -8.33301 -24 -25v-635c0 -7.33301 2.33301 -13.166 7 -17.499s10.334 -6.5 17.001 -6.5c16.667 0 25 8 25 24v611h219z" />
    <glyph glyph-name="Adieresis" unicode="&#xc4;" horiz-adv-x="488" 
d="M415 49h-24.002v611c0 16 -8 24 -24 24h-196c-16.667 0 -25 -7.33301 -25 -22l-47 -613h-26c-16 0 -24 -8.33301 -24 -25v-48c0 -8 2.33301 -14 7 -18s10.334 -6 17.001 -6c16.667 0 25 8 25 24v24h293v-24c0 -8 2.33301 -14 7 -18s10.334 -6 17.001 -6c16 0 24 8 24 24
v48c0 16.667 -8 25 -24 25zM147.998 49l45 586h149v-586h-194z" />
    <glyph glyph-name="Aring" unicode="&#xc5;" 
d="M98 341l122 -0.00195312c8 0 14.167 2.5 18.5 7.5s6.5 10.833 6.5 17.5s-2.16699 12.334 -6.5 17.001s-10.5 7 -18.5 7h-122v245h220c8 0 14 2.33301 18 7s6 10.334 6 17.001c0 16.667 -8 25 -24 25h-244c-16.667 0 -25 -8.33301 -25 -25v-635c0 -16 8.33301 -24 25 -24
h244c8 0 14 2.5 18 7.5s6 10.5 6 16.5c0 16.667 -8 25 -24 25h-220v292z" />
    <glyph glyph-name="AE" unicode="&#xc6;" horiz-adv-x="537" 
d="M292 394l-0.000976562 265c0 8 -2.33301 14.167 -7 18.5s-10.334 6.5 -17.001 6.5s-12.5 -2.16699 -17.5 -6.5s-7.5 -10.5 -7.5 -18.5v-263l-149 275c-4.66699 8.66699 -11.334 13 -20.001 13c-7.33301 0 -13.5 -2.33301 -18.5 -7s-7.5 -10.334 -7.5 -17.001
c0 -4 1 -8.33301 3 -13l153 -282l-153 -330c-2 -4 -3 -8 -3 -12c0 -6.66699 2.5 -12.167 7.5 -16.5s10.833 -6.5 17.5 -6.5c10.667 0 18 4.66699 22 14l148 319v-309c0 -7.33301 2.5 -13.166 7.5 -17.499s10.833 -6.5 17.5 -6.5s12.334 2 17.001 6s7 10 7 18v311l149 -321
c4.66699 -10 12.334 -15 23.001 -15c6.66699 0 12.334 2.16699 17.001 6.5s7 9.83301 7 16.5c0 3.33301 -1 7.66602 -3 12.999l-153 330l153 282c2 4.66699 3 9 3 13c0 6.66699 -2.5 12.334 -7.5 17.001s-10.833 7 -17.5 7c-9.33301 0 -16.333 -4.33301 -21 -13z" />
    <glyph glyph-name="Ccedilla" unicode="&#xc7;" horiz-adv-x="439" 
d="M322 366c20.667 13.333 36.832 30.8291 48.499 52.4961s17.5 44.834 17.5 69.501v49c0 41.333 -14.333 76 -43 104c-28.667 28.667 -63.334 43 -104.001 43h-34c-28.667 0 -55.167 -8 -79.5 -24s-42.5 -37.333 -54.5 -64c-1.33301 -5.33301 -2 -8.66602 -2 -9.99902
c0 -7.33301 2.5 -13.166 7.5 -17.499s10.833 -6.5 17.5 -6.5c9.33301 0 16.666 5 21.999 15c8 17.333 20 31.333 36 42s33.667 16 53 16h34c14 0 26.833 -2.66699 38.5 -8s22 -12.5 31 -21.5s16 -19.333 21 -31s7.5 -24.167 7.5 -37.5v-49
c0 -13.333 -2.5 -25.833 -7.5 -37.5s-12 -22 -21 -31s-19.333 -16.167 -31 -21.5s-24.5 -8 -38.5 -8h-73c-7.33301 0 -13.166 -2.5 -17.499 -7.5s-6.5 -10.5 -6.5 -16.5c0 -16.667 8 -25 24 -25h73c28 0 51.333 -9.16699 70 -27.5s28 -41.5 28 -69.5v-98
c0 -28 -9.33301 -51.167 -28 -69.5s-42 -27.5 -70 -27.5h-49c-22.667 0 -43 7.5 -61 22.5s-29.333 33.833 -34 56.5c-3.33301 13.333 -11 20 -23 20c-6.66699 0 -12.5 -2.16699 -17.5 -6.5s-7.5 -10.166 -7.5 -17.499v-6c4 -17.333 10.333 -33.166 19 -47.499
s19.334 -26.666 32.001 -36.999s26.834 -18.5 42.501 -24.5s32.167 -9 49.5 -9h49c40.667 0 75.334 14.333 104.001 43s43 63 43 103v98c0 25.333 -5.83301 48.666 -17.5 69.999s-27.834 38.666 -48.501 51.999z" />
    <glyph glyph-name="Egrave" unicode="&#xc8;" horiz-adv-x="439" 
d="M391 29v634.998c0 8.66699 -2.16699 15.5 -6.5 20.5s-9.5 7.5 -15.5 7.5c-10 0 -18 -6 -24 -18l-247 -534v524c0 8 -2.5 14 -7.5 18s-10.833 6 -17.5 6s-12.334 -2.16699 -17.001 -6.5s-7 -10.166 -7 -17.499v-635c0 -8 2.16699 -14.667 6.5 -20s9.5 -8 15.5 -8
c10 0 18 6 24 18l247 534v-524c0 -7.33301 2.5 -13.166 7.5 -17.499s10.833 -6.5 17.5 -6.5s12.334 2 17.001 6s7 10 7 18z" />
    <glyph glyph-name="Eacute" unicode="&#xc9;" horiz-adv-x="439" 
d="M269 732c8 0 14 2.50098 18 7.50098s6 10.833 6 17.5c0 16 -8 24 -24 24h-98c-8 0 -14.167 -2.33301 -18.5 -7s-6.5 -10.334 -6.5 -17.001s2.33301 -12.5 7 -17.5s10.667 -7.5 18 -7.5h98zM391 24.001v635.999c0 8 -2.33301 14.667 -7 20s-10 8 -16 8
c-10 0 -18 -6 -24 -18l-246 -535v525c0 7.33301 -2.5 13.166 -7.5 17.499s-10.833 6.5 -17.5 6.5s-12.334 -2.16699 -17.001 -6.5s-7 -10.166 -7 -17.499v-636c0 -8 2.16699 -14.5 6.5 -19.5s9.5 -7.5 15.5 -7.5c10 0 18 5.66699 24 17l247 535v-525
c0 -7.33301 2.33301 -13.166 7 -17.499s10.334 -6.5 17.001 -6.5c16.667 0 25 8 25 24z" />
    <glyph glyph-name="Ecircumflex" unicode="&#xca;" horiz-adv-x="439" 
d="M98 261l81 108.999l166 -356c3.33301 -9.33301 10.333 -14 21 -14c6 0 11.667 2.33301 17 7s8 10 8 16c0 2.66699 -0.666992 6.66699 -2 12l-177 379l174 231c4 4 6 8.66699 6 14c0 6.66699 -2.66699 12.5 -8 17.5s-11.333 7.5 -18 7.5c-8 0 -14.333 -3.33301 -19 -10
l-249 -332v317c0 8 -2.5 14.167 -7.5 18.5s-10.833 6.5 -17.5 6.5s-12.334 -2.33301 -17.001 -7s-7 -10.667 -7 -18v-635c0 -7.33301 2.33301 -13.166 7 -17.499s10.334 -6.5 17.001 -6.5c16.667 0 25 8 25 24v237z" />
    <glyph glyph-name="Edieresis" unicode="&#xcb;" horiz-adv-x="488" 
d="M439 24l-0.000976562 634.999c0 16.667 -8 25 -24 25h-146c-12 0 -19.667 -5.66699 -23 -17l-196 -635c-1.33301 -4 -2 -7 -2 -9c0 -6.66699 2.5 -12.167 7.5 -16.5s11.167 -6.5 18.5 -6.5c11.333 0 19 5.66699 23 17l190 618h104v-611
c0 -7.33301 2.33301 -13.166 7 -17.499s10.334 -6.5 17.001 -6.5c16 0 24 8 24 24z" />
    <glyph glyph-name="Igrave" unicode="&#xcc;" horiz-adv-x="537" 
d="M488 24v634.998c0 8.66699 -2.16699 15.667 -6.5 21s-9.5 8 -15.5 8c-9.33301 0 -17 -5.33301 -23 -16l-175 -283l-174 283c-6.66699 10.667 -14.334 16 -23.001 16c-6 0 -11.167 -2.66699 -15.5 -8s-6.5 -12.333 -6.5 -21v-635c0 -7.33301 2.33301 -13.166 7 -17.499
s10.334 -6.5 17.001 -6.5c16.667 0 25 8 25 24v548l149 -243c6 -10 13 -15 21 -15s15 5 21 15l150 244v-549c0 -7.33301 2.5 -13.166 7.5 -17.499s10.833 -6.5 17.5 -6.5c16 0 24 8 24 24z" />
    <glyph glyph-name="Iacute" unicode="&#xcd;" horiz-adv-x="439" 
d="M342 390l-244.001 -0.00195312v269c0 8 -2.5 14.167 -7.5 18.5s-10.833 6.5 -17.5 6.5s-12.334 -2.33301 -17.001 -7s-7 -10.667 -7 -18v-635c0 -7.33301 2.33301 -13.166 7 -17.499s10.334 -6.5 17.001 -6.5c16.667 0 25 8 25 24v317h244v-317
c0 -7.33301 2.5 -13.166 7.5 -17.499s10.833 -6.5 17.5 -6.5s12.334 2 17.001 6s7 10 7 18v635c0 8 -2.5 14.167 -7.5 18.5s-10.5 6.5 -16.5 6.5c-16.667 0 -25 -8.33301 -25 -25v-269z" />
    <glyph glyph-name="Icircumflex" unicode="&#xce;" horiz-adv-x="439" 
d="M391 146l0.000976562 391.001c0 41.333 -14.333 76 -43 104c-28.667 28.667 -63.334 43 -104.001 43h-49c-40.667 0 -75.334 -14.333 -104.001 -43c-28 -29.333 -42 -64 -42 -104v-391c0 -40.667 14.333 -75.334 43 -104.001c28 -28 62.333 -42 103 -42h49
c40.667 -0 75.334 14.333 104.001 43s43 63 43 103zM342.001 146.001c0 -28 -9.33301 -51.167 -28 -69.5s-42 -27.5 -70 -27.5h-49c-13.333 0 -25.833 2.5 -37.5 7.5s-22 12 -31 21s-16 19.333 -21 31s-7.5 24.167 -7.5 37.5v391c0 14 2.5 26.833 7.5 38.5s12 22 21 31
s19.333 16 31 21s24.167 7.5 37.5 7.5h49c14 0 26.833 -2.66699 38.5 -8s22 -12.5 31 -21.5s16 -19.333 21 -31s7.5 -24.167 7.5 -37.5v-391z" />
    <glyph glyph-name="Idieresis" unicode="&#xcf;" horiz-adv-x="439" 
d="M391 24l-0.00195312 634.998c0 16.667 -8 25 -24 25h-294c-16 0 -24 -8.33301 -24 -25v-635c0 -7.33301 2.33301 -13.166 7 -17.499s10.334 -6.5 17.001 -6.5c16.667 0 25 8 25 24v611h244v-611c0 -7.33301 2.5 -13.166 7.5 -17.499s10.833 -6.5 17.5 -6.5
s12.334 2 17.001 6s7 10 7 18z" />
    <glyph glyph-name="Eth" unicode="&#xd0;" horiz-adv-x="439" 
d="M98 342v293h146c14 0 26.833 -2.66699 38.5 -8s22 -12.5 31 -21.5s16 -19.333 21 -31s7.5 -24.167 7.5 -37.5v-98c0 -13.333 -2.5 -25.833 -7.5 -37.5s-12 -22 -21 -31s-19.333 -16 -31 -21s-24.5 -7.5 -38.5 -7.5h-146zM98 293l146 -0.00195312c40 0 74.667 14 104 42
c28.667 28.667 43 63.334 43 104.001v98c0 41.333 -14.333 76 -43 104c-28.667 28.667 -63.334 43 -104.001 43h-171c-16 0 -24 -8.33301 -24 -25v-635c0 -7.33301 2.33301 -13.166 7 -17.499s10.334 -6.5 17.001 -6.5c16.667 0 25 8 25 24v269z" />
    <glyph glyph-name="Ntilde" unicode="&#xd1;" 
d="M317 0c8 0 14.167 2.50098 18.5 7.50098s6.5 10.5 6.5 16.5c0 16.667 -8.33301 25 -25 25h-121c-14 0 -26.833 2.5 -38.5 7.5s-22 12 -31 21s-16 19.333 -21 31s-7.5 24.167 -7.5 37.5v391c0 28 9.33301 51.333 28 70s42 28 70 28h121c8 0 14.167 2.33301 18.5 7
s6.5 10.334 6.5 17.001c0 16.667 -8.33301 25 -25 25h-121c-40.667 0 -75.334 -14.333 -104.001 -43s-43 -63.334 -43 -104.001v-391c0 -40.667 14.333 -75.334 43 -104.001c28.667 -28 63.334 -42 104.001 -42h121z" />
    <glyph glyph-name="Ograve" unicode="&#xd2;" horiz-adv-x="439" 
d="M195 635v-611.001c0 -7.33301 2.5 -13.166 7.5 -17.499s10.833 -6.5 17.5 -6.5s12.334 2 17.001 6s7 10 7 18v611h123c7.33301 0 13.166 2.33301 17.499 7s6.5 10.334 6.5 17.001c0 16.667 -8 25 -24 25h-294c-7.33301 0 -13.166 -2.5 -17.499 -7.5
s-6.5 -10.833 -6.5 -17.5s2.16699 -12.334 6.5 -17.001s10.166 -7 17.499 -7h122z" />
    <glyph glyph-name="Oacute" unicode="&#xd3;" horiz-adv-x="439" 
d="M342 293l0.00195312 -146.998c0 -28 -9.33301 -51.167 -28 -69.5s-42 -27.5 -70 -27.5h-122c-8 0 -14 -2.5 -18 -7.5s-6 -10.833 -6 -17.5s2.16699 -12.334 6.5 -17.001s10.166 -7 17.499 -7h122c40.667 0 75.334 14.333 104.001 43s43 63 43 103v513
c0 8 -2.5 14.167 -7.5 18.5s-10.5 6.5 -16.5 6.5c-16.667 0 -25 -8.33301 -25 -25v-317h-147c-14 0 -26.833 2.5 -38.5 7.5s-21.834 12 -30.501 21s-15.5 19.333 -20.5 31s-7.5 24.167 -7.5 37.5v220c0 8 -2.5 14.167 -7.5 18.5s-10.833 6.5 -17.5 6.5
s-12.334 -2.33301 -17.001 -7s-7 -10.667 -7 -18v-220c0 -40.667 14.333 -75.334 43 -104.001c28.667 -28 63 -42 103 -42h147z" />
    <glyph glyph-name="Ocircumflex" unicode="&#xd4;" horiz-adv-x="635" 
d="M342 537h47.999c40.667 0 75.334 -14.333 104.001 -43s43 -63 43 -103v-49c0 -41.333 -14.333 -76.333 -43 -105c-29.333 -28 -64 -42 -104 -42h-48v342zM292.999 195l-49 -0.000976562c-40.667 0 -75.334 14.333 -104.001 43s-43 63.334 -43 104.001v49
c0 40.667 14.333 75 43 103c28.667 28.667 63.334 43 104.001 43h49v-342zM292.999 145.999l0.000976562 -122.001c0 -7.33301 2.5 -13.166 7.5 -17.499s10.5 -6.5 16.5 -6.5c16.667 0 25 8 25 24v122h48c54.667 0 101 19 139 57c38 38.667 57 85 57 139v49
c0 54.667 -19 100.667 -57 138c-38 38 -84.333 57 -139 57h-48v73c0 8 -2.5 14.167 -7.5 18.5s-10.833 6.5 -17.5 6.5s-12.334 -2.33301 -17.001 -7s-7 -10.667 -7 -18v-73h-49c-54 0 -100.333 -19 -139 -57c-38 -38 -57 -84 -57 -138v-49c0 -54.667 19 -101 57 -139
c38.667 -38 85 -57 139 -57h49z" />
    <glyph glyph-name="Otilde" unicode="&#xd5;" horiz-adv-x="488" 
d="M245 394l-150 277c-5.33301 9.33301 -12 14 -20 14c-7.33301 0 -13.5 -2.33301 -18.5 -7s-7.5 -10.334 -7.5 -17.001c0 -4.66699 1 -9 3 -13l165 -306l-165 -305c-2 -5.33301 -3 -9.66602 -3 -12.999c0 -6.66699 2.5 -12.334 7.5 -17.001s10.833 -7 17.5 -7
c9.33301 0 16.333 4.33301 21 13l150 278l149 -278c4.66699 -8.66699 11.667 -13 21 -13c6.66699 0 12.5 2.33301 17.5 7s7.5 10.334 7.5 17.001c0 3.33301 -1 7.66602 -3 12.999l-165 305l165 306c2 4 3 8.33301 3 13c0 6.66699 -2.5 12.334 -7.5 17.001s-10.833 7 -17.5 7
c-8.66699 0 -15.667 -4.66699 -21 -14z" />
    <glyph glyph-name="Odieresis" unicode="&#xd6;" horiz-adv-x="488" 
d="M342 48h-244v611c0 8 -2.5 14.167 -7.5 18.5s-10.833 6.5 -17.5 6.5s-12.334 -2.33301 -17.001 -7s-7 -10.667 -7 -18v-635c0 -16 8 -24 24 -24h318v-73c0 -8 2.33301 -14.167 7 -18.5s10.334 -6.5 17.001 -6.5c16 0 24 8.33301 24 25v97c0 16 -8 24 -24 24h-24v611
c0 8 -2.5 14.167 -7.5 18.5s-10.5 6.5 -16.5 6.5c-16.667 0 -25 -8.33301 -25 -25v-611z" />
    <glyph glyph-name="multiply" unicode="&#xd7;" horiz-adv-x="439" 
d="M342 293l0.000976562 -269c0 -7.33301 2.5 -13.166 7.5 -17.499s10.833 -6.5 17.5 -6.5s12.334 2 17.001 6s7 10 7 18v635c0 8 -2.5 14.167 -7.5 18.5s-10.5 6.5 -16.5 6.5c-16.667 0 -25 -8.33301 -25 -25v-317h-147c-14 0 -26.833 2.5 -38.5 7.5s-21.834 12 -30.501 21
s-15.5 19.333 -20.5 31s-7.5 24.167 -7.5 37.5v220c0 8 -2.5 14.167 -7.5 18.5s-10.833 6.5 -17.5 6.5s-12.334 -2.33301 -17.001 -7s-7 -10.667 -7 -18v-220c0 -40.667 14.333 -75.334 43 -104.001c28.667 -28 63 -42 103 -42h147z" />
    <glyph glyph-name="Oslash" unicode="&#xd8;" horiz-adv-x="537" 
d="M244 49h-145.996v610c0 8 -2.5 14.167 -7.5 18.5s-10.833 6.5 -17.5 6.5s-12.334 -2.33301 -17.001 -7s-7 -10.667 -7 -18v-635c0 -16 8 -24 24 -24h391c16 0 24 8 24 24v635c0 8 -2.33301 14.167 -7 18.5s-10.334 6.5 -17.001 6.5s-12.5 -2.33301 -17.5 -7
s-7.5 -10.667 -7.5 -18v-610h-147v610c0 8 -2.33301 14.167 -7 18.5s-10.334 6.5 -17.001 6.5s-12.334 -2.33301 -17.001 -7s-7 -10.667 -7 -18v-610z" />
    <glyph glyph-name="Ugrave" unicode="&#xd9;" horiz-adv-x="586" 
d="M440 48h-146.999v611c0 8 -2.5 14.167 -7.5 18.5s-10.5 6.5 -16.5 6.5c-16.667 0 -25 -8.33301 -25 -25v-611h-146v611c0 8 -2.5 14.167 -7.5 18.5s-10.833 6.5 -17.5 6.5s-12.334 -2.33301 -17.001 -7s-7 -10.667 -7 -18v-635c0 -16 8 -24 24 -24h415v-73
c0 -8 2.5 -14.167 7.5 -18.5s10.833 -6.5 17.5 -6.5s12.334 2.16699 17.001 6.5s7 10.5 7 18.5v97c0 16 -8 24 -24 24h-24v611c0 8 -2.5 14.167 -7.5 18.5s-10.833 6.5 -17.5 6.5s-12.334 -2.33301 -17.001 -7s-7 -10.667 -7 -18v-611z" />
    <glyph glyph-name="Uacute" unicode="&#xda;" horiz-adv-x="537" 
d="M195 341h147c28 0 51.167 -9.16699 69.5 -27.5s27.5 -41.5 27.5 -69.5v-98c0 -13.333 -2.5 -25.833 -7.5 -37.5s-12 -22 -21 -31s-19.333 -16 -31 -21s-24.167 -7.5 -37.5 -7.5h-147v292zM195 390v269c0 16.667 -8 25 -24 25h-98c-7.33301 0 -13.166 -2.5 -17.499 -7.5
s-6.5 -10.833 -6.5 -17.5s2.16699 -12.334 6.5 -17.001s10.166 -7 17.499 -7h73v-611c0 -16 8.33301 -24 25 -24h171c40.667 0 75 14 103 42c28.667 28.667 43 63.334 43 104.001v98c0 40.667 -14.333 75 -43 103c-28.667 28.667 -63 43 -103 43h-147z" />
    <glyph glyph-name="Ucircumflex" unicode="&#xdb;" horiz-adv-x="488" 
d="M439 24l0.000976562 634.999c0 8 -2.33301 14.167 -7 18.5s-10.334 6.5 -17.001 6.5s-12.334 -2.33301 -17.001 -7s-7 -10.667 -7 -18v-635c0 -7.33301 2.33301 -13.166 7 -17.499s10.334 -6.5 17.001 -6.5c16 0 24 8 24 24zM98.001 340.999h97
c28 0 51.333 -9.16699 70 -27.5s28 -41.5 28 -69.5v-98c0 -28 -9.33301 -51.167 -28 -69.5s-42 -27.5 -70 -27.5h-97v292zM98.001 389.999l0.000976562 269c0 8 -2.5 14.167 -7.5 18.5s-10.833 6.5 -17.5 6.5s-12.334 -2.33301 -17.001 -7s-7 -10.667 -7 -18v-635
c0 -16 8 -24 24 -24h122c40.667 0 75.334 14.333 104.001 43s43 63 43 103v98c0 40.667 -14.333 75 -43 103c-28.667 28.667 -63.334 43 -104.001 43h-97z" />
    <glyph glyph-name="Udieresis" unicode="&#xdc;" horiz-adv-x="439" 
d="M98 341h146c28 0 51.333 -9.16699 70 -27.5s28 -41.5 28 -69.5v-98c0 -28 -9.33301 -51.167 -28 -69.5s-42 -27.5 -70 -27.5h-146v292zM98 390l0.000976562 269c0 8 -2.5 14.167 -7.5 18.5s-10.833 6.5 -17.5 6.5s-12.334 -2.33301 -17.001 -7s-7 -10.667 -7 -18v-635
c0 -16 8 -24 24 -24h171c40.667 -0 75.334 14.333 104.001 43s43 63 43 103v98c0 40.667 -14.333 75 -43 103c-28.667 28.667 -63.334 43 -104.001 43h-146z" />
    <glyph glyph-name="Yacute" unicode="&#xdd;" horiz-adv-x="439" 
d="M342 341v-194.998c0 -28 -9.33301 -51.167 -28 -69.5s-42 -27.5 -70 -27.5h-171c-7.33301 0 -13.166 -2.5 -17.499 -7.5s-6.5 -10.833 -6.5 -17.5s2.16699 -12.334 6.5 -17.001s10.166 -7 17.499 -7h171c40.667 0 75.334 14.333 104.001 43s43 63 43 103v391
c0 41.333 -14.333 76 -43 104c-28.667 28.667 -63.334 43 -104.001 43h-171c-7.33301 0 -13.166 -2.5 -17.499 -7.5s-6.5 -10.833 -6.5 -17.5s2.16699 -12.334 6.5 -17.001s10.166 -7 17.499 -7h171c14 0 26.833 -2.66699 38.5 -8s22 -12.5 31 -21.5s16 -19.333 21 -31
s7.5 -24.167 7.5 -37.5v-147h-171c-8 0 -14.167 -2.5 -18.5 -7.5s-6.5 -10.5 -6.5 -16.5c0 -16.667 8.33301 -25 25 -25h171z" />
    <glyph glyph-name="Thorn" unicode="&#xde;" horiz-adv-x="488" 
d="M391 146c0 -30 -10.333 -54.333 -31 -73c-18 -16 -40.333 -24 -67 -24s-49 8 -67 24c-20.667 18 -31 42.333 -31 73v391c0 30.667 10.333 55 31 73c18 16 40.333 24 67 24s49 -8 67 -24c20.667 -18 31 -42.333 31 -73v-391zM98 390v269c0 8 -2.5 14.167 -7.5 18.5
s-10.833 6.5 -17.5 6.5s-12.334 -2.33301 -17.001 -7s-7 -10.667 -7 -18v-635c0 -7.33301 2.33301 -13.166 7 -17.499s10.334 -6.5 17.001 -6.5c16.667 0 25 8 25 24v317h48v-195c0 -46 15.333 -82.333 46 -109c27.333 -24.667 61 -37 101 -37
c40.667 0 74.334 12.333 101.001 37c30 26.667 45 63 45 109v391c0 46 -15 82.667 -45 110c-27.333 24.667 -61 37 -101 37c-40.667 0 -74.334 -12.333 -101.001 -37c-30.667 -26.667 -46 -63.334 -46 -110.001v-147h-48z" />
    <glyph glyph-name="germandbls" unicode="&#xdf;" horiz-adv-x="439" 
d="M342 342h-146.999c-14 0 -26.833 2.5 -38.5 7.5s-21.834 12 -30.501 21s-15.5 19.333 -20.5 31s-7.5 24.167 -7.5 37.5v98c0 14 2.5 26.833 7.5 38.5s12 22 21 31s19.333 16 31 21s24.167 7.5 37.5 7.5h147v-293zM245.001 293l97 -0.00292969v-269
c0 -7.33301 2.5 -13.166 7.5 -17.499s10.833 -6.5 17.5 -6.5s12.334 2 17.001 6s7 10 7 18v635c0 16.667 -8 25 -24 25h-172c-40.667 0 -75.334 -14.333 -104.001 -43c-28 -29.333 -42 -64 -42 -104v-98c0 -39.333 13.667 -73.666 41 -102.999
c26.667 -28.667 59.667 -43 99 -43l-137 -257c-2.66699 -3.33301 -4 -7.33301 -4 -12c0 -7.33301 2.66699 -13.166 8 -17.499s11.333 -6.5 18 -6.5c9.33301 -0 16.333 4.33301 21 13z" />
    <glyph glyph-name="agrave" unicode="&#xe0;" 
d="M293 98c0 -14 -4.66699 -25.666 -14 -34.999s-21 -14 -35 -14h-98c-13.333 0 -24.666 4.66699 -33.999 14s-14 21 -14 35v293c0 13.333 4.66699 24.666 14 33.999s20.666 14 33.999 14h147v-341zM375 47.001c-10 3.33301 -17.999 9.83301 -23.999 19.5s-9 20.167 -9 31.5
v366c0 16 -8.33301 24 -25 24h-171c-14 0 -26.833 -2.5 -38.5 -7.5s-21.834 -12 -30.501 -21s-15.5 -19.333 -20.5 -31s-7.5 -24.167 -7.5 -37.5v-293c0 -28 9.16699 -51.333 27.5 -70s41.5 -28 69.5 -28h98c29.333 0 53.666 11 72.999 33c7.33301 -8.66699 14 -15 20 -19
c10 -8 17.667 -12.667 23 -14c2 -0.666992 5 -1 9 -1c6.66699 0 12.334 2.5 17.001 7.5s7 10.833 7 17.5c0 11.333 -6 19 -18 23z" />
    <glyph glyph-name="aacute" unicode="&#xe1;" 
d="M293 98c0 -13.333 -4.83301 -24.833 -14.5 -34.5s-21.167 -14.5 -34.5 -14.5h-97c-14 0 -25.667 4.66699 -35 14s-14 21 -14 35v293c0 13.333 4.66699 24.666 14 33.999s21 14 35 14h97c14 0 25.667 -4.66699 35 -14s14 -20.666 14 -33.999v-293zM313 460l-180 174.999
h184c8 0 14.167 2.33301 18.5 7s6.5 10.334 6.5 17.001c0 16.667 -8.33301 25 -25 25h-244c-8.66699 0 -15.5 -2 -20.5 -6s-7.5 -9 -7.5 -15c0 -6.66699 3.66699 -13.667 11 -21l157 -154h-66c-28 0 -51.333 -9.16699 -70 -27.5s-28 -41.5 -28 -69.5v-293
c0 -13.333 2.5 -25.833 7.5 -37.5s12 -22 21 -31s19.333 -16.167 31 -21.5s24.5 -8 38.5 -8h97c14 0 26.833 2.66699 38.5 8s22 12.5 31 21.5s16 19.333 21 31s7.5 24.167 7.5 37.5v293c0 26.667 -9 49 -27 67z" />
    <glyph glyph-name="acircumflex" unicode="&#xe2;" 
d="M98 488l0.000976562 98c0 16 4.66699 28.167 14 36.5s20.666 12.5 33.999 12.5c14 0 25.667 -4.33301 35 -13s14 -20.667 14 -36c0 -13.333 -6 -25.333 -18 -36c-11.333 -11.333 -25.333 -23.333 -42 -36c-5.33301 -4.66699 -11 -9 -17 -13zM293.001 98
c0 -13.333 -4.83301 -24.833 -14.5 -34.5s-21.167 -14.5 -34.5 -14.5h-97c-14 0 -25.667 4.66699 -35 14s-14 21 -14 35v293c0 13.333 4.66699 24.666 14 33.999s21 14 35 14h97c14 0 25.667 -4.66699 35 -14s14 -20.666 14 -33.999v-293zM177.001 488
c3.33301 3.33301 7 6.33203 11 8.99902s8 5.66699 12 9c12 10 19.333 16.333 22 19c8.66699 10.667 14.667 21.334 18 32.001c2.66699 6 4 15.667 4 29c0 30.667 -10.333 55 -31 73c-18 16 -40.333 24 -67 24c-26 0 -48.333 -8 -67 -24c-20 -18 -30 -42.333 -30 -73v-488
c0 -13.333 2.5 -25.833 7.5 -37.5s12 -22 21 -31s19.333 -16.167 31 -21.5s24.5 -8 38.5 -8h97c14 0 26.833 2.66699 38.5 8s22 12.5 31 21.5s16 19.333 21 31s7.5 24.167 7.5 37.5v293c0 13.333 -2.5 25.833 -7.5 37.5s-12 22 -21 31s-19.333 16 -31 21
s-24.5 7.5 -38.5 7.5h-67z" />
    <glyph glyph-name="atilde" unicode="&#xe3;" 
d="M342 65c1.33301 4 2.00098 6.99902 2.00098 8.99902c0 6.66699 -2.5 12.334 -7.5 17.001s-10.833 7 -17.5 7c-10.667 0 -18 -5.33301 -22 -16c-4 -10 -11 -18 -21 -24s-20.667 -9 -32 -9h-98c-14 0 -25.5 4.83301 -34.5 14.5s-13.5 21.167 -13.5 34.5
c0 14 5 25.667 15 35l199 187c20 18.667 30 42 30 70c0 26 -9 48.667 -27 68c-19.333 20 -43 30 -71 30h-98c-20.667 0 -40.334 -6 -59.001 -18s-31.334 -27.667 -38.001 -47c-1.33301 -4 -2 -7 -2 -9c0 -6.66699 2.66699 -12.167 8 -16.5s11 -6.5 17 -6.5
c10.667 0 18 5 22 15s11.167 18 21.5 24s20.5 9 30.5 9h98c14.667 0 26.5 -4.83301 35.5 -14.5s13.5 -21.167 13.5 -34.5s-5 -25 -15 -35l-198 -187c-20.667 -18.667 -31 -42 -31 -70c0 -13.333 2.5 -25.833 7.5 -37.5s11.667 -22 20 -31s18.5 -16.167 30.5 -21.5
s25 -8 39 -8h98c21.333 0 41.333 6 60 18s31.334 27.667 38.001 47z" />
    <glyph glyph-name="adieresis" unicode="&#xe4;" 
d="M293 439v-340.999c0 -13.333 -4.83301 -24.833 -14.5 -34.5s-21.167 -14.5 -34.5 -14.5h-97c-14 0 -25.667 4.66699 -35 14s-14 21 -14 35v293c0 13.333 4.66699 24.666 14 33.999s21 14 35 14h146zM293 488.001l-146 0.000976562c-28 0 -51.333 -9.16699 -70 -27.5
s-28 -41.5 -28 -69.5v-293c0 -13.333 2.5 -25.833 7.5 -37.5s12 -22 21 -31s19.333 -16.167 31 -21.5s24.5 -8 38.5 -8h97c14 0 26.833 2.66699 38.5 8s22 12.5 31 21.5s16 19.333 21 31s7.5 24.167 7.5 37.5v488c0 13.333 -2.66699 25.833 -8 37.5s-12.5 22 -21.5 31
s-19.333 16.167 -31 21.5s-24.167 8 -37.5 8h-171c-7.33301 0 -13.166 -2.5 -17.499 -7.5s-6.5 -10.833 -6.5 -17.5s2.16699 -12.334 6.5 -17.001s10.166 -7 17.499 -7h171c14 0 25.667 -4.83301 35 -14.5s14 -21.167 14 -34.5v-98z" />
    <glyph glyph-name="aring" unicode="&#xe5;" 
d="M98 269l0.000976562 122c0 13.333 4.66699 24.666 14 33.999s20.666 14 33.999 14h98c14 0 25.667 -4.66699 35 -14s14 -20.666 14 -33.999v-122h-195zM98.001 220h219c16.667 0 25 8 25 24v147c0 13.333 -2.5 25.833 -7.5 37.5s-12 22 -21 31s-19.333 16 -31 21
s-24.5 7.5 -38.5 7.5h-98c-14 0 -26.833 -2.5 -38.5 -7.5s-21.834 -12 -30.501 -21s-15.5 -19.333 -20.5 -31s-7.5 -24.167 -7.5 -37.5v-293c0 -28 9.16699 -51.333 27.5 -70s41.5 -28 69.5 -28h171c8 0 14.167 2.5 18.5 7.5s6.5 10.5 6.5 16.5c0 16.667 -8.33301 25 -25 25
h-171c-13.333 0 -24.666 4.66699 -33.999 14s-14 21 -14 35v122z" />
    <glyph glyph-name="ae" unicode="&#xe6;" horiz-adv-x="488" 
d="M267 287v176.997c0 8 -2.5 14 -7.5 18s-10.5 6 -16.5 6c-16.667 0 -25 -8 -25 -24v-175l-123 189c-5.33301 7.33301 -12 11 -20 11c-6.66699 0 -12.667 -2.5 -18 -7.5s-8 -10.833 -8 -17.5c0 -5.33301 1.66699 -10 5 -14l134 -206l-134 -206
c-3.33301 -5.33301 -5 -10 -5 -14c0 -6.66699 2.66699 -12.334 8 -17.001s11.333 -7 18 -7c8.66699 0 15.334 3.66699 20.001 11l123 189v-176c0 -7.33301 2.5 -13.166 7.5 -17.499s10.833 -6.5 17.5 -6.5s12.334 2 17.001 6s7 10 7 18v177l128 -190
c5.33301 -7.33301 11.666 -11 18.999 -11c6.66699 0 12.5 2.33301 17.5 7s7.5 10.334 7.5 17.001c0 2 -0.166992 4.33301 -0.5 7s-1.5 5 -3.5 7l-139 206l139 206c2.66699 4.66699 4 9.33398 4 14.001c0 6.66699 -2.5 12.334 -7.5 17.001s-10.5 7 -16.5 7
c-8.66699 0 -15.334 -3.33301 -20.001 -10z" />
    <glyph glyph-name="ccedilla" unicode="&#xe7;" horiz-adv-x="366" 
d="M284 244c22 20 33 44.334 33 73.001v74c0 26.667 -10.333 49.334 -31 68.001c-21.333 19.333 -45.333 29 -72 29h-48c-22 0 -41.333 -6 -58 -18s-28.334 -28.333 -35.001 -49c-0.666992 -2 -1 -4.66699 -1 -8c0 -7.33301 2.5 -13.166 7.5 -17.499s10.833 -6.5 17.5 -6.5
c10.667 0 18 5.66699 22 17c3.33301 10 9.33301 18 18 24s18.334 9 29.001 9h48c14 0 26.667 -4.83301 38 -14.5s17 -20.834 17 -33.501v-74c0 -13.333 -5.66699 -24.666 -17 -33.999s-24 -14 -38 -14h-48c-8 0 -14.167 -2.5 -18.5 -7.5s-6.5 -10.833 -6.5 -17.5
s2.16699 -12.334 6.5 -17.001s10.5 -7 18.5 -7h48c14 0 26.667 -5 38 -15s17 -21.333 17 -34v-73c0 -13.333 -5.66699 -24.833 -17 -34.5s-24 -14.5 -38 -14.5h-73c-10.667 0 -20.334 3 -29.001 9c-8 6 -14 14.333 -18 25c-3.33301 11.333 -10.666 17 -21.999 17
c-6.66699 0 -12.5 -2.33301 -17.5 -7s-7.5 -10.334 -7.5 -17.001c0 -4 0.333008 -7 1 -9c6.66699 -20 18.667 -36.167 36 -48.5s36.333 -18.5 57 -18.5h73c14 0 27.167 2.66699 39.5 8s23.333 12.5 33 21.5s17.167 19.333 22.5 31s8 24.167 8 37.5v73
c0 29.333 -11 53.666 -33 72.999z" />
    <glyph glyph-name="egrave" unicode="&#xe8;" 
d="M342 24l0.000976562 439.998c0 8 -2.5 14 -7.5 18s-10.833 6 -17.5 6s-12.334 -2.16699 -17.001 -6.5s-7 -10.166 -7 -17.499v-415h-147c-13.333 0 -24.666 4.66699 -33.999 14s-14 21 -14 35v366c0 8 -2.5 14 -7.5 18s-10.833 6 -17.5 6s-12.334 -2.16699 -17.001 -6.5
s-7 -10.166 -7 -17.499v-366c0 -28 9.16699 -51.333 27.5 -70s41.5 -28 69.5 -28h171c16.667 0 25 8 25 24z" />
    <glyph glyph-name="eacute" unicode="&#xe9;" 
d="M244 635c7.33301 0 13.168 2.33301 17.501 7s6.5 10.334 6.5 17.001c0 16.667 -8 25 -24 25h-97c-8 0 -14 -2.5 -18 -7.5s-6 -10.833 -6 -17.5s2.16699 -12.334 6.5 -17.001s10.166 -7 17.499 -7h97zM342.002 24l0.00195312 439.998c0 8 -2.5 14 -7.5 18
s-10.833 6 -17.5 6s-12.334 -2.16699 -17.001 -6.5s-7 -10.166 -7 -17.499v-415h-146c-14 0 -25.667 4.66699 -35 14s-14 21 -14 35v366c0 8 -2.5 14 -7.5 18s-10.833 6 -17.5 6s-12.334 -2.16699 -17.001 -6.5s-7 -10.166 -7 -17.499v-366c0 -13.333 2.5 -25.833 7.5 -37.5
s12 -22 21 -31s19.333 -16.167 31 -21.5s24.5 -8 38.5 -8h170c16.667 0 25 8 25 24z" />
    <glyph glyph-name="ecircumflex" unicode="&#xea;" 
d="M185 280l150.998 164.996c4.66699 4.66699 7 10.334 7 17.001s-2.5 12.5 -7.5 17.5s-10.833 7.5 -17.5 7.5c-5.33301 0 -11.333 -2.66699 -18 -8l-202 -223v208c0 8 -2.5 14 -7.5 18s-10.5 6 -16.5 6c-16.667 0 -25 -8 -25 -24v-440c0 -7.33301 2.5 -13.166 7.5 -17.499
s10.833 -6.5 17.5 -6.5s12.334 2 17.001 6s7 10 7 18v159l53 59l146 -231c4.66699 -7.33301 11.334 -11 20.001 -11c6.66699 0 12.5 2.33301 17.5 7s7.5 10.334 7.5 17.001c0 4.66699 -1.33301 9.33398 -4 14.001z" />
    <glyph glyph-name="edieresis" unicode="&#xeb;" 
d="M342 24l-0.000976562 439.998c0 16 -8.33301 24 -25 24h-146c-13.333 0 -21.333 -6.33301 -24 -19l-98 -439v-6c0 -7.33301 2.5 -13.166 7.5 -17.499s10.833 -6.5 17.5 -6.5c12.667 0 20.334 6.33301 23.001 19l93 420h103v-415c0 -7.33301 2.5 -13.166 7.5 -17.499
s10.5 -6.5 16.5 -6.5c16.667 0 25 8 25 24z" />
    <glyph glyph-name="igrave" unicode="&#xec;" horiz-adv-x="439" 
d="M391 24l-0.00195312 439.998c0 7.33301 -2.5 13.333 -7.5 18s-10.5 7 -16.5 7c-8.66699 0 -15.667 -3.66699 -21 -11l-126 -189l-126 189c-5.33301 7.33301 -12 11 -20 11c-16.667 0 -25 -8.33301 -25 -25v-440c0 -7.33301 2.33301 -13.166 7 -17.499
s10.334 -6.5 17.001 -6.5c16.667 0 25 8 25 24v359l101 -153c6 -9.33301 13 -14 21 -14c7.33301 0 14 4.66699 20 14l102 153v-359c0 -7.33301 2.33301 -13.166 7 -17.499s10.334 -6.5 17.001 -6.5c16.667 0 25 8 25 24z" />
    <glyph glyph-name="iacute" unicode="&#xed;" 
d="M293 269l-194.999 -0.00390625v195c0 8 -2.5 14 -7.5 18s-10.833 6 -17.5 6s-12.334 -2.16699 -17.001 -6.5s-7 -10.166 -7 -17.499v-440c0 -7.33301 2.33301 -13.166 7 -17.499s10.334 -6.5 17.001 -6.5c16.667 0 25 8 25 24v196h195v-196
c0 -7.33301 2.5 -13.166 7.5 -17.499s10.5 -6.5 16.5 -6.5c16.667 0 25 8 25 24v440c0 8 -2.5 14 -7.5 18s-10.833 6 -17.5 6s-12.334 -2.16699 -17.001 -6.5s-7 -10.166 -7 -17.499v-195z" />
    <glyph glyph-name="icircumflex" unicode="&#xee;" 
d="M342 98l0.000976562 293c0 13.333 -2.5 25.833 -7.5 37.5s-12 22 -21 31s-19.333 16 -31 21s-24.5 7.5 -38.5 7.5h-98c-14 0 -26.833 -2.5 -38.5 -7.5s-21.834 -12 -30.501 -21s-15.5 -19.333 -20.5 -31s-7.5 -24.167 -7.5 -37.5v-293c0 -28 9.16699 -51.333 27.5 -70
s41.5 -28 69.5 -28h98c28 -0 51.333 9.33301 70 28s28 42 28 70zM293.001 98c0 -14 -4.66699 -25.667 -14 -35s-21 -14 -35 -14h-98c-13.333 0 -24.666 4.66699 -33.999 14s-14 21 -14 35v293c0 13.333 4.66699 24.666 14 33.999s20.666 14 33.999 14h98
c14 0 25.667 -4.66699 35 -14s14 -20.666 14 -33.999v-293z" />
    <glyph glyph-name="idieresis" unicode="&#xef;" 
d="M342 24l-0.000976562 366.997c0 13.333 -2.5 25.833 -7.5 37.5s-12 22 -21 31s-19.333 16 -31 21s-24.5 7.5 -38.5 7.5h-171c-16 0 -24 -8 -24 -24v-440c0 -7.33301 2.33301 -13.166 7 -17.499s10.334 -6.5 17.001 -6.5c16.667 0 25 8 25 24v415h146
c14 0 25.667 -4.66699 35 -14s14 -20.666 14 -33.999v-367c0 -7.33301 2.5 -13.166 7.5 -17.499s10.5 -6.5 16.5 -6.5c16.667 0 25 8 25 24z" />
    <glyph glyph-name="eth" unicode="&#xf0;" 
d="M98 48v390.999h147c13.333 0 24.666 -4.66699 33.999 -14s14 -20.666 14 -33.999v-293c0 -13.333 -4.66699 -25 -14 -35s-20.666 -15 -33.999 -15h-147zM98 -0.000976562h146.999c13.333 0 25.833 2.5 37.5 7.5s22 12 31 21s16 19.333 21 31s7.5 24.5 7.5 38.5v293
c0 13.333 -2.5 25.833 -7.5 37.5s-12 22 -21 31s-19.333 16 -31 21s-24.167 7.5 -37.5 7.5h-172c-16 0 -24 -8 -24 -24v-635c0 -8 2.33301 -14 7 -18s10.334 -6 17.001 -6c16.667 0 25 8 25 24v171z" />
    <glyph glyph-name="ntilde" unicode="&#xf1;" 
d="M317 0c8 0 14.168 2.50098 18.501 7.50098s6.5 10.5 6.5 16.5c0 16.667 -8.33301 25 -25 25h-171c-13.333 0 -24.666 4.66699 -33.999 14s-14 21 -14 35v293c0 13.333 4.66699 24.666 14 33.999s20.666 14 33.999 14h171c8 0 14.167 2.5 18.5 7.5s6.5 10.833 6.5 17.5
c0 16 -8.33301 24 -25 24h-171c-14 0 -26.833 -2.5 -38.5 -7.5s-21.834 -12 -30.501 -21s-15.5 -19.333 -20.5 -31s-7.5 -24.167 -7.5 -37.5v-293c0 -28 9.16699 -51.333 27.5 -70s41.5 -28 69.5 -28h171z" />
    <glyph glyph-name="ograve" unicode="&#xf2;" horiz-adv-x="537" 
d="M244 439l-0.000976562 -415.004c0 -7.33301 2.5 -13.166 7.5 -17.499s10.833 -6.5 17.5 -6.5s12.334 2 17.001 6s7 10 7 18v415h98c13.333 0 24.666 -4.66699 33.999 -14s14 -20.666 14 -33.999v-367c0 -7.33301 2.5 -13.166 7.5 -17.499s10.833 -6.5 17.5 -6.5
c16 0 24 8 24 24v367c0 13.333 -2.5 25.833 -7.5 37.5s-12 22 -21 31s-19.333 16 -31 21s-24.167 7.5 -37.5 7.5h-318c-16 0 -24 -8 -24 -24v-440c0 -7.33301 2.33301 -13.166 7 -17.499s10.334 -6.5 17.001 -6.5c16.667 0 25 8 25 24v415h146z" />
    <glyph glyph-name="oacute" unicode="&#xf3;" 
d="M293 0l0.000976562 -97c0 -14 -4.66699 -25.667 -14 -35s-20.666 -14 -33.999 -14h-147c-8 0 -14.167 -2.5 -18.5 -7.5s-6.5 -10.5 -6.5 -16.5c0 -16.667 8.33301 -25 25 -25h147c13.333 0 25.833 2.66699 37.5 8s22 12.5 31 21.5s16 19.333 21 31s7.5 24.167 7.5 37.5
v561c0 8 -2.5 14.167 -7.5 18.5s-10.833 6.5 -17.5 6.5s-12.334 -2.16699 -17.001 -6.5s-7 -10.5 -7 -18.5v-415h-146c-14 0 -25.667 4.83301 -35 14.5s-14 21.167 -14 34.5v366c0 8 -2.5 14.167 -7.5 18.5s-10.833 6.5 -17.5 6.5s-12.334 -2.16699 -17.001 -6.5
s-7 -10.5 -7 -18.5v-366c0 -13.333 2.5 -25.833 7.5 -37.5s12 -22 21 -31s19.333 -16.167 31 -21.5s24.5 -8 38.5 -8h146z" />
    <glyph glyph-name="ocircumflex" unicode="&#xf4;" horiz-adv-x="537" 
d="M293 440h49c13.333 0 25.833 -2.5 37.5 -7.5s22 -12 31 -21s16 -19.333 21 -31s7.5 -24.5 7.5 -38.5v-195c0 -14 -2.5 -26.833 -7.5 -38.5s-12 -22 -21 -31s-19.333 -16 -31 -21s-24.167 -7.5 -37.5 -7.5h-49v391zM244 49h-49c-28 0 -51.167 9.33301 -69.5 28
s-27.5 42 -27.5 70v195c0 28 9.16699 51.333 27.5 70s41.5 28 69.5 28h49v-391zM244 0l-0.000976562 -170.001c0 -8 2.5 -14.167 7.5 -18.5s10.833 -6.5 17.5 -6.5s12.334 2 17.001 6s7 10.333 7 19v170h49c40.667 0 75 14.333 103 43c28.667 28.667 43 63.334 43 104.001
v195c0 40.667 -14.333 75.334 -43 104.001c-28 28.667 -62.333 43 -103 43h-49v73c0 8 -2.5 14 -7.5 18s-10.5 6 -16.5 6c-16.667 0 -25 -8 -25 -24v-73h-49c-40.667 0 -75.334 -14.333 -104.001 -43c-28 -29.333 -42 -64 -42 -104v-195c0 -40.667 14 -75.334 42 -104.001
c28.667 -28.667 63.334 -43 104.001 -43h49z" />
    <glyph glyph-name="otilde" unicode="&#xf5;" 
d="M223 245l115.999 207.001c2 4 3 8 3 12c0 7.33301 -2.5 13.166 -7.5 17.499s-10.833 6.5 -17.5 6.5c-4 0 -8 -1 -12 -3s-7 -5 -9 -9l-101 -182l-100 183c-5.33301 8 -12.333 12 -21 12c-6.66699 0 -12.667 -2.16699 -18 -6.5s-8 -9.83301 -8 -16.5
c0 -5.33301 1.33301 -9.66602 4 -12.999l115 -209l-115 -208c-2.66699 -3.33301 -4 -7.33301 -4 -12c0 -6.66699 2.66699 -12.334 8 -17.001s11.333 -7 18 -7c9.33301 -0 16.333 4.33301 21 13l100 181l101 -181c4.66699 -8.66699 11.334 -13 20.001 -13
c7.33301 -0 13.5 2.33301 18.5 7s7.5 10 7.5 16c0 4.66699 -1 9 -3 13z" />
    <glyph glyph-name="odieresis" unicode="&#xf6;" horiz-adv-x="439" 
d="M293 48l-147 -0.00195312c-13.333 0 -24.666 4.83301 -33.999 14.5s-14 21.167 -14 34.5v367c0 8 -2.5 14 -7.5 18s-10.833 6 -17.5 6s-12.334 -2.16699 -17.001 -6.5s-7 -10.166 -7 -17.499v-367c0 -28 9.16699 -51.167 27.5 -69.5s41.5 -27.5 69.5 -27.5h196v-73
c0 -8 2.5 -14.167 7.5 -18.5s10.833 -6.5 17.5 -6.5s12.334 2.16699 17.001 6.5s7 10.5 7 18.5v97c0 16 -8 24 -24 24h-25v416c0 8 -2.33301 14 -7 18s-10.334 6 -17.001 6s-12.5 -2.16699 -17.5 -6.5s-7.5 -10.166 -7.5 -17.499v-416z" />
    <glyph glyph-name="divide" unicode="&#xf7;" 
d="M293 269l-146.999 -0.00195312c-13.333 0 -24.666 4.66699 -33.999 14s-14 20.666 -14 33.999v147c0 8 -2.5 14 -7.5 18s-10.833 6 -17.5 6s-12.334 -2.16699 -17.001 -6.5s-7 -10.166 -7 -17.499v-147c0 -28 9.16699 -51.167 27.5 -69.5s41.5 -27.5 69.5 -27.5h147v-196
c0 -7.33301 2.5 -13.166 7.5 -17.499s10.5 -6.5 16.5 -6.5c16.667 0 25 8 25 24v440c0 8 -2.5 14 -7.5 18s-10.833 6 -17.5 6s-12.334 -2.16699 -17.001 -6.5s-7 -10.166 -7 -17.499v-195z" />
    <glyph glyph-name="oslash" unicode="&#xf8;" horiz-adv-x="537" 
d="M293 49l0.000976562 414.998c0 8 -2.5 14 -7.5 18s-10.5 6 -16.5 6c-16.667 0 -25 -8 -25 -24v-415h-98c-13.333 0 -24.666 4.66699 -33.999 14s-14 21 -14 35v366c0 8 -2.5 14 -7.5 18s-10.833 6 -17.5 6s-12.334 -2.16699 -17.001 -6.5s-7 -10.166 -7 -17.499v-366
c0 -28 9.16699 -51.333 27.5 -70s41.5 -28 69.5 -28h318c16 0 24 8 24 24v440c0 8 -2.33301 14 -7 18s-10.334 6 -17.001 6s-12.5 -2.16699 -17.5 -6.5s-7.5 -10.166 -7.5 -17.499v-415h-146z" />
    <glyph glyph-name="ugrave" unicode="&#xf9;" horiz-adv-x="586" 
d="M244 49l-98 -0.000976562c-13.333 0 -24.666 4.66699 -33.999 14s-14 21 -14 35v366c0 8 -2.5 14.167 -7.5 18.5s-10.833 6.5 -17.5 6.5s-12.334 -2.16699 -17.001 -6.5s-7 -10.5 -7 -18.5v-366c0 -28 9.16699 -51.333 27.5 -70s41.5 -28 69.5 -28h343v-73
c0 -7.33301 2.33301 -13.166 7 -17.499s10.334 -6.5 17.001 -6.5c16.667 0 25 8 25 24v97c0 16.667 -8.33301 25 -25 25h-24v415c0 8 -2.5 14.167 -7.5 18.5s-10.833 6.5 -17.5 6.5s-12.334 -2.16699 -17.001 -6.5s-7 -10.5 -7 -18.5v-415h-147v415
c0 8 -2.5 14.167 -7.5 18.5s-10.5 6.5 -16.5 6.5c-16.667 0 -25 -8.33301 -25 -25v-415z" />
    <glyph glyph-name="uacute" unicode="&#xfa;" horiz-adv-x="488" 
d="M195 220h147c13.333 0 24.833 -4.83301 34.5 -14.5s14.5 -21.167 14.5 -34.5v-73c0 -14 -4.83301 -25.667 -14.5 -35s-21.167 -14 -34.5 -14h-147v171zM195 269v195.001c0 16 -8 24 -24 24h-98c-7.33301 0 -13.166 -2.33301 -17.499 -7s-6.5 -10.334 -6.5 -17.001
s2.16699 -12.5 6.5 -17.5s10.166 -7.5 17.499 -7.5h73v-415c0 -16 8.33301 -24 25 -24h171c28 -0 51.167 9.33301 69.5 28s27.5 42 27.5 70v73c0 13.333 -2.5 25.833 -7.5 37.5s-12 22 -21 31s-19.333 16.167 -31 21.5s-24.167 8 -37.5 8h-147z" />
    <glyph glyph-name="ucircumflex" unicode="&#xfb;" horiz-adv-x="439" 
d="M391 24v439.998c0 8 -2.5 14 -7.5 18s-10.833 6 -17.5 6s-12.334 -2.16699 -17.001 -6.5s-7 -10.166 -7 -17.499v-440c0 -7.33301 2.33301 -13.166 7 -17.499s10.334 -6.5 17.001 -6.5c16.667 0 25 8 25 24zM98 219.998h97c14 0 25.667 -4.83301 35 -14.5
s14 -21.167 14 -34.5v-73c0 -14 -4.66699 -25.667 -14 -35s-21 -14 -35 -14h-97v171zM98 268.998l0.000976562 194.999c0 8 -2.5 14 -7.5 18s-10.833 6 -17.5 6s-12.334 -2.16699 -17.001 -6.5s-7 -10.166 -7 -17.499v-440c0 -16 8 -24 24 -24h122
c28 0 51.333 9.33301 70 28s28 42 28 70v73c0 13.333 -2.5 25.833 -7.5 37.5s-12 22 -21 31s-19.333 16.167 -31 21.5s-24.5 8 -38.5 8h-97z" />
    <glyph glyph-name="udieresis" unicode="&#xfc;" 
d="M98 220h146c14 0 25.667 -4.83301 35 -14.5s14 -21.167 14 -34.5v-73c0 -14 -4.66699 -25.667 -14 -35s-21 -14 -35 -14h-146v171zM98 269l0.000976562 194.999c0 8 -2.5 14 -7.5 18s-10.833 6 -17.5 6s-12.334 -2.16699 -17.001 -6.5s-7 -10.166 -7 -17.499v-440
c0 -16 8 -24 24 -24h171c28 -0 51.333 9.33301 70 28s28 42 28 70v73c0 13.333 -2.5 25.833 -7.5 37.5s-12 22 -21 31s-19.333 16.167 -31 21.5s-24.5 8 -38.5 8h-146z" />
    <glyph glyph-name="yacute" unicode="&#xfd;" 
d="M293 220v-121.998c0 -14 -4.66699 -25.667 -14 -35s-21 -14 -35 -14h-171c-7.33301 0 -13.166 -2.5 -17.499 -7.5s-6.5 -10.833 -6.5 -17.5s2.16699 -12.334 6.5 -17.001s10.166 -7 17.499 -7h171c28 0 51.333 9.33301 70 28s28 42 28 70v293
c0 13.333 -2.5 25.833 -7.5 37.5s-12 22 -21 31s-19.333 16 -31 21s-24.5 7.5 -38.5 7.5h-171c-7.33301 0 -13.166 -2.33301 -17.499 -7s-6.5 -10.334 -6.5 -17.001s2.16699 -12.5 6.5 -17.5s10.166 -7.5 17.499 -7.5h171c14 0 25.667 -4.66699 35 -14
s14 -20.666 14 -33.999v-122h-98c-7.33301 0 -13.166 -2.5 -17.499 -7.5s-6.5 -10.833 -6.5 -17.5s2.16699 -12.334 6.5 -17.001s10.166 -7 17.499 -7h98z" />
    <glyph glyph-name="thorn" unicode="&#xfe;" horiz-adv-x="439" 
d="M342 98c0 -14 -4.83301 -25.667 -14.5 -35s-21.167 -14 -34.5 -14h-49c-13.333 0 -24.833 4.66699 -34.5 14s-14.5 21 -14.5 35v293c0 13.333 4.83301 24.666 14.5 33.999s21.167 14 34.5 14h49c13.333 0 24.833 -4.66699 34.5 -14s14.5 -20.666 14.5 -33.999v-293z
M98 269v194.998c0 8 -2.5 14 -7.5 18s-10.833 6 -17.5 6s-12.334 -2.16699 -17.001 -6.5s-7 -10.166 -7 -17.499v-440c0 -7.33301 2.33301 -13.166 7 -17.499s10.334 -6.5 17.001 -6.5c16.667 0 25 8 25 24v196h48v-122c0 -28 9.33301 -51.333 28 -70s42 -28 70 -28h49
c13.333 0 25.833 2.5 37.5 7.5s22 12 31 21s16.167 19.333 21.5 31s8 24.5 8 38.5v293c0 13.333 -2.66699 25.833 -8 37.5s-12.5 22 -21.5 31s-19.333 16 -31 21s-24.167 7.5 -37.5 7.5h-49c-14 0 -26.833 -2.5 -38.5 -7.5s-22 -12 -31 -21s-16 -19.333 -21 -31
s-7.5 -24.167 -7.5 -37.5v-122h-48z" />
    <glyph glyph-name="ydieresis" unicode="&#xff;" 
d="M342 24l0.000976562 440c0 16 -8.33301 24 -25 24h-171c-14 0 -26.833 -2.5 -38.5 -7.5s-21.834 -12 -30.501 -21s-15.5 -19.333 -20.5 -31s-7.5 -24.167 -7.5 -37.5v-74c0 -28 9.16699 -51.167 27.5 -69.5s41.5 -27.5 69.5 -27.5h8l-102 -184
c-2.66699 -3.33301 -4 -7.33301 -4 -12c0 -6.66699 2.66699 -12.334 8 -17.001s11.333 -7 18 -7c9.33301 0 16.333 4.33301 21 13l114 207h84v-196c0 -7.33301 2.5 -13.166 7.5 -17.499s10.5 -6.5 16.5 -6.5c16.667 0 25 8 25 24zM293.001 269l-147 0.00195312
c-13.333 0 -24.666 4.66699 -33.999 14s-14 20.666 -14 33.999v74c0 13.333 4.66699 24.666 14 33.999s20.666 14 33.999 14h147v-170z" />
    <glyph glyph-name="afii10023" unicode="&#x401;" 
d="M98 341l122 -0.00195312c8 0 14.167 2.5 18.5 7.5s6.5 10.833 6.5 17.5s-2.16699 12.334 -6.5 17.001s-10.5 7 -18.5 7h-122v245h220c8 0 14 2.33301 18 7s6 10.334 6 17.001c0 16.667 -8 25 -24 25h-244c-16.667 0 -25 -8.33301 -25 -25v-635c0 -16 8.33301 -24 25 -24
h244c8 0 14 2.5 18 7.5s6 10.5 6 16.5c0 16.667 -8 25 -24 25h-220v292zM98 804.998c0 -7.33301 2.5 -13.5 7.5 -18.5s11.167 -7.5 18.5 -7.5c6.66699 0 12.5 2.5 17.5 7.5s7.5 11.167 7.5 18.5c0 6.66699 -2.5 12.5 -7.5 17.5s-10.833 7.5 -17.5 7.5
c-7.33301 0 -13.5 -2.5 -18.5 -7.5s-7.5 -10.833 -7.5 -17.5zM242 804.998c0 -7.33301 2.5 -13.5 7.5 -18.5s11.167 -7.5 18.5 -7.5c6.66699 0 12.5 2.5 17.5 7.5s7.5 11.167 7.5 18.5c0 6.66699 -2.5 12.5 -7.5 17.5s-10.833 7.5 -17.5 7.5
c-7.33301 0 -13.5 -2.5 -18.5 -7.5s-7.5 -10.833 -7.5 -17.5z" />
    <glyph glyph-name="FL0405h" unicode="&#x405;" horiz-adv-x="439" 
d="M380 649c-35.333 23.333 -72.332 34.998 -110.999 34.998h-72c-43.333 0 -79 -15.333 -107 -46c-26.667 -27.333 -40 -61 -40 -101s14.333 -74.333 43 -103l219 -218c10 -9.33301 17.167 -20 21.5 -32s6.5 -24.333 6.5 -37c0 -13.333 -2.5 -25.833 -7.5 -37.5
s-11.833 -22 -20.5 -31s-19 -16.167 -31 -21.5s-25 -8 -39 -8h-71c-30.667 0 -58.667 8.66699 -84 26c-4.66699 2.66699 -9.33398 4 -14.001 4c-6.66699 0 -12.334 -2.5 -17.001 -7.5s-7 -10.833 -7 -17.5c0 -8 3.66699 -14.333 11 -19c33.333 -23.333 70.333 -35 111 -35
h71c43.333 0 79 15 107 45c26.667 28.667 40 62.334 40 101.001c0 40.667 -14.333 75.334 -43 104.001l-218 218c-19.333 19.333 -29 42.333 -29 69s9.16699 49.667 27.5 69s41.833 29 70.5 29h72c30.667 0 58.667 -9 84 -27c4.66699 -2.66699 9.33398 -4 14.001 -4
c6.66699 0 12.5 2.66699 17.5 8s7.5 11 7.5 17c0 9.33301 -4 16 -12 20z" />
    <glyph glyph-name="FL0406h" unicode="&#x406;" horiz-adv-x="146" 
d="M98 24v634.999c0 8 -2.5 14.167 -7.5 18.5s-10.833 6.5 -17.5 6.5s-12.334 -2.33301 -17.001 -7s-7 -10.667 -7 -18v-635c0 -7.33301 2.33301 -13.166 7 -17.499s10.334 -6.5 17.001 -6.5c16.667 0 25 8 25 24z" />
    <glyph glyph-name="FL0408h" unicode="&#x408;" horiz-adv-x="342" 
d="M293 146v513c0 8 -2.5 14.167 -7.5 18.5s-10.5 6.5 -16.5 6.5c-16.667 0 -25 -8.33301 -25 -25v-513c0 -13.333 -2.5 -25.833 -7.5 -37.5s-12 -22 -21 -31s-19.333 -16 -31 -21s-24.5 -7.5 -38.5 -7.5h-73c-7.33301 0 -13.166 -2.5 -17.499 -7.5s-6.5 -10.833 -6.5 -17.5
s2.16699 -12.334 6.5 -17.001s10.166 -7 17.499 -7h73c41.333 0 76 14 104 42c28.667 28.667 43 63.334 43 104.001z" />
    <glyph glyph-name="afii10017" unicode="&#x410;" horiz-adv-x="488" 
d="M144 196h198.999l48 -177c2.66699 -12.667 10.334 -19 23.001 -19c6 -0 11.5 2.33301 16.5 7s7.5 10.334 7.5 17.001v7l-171 630c-4 14.667 -12 22 -24 22c-11.333 0 -19 -7.33301 -23 -22l-171 -630c-0.666992 -2 -1 -4.33301 -1 -7c0 -6.66699 2.5 -12.334 7.5 -17.001
s10.833 -7 17.5 -7c11.333 -0 19 6.33301 23 19zM329.999 245h-173l86 321z" />
    <glyph glyph-name="afii10018" unicode="&#x411;" horiz-adv-x="439" 
d="M98 49v292h146c28 0 51.333 -9.16699 70 -27.5s28 -41.5 28 -69.5v-98c0 -28 -9.33301 -51.167 -28 -69.5s-42 -27.5 -70 -27.5h-146zM98 390v244.999h244c8 0 14 2.33301 18 7s6 10.334 6 17.001c0 16.667 -8 25 -24 25h-269c-16 0 -24 -8.33301 -24 -25v-635
c0 -16 8 -24 24 -24h171c40.667 -0 75.334 14.333 104.001 43s43 63 43 103v98c0 40.667 -14.333 75 -43 103c-28.667 28.667 -63.334 43 -104.001 43h-146z" />
    <glyph glyph-name="afii10019" unicode="&#x412;" horiz-adv-x="439" 
d="M98 390v245h122c13.333 0 25.833 -2.5 37.5 -7.5s22 -12 31 -21s16 -19.333 21 -31s7.5 -24.5 7.5 -38.5v-49c0 -13.333 -2.5 -25.833 -7.5 -37.5s-12 -22 -21 -31s-19.333 -16.167 -31 -21.5s-24.167 -8 -37.5 -8h-122zM98 49v292h146c28 0 51.333 -9.16699 70 -27.5
s28 -41.5 28 -69.5v-98c0 -28 -9.33301 -51.167 -28 -69.5s-42 -27.5 -70 -27.5h-146zM73 0l170.999 -0.00195312c38 0 71.667 14.333 101 43c30.667 28.667 46 63 46 103v98c0 28 -7.16699 53.667 -21.5 77s-33.5 41 -57.5 53c16.667 14.667 29.834 31.834 39.501 51.501
s14.5 40.5 14.5 62.5v49c0 40.667 -14.333 75.334 -43 104.001c-28 28.667 -62.333 43 -103 43h-147c-16 0 -24 -8.33301 -24 -25v-635c0 -16 8 -24 24 -24z" />
    <glyph glyph-name="afii10020" unicode="&#x413;" 
d="M317 635c8 0 14.166 2.33105 18.499 6.99805s6.5 10.334 6.5 17.001c0 16.667 -8.33301 25 -25 25h-244c-16 0 -24 -8.33301 -24 -25v-635c0 -7.33301 2.33301 -13.166 7 -17.499s10.334 -6.5 17.001 -6.5c16.667 0 25 8 25 24v611h219z" />
    <glyph glyph-name="afii10021" unicode="&#x414;" horiz-adv-x="488" 
d="M415 49h-24.002v611c0 16 -8 24 -24 24h-196c-16.667 0 -25 -7.33301 -25 -22l-47 -613h-26c-16 0 -24 -8.33301 -24 -25v-48c0 -8 2.33301 -14 7 -18s10.334 -6 17.001 -6c16.667 0 25 8 25 24v24h293v-24c0 -8 2.33301 -14 7 -18s10.334 -6 17.001 -6c16 0 24 8 24 24
v48c0 16.667 -8 25 -24 25zM147.998 49l45 586h149v-586h-194z" />
    <glyph glyph-name="afii10022" unicode="&#x415;" 
d="M98 341l122 -0.00195312c8 0 14.167 2.5 18.5 7.5s6.5 10.833 6.5 17.5s-2.16699 12.334 -6.5 17.001s-10.5 7 -18.5 7h-122v245h220c8 0 14 2.33301 18 7s6 10.334 6 17.001c0 16.667 -8 25 -24 25h-244c-16.667 0 -25 -8.33301 -25 -25v-635c0 -16 8.33301 -24 25 -24
h244c8 0 14 2.5 18 7.5s6 10.5 6 16.5c0 16.667 -8 25 -24 25h-220v292z" />
    <glyph glyph-name="afii10024" unicode="&#x416;" horiz-adv-x="537" 
d="M292 394l-0.000976562 265c0 8 -2.33301 14.167 -7 18.5s-10.334 6.5 -17.001 6.5s-12.5 -2.16699 -17.5 -6.5s-7.5 -10.5 -7.5 -18.5v-263l-149 275c-4.66699 8.66699 -11.334 13 -20.001 13c-7.33301 0 -13.5 -2.33301 -18.5 -7s-7.5 -10.334 -7.5 -17.001
c0 -4 1 -8.33301 3 -13l153 -282l-153 -330c-2 -4 -3 -8 -3 -12c0 -6.66699 2.5 -12.167 7.5 -16.5s10.833 -6.5 17.5 -6.5c10.667 0 18 4.66699 22 14l148 319v-309c0 -7.33301 2.5 -13.166 7.5 -17.499s10.833 -6.5 17.5 -6.5s12.334 2 17.001 6s7 10 7 18v311l149 -321
c4.66699 -10 12.334 -15 23.001 -15c6.66699 0 12.334 2.16699 17.001 6.5s7 9.83301 7 16.5c0 3.33301 -1 7.66602 -3 12.999l-153 330l153 282c2 4.66699 3 9 3 13c0 6.66699 -2.5 12.334 -7.5 17.001s-10.833 7 -17.5 7c-9.33301 0 -16.333 -4.33301 -21 -13z" />
    <glyph glyph-name="afii10025" unicode="&#x417;" horiz-adv-x="439" 
d="M322 366c20.667 13.333 36.832 30.8291 48.499 52.4961s17.5 44.834 17.5 69.501v49c0 41.333 -14.333 76 -43 104c-28.667 28.667 -63.334 43 -104.001 43h-34c-28.667 0 -55.167 -8 -79.5 -24s-42.5 -37.333 -54.5 -64c-1.33301 -5.33301 -2 -8.66602 -2 -9.99902
c0 -7.33301 2.5 -13.166 7.5 -17.499s10.833 -6.5 17.5 -6.5c9.33301 0 16.666 5 21.999 15c8 17.333 20 31.333 36 42s33.667 16 53 16h34c14 0 26.833 -2.66699 38.5 -8s22 -12.5 31 -21.5s16 -19.333 21 -31s7.5 -24.167 7.5 -37.5v-49
c0 -13.333 -2.5 -25.833 -7.5 -37.5s-12 -22 -21 -31s-19.333 -16.167 -31 -21.5s-24.5 -8 -38.5 -8h-73c-7.33301 0 -13.166 -2.5 -17.499 -7.5s-6.5 -10.5 -6.5 -16.5c0 -16.667 8 -25 24 -25h73c28 0 51.333 -9.16699 70 -27.5s28 -41.5 28 -69.5v-98
c0 -28 -9.33301 -51.167 -28 -69.5s-42 -27.5 -70 -27.5h-49c-22.667 0 -43 7.5 -61 22.5s-29.333 33.833 -34 56.5c-3.33301 13.333 -11 20 -23 20c-6.66699 0 -12.5 -2.16699 -17.5 -6.5s-7.5 -10.166 -7.5 -17.499v-6c4 -17.333 10.333 -33.166 19 -47.499
s19.334 -26.666 32.001 -36.999s26.834 -18.5 42.501 -24.5s32.167 -9 49.5 -9h49c40.667 0 75.334 14.333 104.001 43s43 63 43 103v98c0 25.333 -5.83301 48.666 -17.5 69.999s-27.834 38.666 -48.501 51.999z" />
    <glyph glyph-name="afii10026" unicode="&#x418;" horiz-adv-x="439" 
d="M391 29v634.998c0 8.66699 -2.16699 15.5 -6.5 20.5s-9.5 7.5 -15.5 7.5c-10 0 -18 -6 -24 -18l-247 -534v524c0 8 -2.5 14 -7.5 18s-10.833 6 -17.5 6s-12.334 -2.16699 -17.001 -6.5s-7 -10.166 -7 -17.499v-635c0 -8 2.16699 -14.667 6.5 -20s9.5 -8 15.5 -8
c10 0 18 6 24 18l247 534v-524c0 -7.33301 2.5 -13.166 7.5 -17.499s10.833 -6.5 17.5 -6.5s12.334 2 17.001 6s7 10 7 18z" />
    <glyph glyph-name="afii10027" unicode="&#x419;" horiz-adv-x="439" 
d="M269 732c8 0 14 2.50098 18 7.50098s6 10.833 6 17.5c0 16 -8 24 -24 24h-98c-8 0 -14.167 -2.33301 -18.5 -7s-6.5 -10.334 -6.5 -17.001s2.33301 -12.5 7 -17.5s10.667 -7.5 18 -7.5h98zM391 24.001v635.999c0 8 -2.33301 14.667 -7 20s-10 8 -16 8
c-10 0 -18 -6 -24 -18l-246 -535v525c0 7.33301 -2.5 13.166 -7.5 17.499s-10.833 6.5 -17.5 6.5s-12.334 -2.16699 -17.001 -6.5s-7 -10.166 -7 -17.499v-636c0 -8 2.16699 -14.5 6.5 -19.5s9.5 -7.5 15.5 -7.5c10 0 18 5.66699 24 17l247 535v-525
c0 -7.33301 2.33301 -13.166 7 -17.499s10.334 -6.5 17.001 -6.5c16.667 0 25 8 25 24z" />
    <glyph glyph-name="afii10028" unicode="&#x41a;" horiz-adv-x="439" 
d="M98 261l81 108.999l166 -356c3.33301 -9.33301 10.333 -14 21 -14c6 0 11.667 2.33301 17 7s8 10 8 16c0 2.66699 -0.666992 6.66699 -2 12l-177 379l174 231c4 4 6 8.66699 6 14c0 6.66699 -2.66699 12.5 -8 17.5s-11.333 7.5 -18 7.5c-8 0 -14.333 -3.33301 -19 -10
l-249 -332v317c0 8 -2.5 14.167 -7.5 18.5s-10.833 6.5 -17.5 6.5s-12.334 -2.33301 -17.001 -7s-7 -10.667 -7 -18v-635c0 -7.33301 2.33301 -13.166 7 -17.499s10.334 -6.5 17.001 -6.5c16.667 0 25 8 25 24v237z" />
    <glyph glyph-name="afii10029" unicode="&#x41b;" horiz-adv-x="488" 
d="M439 24l-0.000976562 634.999c0 16.667 -8 25 -24 25h-146c-12 0 -19.667 -5.66699 -23 -17l-196 -635c-1.33301 -4 -2 -7 -2 -9c0 -6.66699 2.5 -12.167 7.5 -16.5s11.167 -6.5 18.5 -6.5c11.333 0 19 5.66699 23 17l190 618h104v-611
c0 -7.33301 2.33301 -13.166 7 -17.499s10.334 -6.5 17.001 -6.5c16 0 24 8 24 24z" />
    <glyph glyph-name="afii10030" unicode="&#x41c;" horiz-adv-x="537" 
d="M488 24v634.998c0 8.66699 -2.16699 15.667 -6.5 21s-9.5 8 -15.5 8c-9.33301 0 -17 -5.33301 -23 -16l-175 -283l-174 283c-6.66699 10.667 -14.334 16 -23.001 16c-6 0 -11.167 -2.66699 -15.5 -8s-6.5 -12.333 -6.5 -21v-635c0 -7.33301 2.33301 -13.166 7 -17.499
s10.334 -6.5 17.001 -6.5c16.667 0 25 8 25 24v548l149 -243c6 -10 13 -15 21 -15s15 5 21 15l150 244v-549c0 -7.33301 2.5 -13.166 7.5 -17.499s10.833 -6.5 17.5 -6.5c16 0 24 8 24 24z" />
    <glyph glyph-name="afii10031" unicode="&#x41d;" horiz-adv-x="439" 
d="M342 390l-244.001 -0.00195312v269c0 8 -2.5 14.167 -7.5 18.5s-10.833 6.5 -17.5 6.5s-12.334 -2.33301 -17.001 -7s-7 -10.667 -7 -18v-635c0 -7.33301 2.33301 -13.166 7 -17.499s10.334 -6.5 17.001 -6.5c16.667 0 25 8 25 24v317h244v-317
c0 -7.33301 2.5 -13.166 7.5 -17.499s10.833 -6.5 17.5 -6.5s12.334 2 17.001 6s7 10 7 18v635c0 8 -2.5 14.167 -7.5 18.5s-10.5 6.5 -16.5 6.5c-16.667 0 -25 -8.33301 -25 -25v-269z" />
    <glyph glyph-name="afii10032" unicode="&#x41e;" horiz-adv-x="439" 
d="M391 146l0.000976562 391.001c0 41.333 -14.333 76 -43 104c-28.667 28.667 -63.334 43 -104.001 43h-49c-40.667 0 -75.334 -14.333 -104.001 -43c-28 -29.333 -42 -64 -42 -104v-391c0 -40.667 14.333 -75.334 43 -104.001c28 -28 62.333 -42 103 -42h49
c40.667 -0 75.334 14.333 104.001 43s43 63 43 103zM342.001 146.001c0 -28 -9.33301 -51.167 -28 -69.5s-42 -27.5 -70 -27.5h-49c-13.333 0 -25.833 2.5 -37.5 7.5s-22 12 -31 21s-16 19.333 -21 31s-7.5 24.167 -7.5 37.5v391c0 14 2.5 26.833 7.5 38.5s12 22 21 31
s19.333 16 31 21s24.167 7.5 37.5 7.5h49c14 0 26.833 -2.66699 38.5 -8s22 -12.5 31 -21.5s16 -19.333 21 -31s7.5 -24.167 7.5 -37.5v-391z" />
    <glyph glyph-name="afii10033" unicode="&#x41f;" horiz-adv-x="439" 
d="M391 24l-0.00195312 634.998c0 16.667 -8 25 -24 25h-294c-16 0 -24 -8.33301 -24 -25v-635c0 -7.33301 2.33301 -13.166 7 -17.499s10.334 -6.5 17.001 -6.5c16.667 0 25 8 25 24v611h244v-611c0 -7.33301 2.5 -13.166 7.5 -17.499s10.833 -6.5 17.5 -6.5
s12.334 2 17.001 6s7 10 7 18z" />
    <glyph glyph-name="afii10034" unicode="&#x420;" horiz-adv-x="439" 
d="M98 342v293h146c14 0 26.833 -2.66699 38.5 -8s22 -12.5 31 -21.5s16 -19.333 21 -31s7.5 -24.167 7.5 -37.5v-98c0 -13.333 -2.5 -25.833 -7.5 -37.5s-12 -22 -21 -31s-19.333 -16 -31 -21s-24.5 -7.5 -38.5 -7.5h-146zM98 293l146 -0.00195312c40 0 74.667 14 104 42
c28.667 28.667 43 63.334 43 104.001v98c0 41.333 -14.333 76 -43 104c-28.667 28.667 -63.334 43 -104.001 43h-171c-16 0 -24 -8.33301 -24 -25v-635c0 -7.33301 2.33301 -13.166 7 -17.499s10.334 -6.5 17.001 -6.5c16.667 0 25 8 25 24v269z" />
    <glyph glyph-name="afii10035" unicode="&#x421;" 
d="M317 0c8 0 14.167 2.50098 18.5 7.50098s6.5 10.5 6.5 16.5c0 16.667 -8.33301 25 -25 25h-121c-14 0 -26.833 2.5 -38.5 7.5s-22 12 -31 21s-16 19.333 -21 31s-7.5 24.167 -7.5 37.5v391c0 28 9.33301 51.333 28 70s42 28 70 28h121c8 0 14.167 2.33301 18.5 7
s6.5 10.334 6.5 17.001c0 16.667 -8.33301 25 -25 25h-121c-40.667 0 -75.334 -14.333 -104.001 -43s-43 -63.334 -43 -104.001v-391c0 -40.667 14.333 -75.334 43 -104.001c28.667 -28 63.334 -42 104.001 -42h121z" />
    <glyph glyph-name="afii10036" unicode="&#x422;" horiz-adv-x="439" 
d="M195 635v-611.001c0 -7.33301 2.5 -13.166 7.5 -17.499s10.833 -6.5 17.5 -6.5s12.334 2 17.001 6s7 10 7 18v611h123c7.33301 0 13.166 2.33301 17.499 7s6.5 10.334 6.5 17.001c0 16.667 -8 25 -24 25h-294c-7.33301 0 -13.166 -2.5 -17.499 -7.5
s-6.5 -10.833 -6.5 -17.5s2.16699 -12.334 6.5 -17.001s10.166 -7 17.499 -7h122z" />
    <glyph glyph-name="afii10037" unicode="&#x423;" horiz-adv-x="439" 
d="M342 293l0.00195312 -146.998c0 -28 -9.33301 -51.167 -28 -69.5s-42 -27.5 -70 -27.5h-122c-8 0 -14 -2.5 -18 -7.5s-6 -10.833 -6 -17.5s2.16699 -12.334 6.5 -17.001s10.166 -7 17.499 -7h122c40.667 0 75.334 14.333 104.001 43s43 63 43 103v513
c0 8 -2.5 14.167 -7.5 18.5s-10.5 6.5 -16.5 6.5c-16.667 0 -25 -8.33301 -25 -25v-317h-147c-14 0 -26.833 2.5 -38.5 7.5s-21.834 12 -30.501 21s-15.5 19.333 -20.5 31s-7.5 24.167 -7.5 37.5v220c0 8 -2.5 14.167 -7.5 18.5s-10.833 6.5 -17.5 6.5
s-12.334 -2.33301 -17.001 -7s-7 -10.667 -7 -18v-220c0 -40.667 14.333 -75.334 43 -104.001c28.667 -28 63 -42 103 -42h147z" />
    <glyph glyph-name="afii10038" unicode="&#x424;" horiz-adv-x="635" 
d="M342 537h47.999c40.667 0 75.334 -14.333 104.001 -43s43 -63 43 -103v-49c0 -41.333 -14.333 -76.333 -43 -105c-29.333 -28 -64 -42 -104 -42h-48v342zM292.999 195l-49 -0.000976562c-40.667 0 -75.334 14.333 -104.001 43s-43 63.334 -43 104.001v49
c0 40.667 14.333 75 43 103c28.667 28.667 63.334 43 104.001 43h49v-342zM292.999 145.999l0.000976562 -122.001c0 -7.33301 2.5 -13.166 7.5 -17.499s10.5 -6.5 16.5 -6.5c16.667 0 25 8 25 24v122h48c54.667 0 101 19 139 57c38 38.667 57 85 57 139v49
c0 54.667 -19 100.667 -57 138c-38 38 -84.333 57 -139 57h-48v73c0 8 -2.5 14.167 -7.5 18.5s-10.833 6.5 -17.5 6.5s-12.334 -2.33301 -17.001 -7s-7 -10.667 -7 -18v-73h-49c-54 0 -100.333 -19 -139 -57c-38 -38 -57 -84 -57 -138v-49c0 -54.667 19 -101 57 -139
c38.667 -38 85 -57 139 -57h49z" />
    <glyph glyph-name="afii10039" unicode="&#x425;" horiz-adv-x="488" 
d="M245 394l-150 277c-5.33301 9.33301 -12 14 -20 14c-7.33301 0 -13.5 -2.33301 -18.5 -7s-7.5 -10.334 -7.5 -17.001c0 -4.66699 1 -9 3 -13l165 -306l-165 -305c-2 -5.33301 -3 -9.66602 -3 -12.999c0 -6.66699 2.5 -12.334 7.5 -17.001s10.833 -7 17.5 -7
c9.33301 0 16.333 4.33301 21 13l150 278l149 -278c4.66699 -8.66699 11.667 -13 21 -13c6.66699 0 12.5 2.33301 17.5 7s7.5 10.334 7.5 17.001c0 3.33301 -1 7.66602 -3 12.999l-165 305l165 306c2 4 3 8.33301 3 13c0 6.66699 -2.5 12.334 -7.5 17.001s-10.833 7 -17.5 7
c-8.66699 0 -15.667 -4.66699 -21 -14z" />
    <glyph glyph-name="afii10040" unicode="&#x426;" horiz-adv-x="488" 
d="M342 48h-244v611c0 8 -2.5 14.167 -7.5 18.5s-10.833 6.5 -17.5 6.5s-12.334 -2.33301 -17.001 -7s-7 -10.667 -7 -18v-635c0 -16 8 -24 24 -24h318v-73c0 -8 2.33301 -14.167 7 -18.5s10.334 -6.5 17.001 -6.5c16 0 24 8.33301 24 25v97c0 16 -8 24 -24 24h-24v611
c0 8 -2.5 14.167 -7.5 18.5s-10.5 6.5 -16.5 6.5c-16.667 0 -25 -8.33301 -25 -25v-611z" />
    <glyph glyph-name="afii10041" unicode="&#x427;" horiz-adv-x="439" 
d="M342 293l0.000976562 -269c0 -7.33301 2.5 -13.166 7.5 -17.499s10.833 -6.5 17.5 -6.5s12.334 2 17.001 6s7 10 7 18v635c0 8 -2.5 14.167 -7.5 18.5s-10.5 6.5 -16.5 6.5c-16.667 0 -25 -8.33301 -25 -25v-317h-147c-14 0 -26.833 2.5 -38.5 7.5s-21.834 12 -30.501 21
s-15.5 19.333 -20.5 31s-7.5 24.167 -7.5 37.5v220c0 8 -2.5 14.167 -7.5 18.5s-10.833 6.5 -17.5 6.5s-12.334 -2.33301 -17.001 -7s-7 -10.667 -7 -18v-220c0 -40.667 14.333 -75.334 43 -104.001c28.667 -28 63 -42 103 -42h147z" />
    <glyph glyph-name="afii10042" unicode="&#x428;" horiz-adv-x="537" 
d="M244 49h-145.996v610c0 8 -2.5 14.167 -7.5 18.5s-10.833 6.5 -17.5 6.5s-12.334 -2.33301 -17.001 -7s-7 -10.667 -7 -18v-635c0 -16 8 -24 24 -24h391c16 0 24 8 24 24v635c0 8 -2.33301 14.167 -7 18.5s-10.334 6.5 -17.001 6.5s-12.5 -2.33301 -17.5 -7
s-7.5 -10.667 -7.5 -18v-610h-147v610c0 8 -2.33301 14.167 -7 18.5s-10.334 6.5 -17.001 6.5s-12.334 -2.33301 -17.001 -7s-7 -10.667 -7 -18v-610z" />
    <glyph glyph-name="afii10043" unicode="&#x429;" horiz-adv-x="586" 
d="M440 48h-146.999v611c0 8 -2.5 14.167 -7.5 18.5s-10.5 6.5 -16.5 6.5c-16.667 0 -25 -8.33301 -25 -25v-611h-146v611c0 8 -2.5 14.167 -7.5 18.5s-10.833 6.5 -17.5 6.5s-12.334 -2.33301 -17.001 -7s-7 -10.667 -7 -18v-635c0 -16 8 -24 24 -24h415v-73
c0 -8 2.5 -14.167 7.5 -18.5s10.833 -6.5 17.5 -6.5s12.334 2.16699 17.001 6.5s7 10.5 7 18.5v97c0 16 -8 24 -24 24h-24v611c0 8 -2.5 14.167 -7.5 18.5s-10.833 6.5 -17.5 6.5s-12.334 -2.33301 -17.001 -7s-7 -10.667 -7 -18v-611z" />
    <glyph glyph-name="afii10044" unicode="&#x42a;" horiz-adv-x="537" 
d="M195 341h147c28 0 51.167 -9.16699 69.5 -27.5s27.5 -41.5 27.5 -69.5v-98c0 -13.333 -2.5 -25.833 -7.5 -37.5s-12 -22 -21 -31s-19.333 -16 -31 -21s-24.167 -7.5 -37.5 -7.5h-147v292zM195 390v269c0 16.667 -8 25 -24 25h-98c-7.33301 0 -13.166 -2.5 -17.499 -7.5
s-6.5 -10.833 -6.5 -17.5s2.16699 -12.334 6.5 -17.001s10.166 -7 17.499 -7h73v-611c0 -16 8.33301 -24 25 -24h171c40.667 0 75 14 103 42c28.667 28.667 43 63.334 43 104.001v98c0 40.667 -14.333 75 -43 103c-28.667 28.667 -63 43 -103 43h-147z" />
    <glyph glyph-name="afii10045" unicode="&#x42b;" horiz-adv-x="488" 
d="M439 24l0.000976562 634.999c0 8 -2.33301 14.167 -7 18.5s-10.334 6.5 -17.001 6.5s-12.334 -2.33301 -17.001 -7s-7 -10.667 -7 -18v-635c0 -7.33301 2.33301 -13.166 7 -17.499s10.334 -6.5 17.001 -6.5c16 0 24 8 24 24zM98.001 340.999h97
c28 0 51.333 -9.16699 70 -27.5s28 -41.5 28 -69.5v-98c0 -28 -9.33301 -51.167 -28 -69.5s-42 -27.5 -70 -27.5h-97v292zM98.001 389.999l0.000976562 269c0 8 -2.5 14.167 -7.5 18.5s-10.833 6.5 -17.5 6.5s-12.334 -2.33301 -17.001 -7s-7 -10.667 -7 -18v-635
c0 -16 8 -24 24 -24h122c40.667 0 75.334 14.333 104.001 43s43 63 43 103v98c0 40.667 -14.333 75 -43 103c-28.667 28.667 -63.334 43 -104.001 43h-97z" />
    <glyph glyph-name="afii10046" unicode="&#x42c;" horiz-adv-x="439" 
d="M98 341h146c28 0 51.333 -9.16699 70 -27.5s28 -41.5 28 -69.5v-98c0 -28 -9.33301 -51.167 -28 -69.5s-42 -27.5 -70 -27.5h-146v292zM98 390l0.000976562 269c0 8 -2.5 14.167 -7.5 18.5s-10.833 6.5 -17.5 6.5s-12.334 -2.33301 -17.001 -7s-7 -10.667 -7 -18v-635
c0 -16 8 -24 24 -24h171c40.667 -0 75.334 14.333 104.001 43s43 63 43 103v98c0 40.667 -14.333 75 -43 103c-28.667 28.667 -63.334 43 -104.001 43h-146z" />
    <glyph glyph-name="afii10047" unicode="&#x42d;" horiz-adv-x="439" 
d="M342 341v-194.998c0 -28 -9.33301 -51.167 -28 -69.5s-42 -27.5 -70 -27.5h-171c-7.33301 0 -13.166 -2.5 -17.499 -7.5s-6.5 -10.833 -6.5 -17.5s2.16699 -12.334 6.5 -17.001s10.166 -7 17.499 -7h171c40.667 0 75.334 14.333 104.001 43s43 63 43 103v391
c0 41.333 -14.333 76 -43 104c-28.667 28.667 -63.334 43 -104.001 43h-171c-7.33301 0 -13.166 -2.5 -17.499 -7.5s-6.5 -10.833 -6.5 -17.5s2.16699 -12.334 6.5 -17.001s10.166 -7 17.499 -7h171c14 0 26.833 -2.66699 38.5 -8s22 -12.5 31 -21.5s16 -19.333 21 -31
s7.5 -24.167 7.5 -37.5v-147h-171c-8 0 -14.167 -2.5 -18.5 -7.5s-6.5 -10.5 -6.5 -16.5c0 -16.667 8.33301 -25 25 -25h171z" />
    <glyph glyph-name="afii10048" unicode="&#x42e;" horiz-adv-x="488" 
d="M391 146c0 -30 -10.333 -54.333 -31 -73c-18 -16 -40.333 -24 -67 -24s-49 8 -67 24c-20.667 18 -31 42.333 -31 73v391c0 30.667 10.333 55 31 73c18 16 40.333 24 67 24s49 -8 67 -24c20.667 -18 31 -42.333 31 -73v-391zM98 390v269c0 8 -2.5 14.167 -7.5 18.5
s-10.833 6.5 -17.5 6.5s-12.334 -2.33301 -17.001 -7s-7 -10.667 -7 -18v-635c0 -7.33301 2.33301 -13.166 7 -17.499s10.334 -6.5 17.001 -6.5c16.667 0 25 8 25 24v317h48v-195c0 -46 15.333 -82.333 46 -109c27.333 -24.667 61 -37 101 -37
c40.667 0 74.334 12.333 101.001 37c30 26.667 45 63 45 109v391c0 46 -15 82.667 -45 110c-27.333 24.667 -61 37 -101 37c-40.667 0 -74.334 -12.333 -101.001 -37c-30.667 -26.667 -46 -63.334 -46 -110.001v-147h-48z" />
    <glyph glyph-name="afii10049" unicode="&#x42f;" horiz-adv-x="439" 
d="M342 342h-146.999c-14 0 -26.833 2.5 -38.5 7.5s-21.834 12 -30.501 21s-15.5 19.333 -20.5 31s-7.5 24.167 -7.5 37.5v98c0 14 2.5 26.833 7.5 38.5s12 22 21 31s19.333 16 31 21s24.167 7.5 37.5 7.5h147v-293zM245.001 293l97 -0.00292969v-269
c0 -7.33301 2.5 -13.166 7.5 -17.499s10.833 -6.5 17.5 -6.5s12.334 2 17.001 6s7 10 7 18v635c0 16.667 -8 25 -24 25h-172c-40.667 0 -75.334 -14.333 -104.001 -43c-28 -29.333 -42 -64 -42 -104v-98c0 -39.333 13.667 -73.666 41 -102.999
c26.667 -28.667 59.667 -43 99 -43l-137 -257c-2.66699 -3.33301 -4 -7.33301 -4 -12c0 -7.33301 2.66699 -13.166 8 -17.499s11.333 -6.5 18 -6.5c9.33301 -0 16.333 4.33301 21 13z" />
    <glyph glyph-name="afii10065" unicode="&#x430;" 
d="M293 98c0 -14 -4.66699 -25.666 -14 -34.999s-21 -14 -35 -14h-98c-13.333 0 -24.666 4.66699 -33.999 14s-14 21 -14 35v293c0 13.333 4.66699 24.666 14 33.999s20.666 14 33.999 14h147v-341zM375 47.001c-10 3.33301 -17.999 9.83301 -23.999 19.5s-9 20.167 -9 31.5
v366c0 16 -8.33301 24 -25 24h-171c-14 0 -26.833 -2.5 -38.5 -7.5s-21.834 -12 -30.501 -21s-15.5 -19.333 -20.5 -31s-7.5 -24.167 -7.5 -37.5v-293c0 -28 9.16699 -51.333 27.5 -70s41.5 -28 69.5 -28h98c29.333 0 53.666 11 72.999 33c7.33301 -8.66699 14 -15 20 -19
c10 -8 17.667 -12.667 23 -14c2 -0.666992 5 -1 9 -1c6.66699 0 12.334 2.5 17.001 7.5s7 10.833 7 17.5c0 11.333 -6 19 -18 23z" />
    <glyph glyph-name="afii10066" unicode="&#x431;" 
d="M293 98c0 -13.333 -4.83301 -24.833 -14.5 -34.5s-21.167 -14.5 -34.5 -14.5h-97c-14 0 -25.667 4.66699 -35 14s-14 21 -14 35v293c0 13.333 4.66699 24.666 14 33.999s21 14 35 14h97c14 0 25.667 -4.66699 35 -14s14 -20.666 14 -33.999v-293zM313 460l-180 174.999
h184c8 0 14.167 2.33301 18.5 7s6.5 10.334 6.5 17.001c0 16.667 -8.33301 25 -25 25h-244c-8.66699 0 -15.5 -2 -20.5 -6s-7.5 -9 -7.5 -15c0 -6.66699 3.66699 -13.667 11 -21l157 -154h-66c-28 0 -51.333 -9.16699 -70 -27.5s-28 -41.5 -28 -69.5v-293
c0 -13.333 2.5 -25.833 7.5 -37.5s12 -22 21 -31s19.333 -16.167 31 -21.5s24.5 -8 38.5 -8h97c14 0 26.833 2.66699 38.5 8s22 12.5 31 21.5s16 19.333 21 31s7.5 24.167 7.5 37.5v293c0 26.667 -9 49 -27 67z" />
    <glyph glyph-name="afii10067" unicode="&#x432;" 
d="M98 488l0.000976562 98c0 16 4.66699 28.167 14 36.5s20.666 12.5 33.999 12.5c14 0 25.667 -4.33301 35 -13s14 -20.667 14 -36c0 -13.333 -6 -25.333 -18 -36c-11.333 -11.333 -25.333 -23.333 -42 -36c-5.33301 -4.66699 -11 -9 -17 -13zM293.001 98
c0 -13.333 -4.83301 -24.833 -14.5 -34.5s-21.167 -14.5 -34.5 -14.5h-97c-14 0 -25.667 4.66699 -35 14s-14 21 -14 35v293c0 13.333 4.66699 24.666 14 33.999s21 14 35 14h97c14 0 25.667 -4.66699 35 -14s14 -20.666 14 -33.999v-293zM177.001 488
c3.33301 3.33301 7 6.33203 11 8.99902s8 5.66699 12 9c12 10 19.333 16.333 22 19c8.66699 10.667 14.667 21.334 18 32.001c2.66699 6 4 15.667 4 29c0 30.667 -10.333 55 -31 73c-18 16 -40.333 24 -67 24c-26 0 -48.333 -8 -67 -24c-20 -18 -30 -42.333 -30 -73v-488
c0 -13.333 2.5 -25.833 7.5 -37.5s12 -22 21 -31s19.333 -16.167 31 -21.5s24.5 -8 38.5 -8h97c14 0 26.833 2.66699 38.5 8s22 12.5 31 21.5s16 19.333 21 31s7.5 24.167 7.5 37.5v293c0 13.333 -2.5 25.833 -7.5 37.5s-12 22 -21 31s-19.333 16 -31 21
s-24.5 7.5 -38.5 7.5h-67z" />
    <glyph glyph-name="afii10068" unicode="&#x433;" 
d="M342 65c1.33301 4 2.00098 6.99902 2.00098 8.99902c0 6.66699 -2.5 12.334 -7.5 17.001s-10.833 7 -17.5 7c-10.667 0 -18 -5.33301 -22 -16c-4 -10 -11 -18 -21 -24s-20.667 -9 -32 -9h-98c-14 0 -25.5 4.83301 -34.5 14.5s-13.5 21.167 -13.5 34.5
c0 14 5 25.667 15 35l199 187c20 18.667 30 42 30 70c0 26 -9 48.667 -27 68c-19.333 20 -43 30 -71 30h-98c-20.667 0 -40.334 -6 -59.001 -18s-31.334 -27.667 -38.001 -47c-1.33301 -4 -2 -7 -2 -9c0 -6.66699 2.66699 -12.167 8 -16.5s11 -6.5 17 -6.5
c10.667 0 18 5 22 15s11.167 18 21.5 24s20.5 9 30.5 9h98c14.667 0 26.5 -4.83301 35.5 -14.5s13.5 -21.167 13.5 -34.5s-5 -25 -15 -35l-198 -187c-20.667 -18.667 -31 -42 -31 -70c0 -13.333 2.5 -25.833 7.5 -37.5s11.667 -22 20 -31s18.5 -16.167 30.5 -21.5
s25 -8 39 -8h98c21.333 0 41.333 6 60 18s31.334 27.667 38.001 47z" />
    <glyph glyph-name="afii10069" unicode="&#x434;" 
d="M293 439v-340.999c0 -13.333 -4.83301 -24.833 -14.5 -34.5s-21.167 -14.5 -34.5 -14.5h-97c-14 0 -25.667 4.66699 -35 14s-14 21 -14 35v293c0 13.333 4.66699 24.666 14 33.999s21 14 35 14h146zM293 488.001l-146 0.000976562c-28 0 -51.333 -9.16699 -70 -27.5
s-28 -41.5 -28 -69.5v-293c0 -13.333 2.5 -25.833 7.5 -37.5s12 -22 21 -31s19.333 -16.167 31 -21.5s24.5 -8 38.5 -8h97c14 0 26.833 2.66699 38.5 8s22 12.5 31 21.5s16 19.333 21 31s7.5 24.167 7.5 37.5v488c0 13.333 -2.66699 25.833 -8 37.5s-12.5 22 -21.5 31
s-19.333 16.167 -31 21.5s-24.167 8 -37.5 8h-171c-7.33301 0 -13.166 -2.5 -17.499 -7.5s-6.5 -10.833 -6.5 -17.5s2.16699 -12.334 6.5 -17.001s10.166 -7 17.499 -7h171c14 0 25.667 -4.83301 35 -14.5s14 -21.167 14 -34.5v-98z" />
    <glyph glyph-name="afii10070" unicode="&#x435;" 
d="M98 269l0.000976562 122c0 13.333 4.66699 24.666 14 33.999s20.666 14 33.999 14h98c14 0 25.667 -4.66699 35 -14s14 -20.666 14 -33.999v-122h-195zM98.001 220h219c16.667 0 25 8 25 24v147c0 13.333 -2.5 25.833 -7.5 37.5s-12 22 -21 31s-19.333 16 -31 21
s-24.5 7.5 -38.5 7.5h-98c-14 0 -26.833 -2.5 -38.5 -7.5s-21.834 -12 -30.501 -21s-15.5 -19.333 -20.5 -31s-7.5 -24.167 -7.5 -37.5v-293c0 -28 9.16699 -51.333 27.5 -70s41.5 -28 69.5 -28h171c8 0 14.167 2.5 18.5 7.5s6.5 10.5 6.5 16.5c0 16.667 -8.33301 25 -25 25
h-171c-13.333 0 -24.666 4.66699 -33.999 14s-14 21 -14 35v122z" />
    <glyph glyph-name="afii10072" unicode="&#x436;" horiz-adv-x="488" 
d="M267 287v176.997c0 8 -2.5 14 -7.5 18s-10.5 6 -16.5 6c-16.667 0 -25 -8 -25 -24v-175l-123 189c-5.33301 7.33301 -12 11 -20 11c-6.66699 0 -12.667 -2.5 -18 -7.5s-8 -10.833 -8 -17.5c0 -5.33301 1.66699 -10 5 -14l134 -206l-134 -206
c-3.33301 -5.33301 -5 -10 -5 -14c0 -6.66699 2.66699 -12.334 8 -17.001s11.333 -7 18 -7c8.66699 0 15.334 3.66699 20.001 11l123 189v-176c0 -7.33301 2.5 -13.166 7.5 -17.499s10.833 -6.5 17.5 -6.5s12.334 2 17.001 6s7 10 7 18v177l128 -190
c5.33301 -7.33301 11.666 -11 18.999 -11c6.66699 0 12.5 2.33301 17.5 7s7.5 10.334 7.5 17.001c0 2 -0.166992 4.33301 -0.5 7s-1.5 5 -3.5 7l-139 206l139 206c2.66699 4.66699 4 9.33398 4 14.001c0 6.66699 -2.5 12.334 -7.5 17.001s-10.5 7 -16.5 7
c-8.66699 0 -15.334 -3.33301 -20.001 -10z" />
    <glyph glyph-name="afii10073" unicode="&#x437;" horiz-adv-x="366" 
d="M284 244c22 20 33 44.334 33 73.001v74c0 26.667 -10.333 49.334 -31 68.001c-21.333 19.333 -45.333 29 -72 29h-48c-22 0 -41.333 -6 -58 -18s-28.334 -28.333 -35.001 -49c-0.666992 -2 -1 -4.66699 -1 -8c0 -7.33301 2.5 -13.166 7.5 -17.499s10.833 -6.5 17.5 -6.5
c10.667 0 18 5.66699 22 17c3.33301 10 9.33301 18 18 24s18.334 9 29.001 9h48c14 0 26.667 -4.83301 38 -14.5s17 -20.834 17 -33.501v-74c0 -13.333 -5.66699 -24.666 -17 -33.999s-24 -14 -38 -14h-48c-8 0 -14.167 -2.5 -18.5 -7.5s-6.5 -10.833 -6.5 -17.5
s2.16699 -12.334 6.5 -17.001s10.5 -7 18.5 -7h48c14 0 26.667 -5 38 -15s17 -21.333 17 -34v-73c0 -13.333 -5.66699 -24.833 -17 -34.5s-24 -14.5 -38 -14.5h-73c-10.667 0 -20.334 3 -29.001 9c-8 6 -14 14.333 -18 25c-3.33301 11.333 -10.666 17 -21.999 17
c-6.66699 0 -12.5 -2.33301 -17.5 -7s-7.5 -10.334 -7.5 -17.001c0 -4 0.333008 -7 1 -9c6.66699 -20 18.667 -36.167 36 -48.5s36.333 -18.5 57 -18.5h73c14 0 27.167 2.66699 39.5 8s23.333 12.5 33 21.5s17.167 19.333 22.5 31s8 24.167 8 37.5v73
c0 29.333 -11 53.666 -33 72.999z" />
    <glyph glyph-name="afii10074" unicode="&#x438;" 
d="M342 24l0.000976562 439.998c0 8 -2.5 14 -7.5 18s-10.833 6 -17.5 6s-12.334 -2.16699 -17.001 -6.5s-7 -10.166 -7 -17.499v-415h-147c-13.333 0 -24.666 4.66699 -33.999 14s-14 21 -14 35v366c0 8 -2.5 14 -7.5 18s-10.833 6 -17.5 6s-12.334 -2.16699 -17.001 -6.5
s-7 -10.166 -7 -17.499v-366c0 -28 9.16699 -51.333 27.5 -70s41.5 -28 69.5 -28h171c16.667 0 25 8 25 24z" />
    <glyph glyph-name="afii10075" unicode="&#x439;" 
d="M244 635c7.33301 0 13.168 2.33301 17.501 7s6.5 10.334 6.5 17.001c0 16.667 -8 25 -24 25h-97c-8 0 -14 -2.5 -18 -7.5s-6 -10.833 -6 -17.5s2.16699 -12.334 6.5 -17.001s10.166 -7 17.499 -7h97zM342.002 24l0.00195312 439.998c0 8 -2.5 14 -7.5 18
s-10.833 6 -17.5 6s-12.334 -2.16699 -17.001 -6.5s-7 -10.166 -7 -17.499v-415h-146c-14 0 -25.667 4.66699 -35 14s-14 21 -14 35v366c0 8 -2.5 14 -7.5 18s-10.833 6 -17.5 6s-12.334 -2.16699 -17.001 -6.5s-7 -10.166 -7 -17.499v-366c0 -13.333 2.5 -25.833 7.5 -37.5
s12 -22 21 -31s19.333 -16.167 31 -21.5s24.5 -8 38.5 -8h170c16.667 0 25 8 25 24z" />
    <glyph glyph-name="afii10076" unicode="&#x43a;" 
d="M185 280l150.998 164.996c4.66699 4.66699 7 10.334 7 17.001s-2.5 12.5 -7.5 17.5s-10.833 7.5 -17.5 7.5c-5.33301 0 -11.333 -2.66699 -18 -8l-202 -223v208c0 8 -2.5 14 -7.5 18s-10.5 6 -16.5 6c-16.667 0 -25 -8 -25 -24v-440c0 -7.33301 2.5 -13.166 7.5 -17.499
s10.833 -6.5 17.5 -6.5s12.334 2 17.001 6s7 10 7 18v159l53 59l146 -231c4.66699 -7.33301 11.334 -11 20.001 -11c6.66699 0 12.5 2.33301 17.5 7s7.5 10.334 7.5 17.001c0 4.66699 -1.33301 9.33398 -4 14.001z" />
    <glyph glyph-name="afii10077" unicode="&#x43b;" 
d="M342 24l-0.000976562 439.998c0 16 -8.33301 24 -25 24h-146c-13.333 0 -21.333 -6.33301 -24 -19l-98 -439v-6c0 -7.33301 2.5 -13.166 7.5 -17.499s10.833 -6.5 17.5 -6.5c12.667 0 20.334 6.33301 23.001 19l93 420h103v-415c0 -7.33301 2.5 -13.166 7.5 -17.499
s10.5 -6.5 16.5 -6.5c16.667 0 25 8 25 24z" />
    <glyph glyph-name="afii10078" unicode="&#x43c;" horiz-adv-x="439" 
d="M391 24l-0.00195312 439.998c0 7.33301 -2.5 13.333 -7.5 18s-10.5 7 -16.5 7c-8.66699 0 -15.667 -3.66699 -21 -11l-126 -189l-126 189c-5.33301 7.33301 -12 11 -20 11c-16.667 0 -25 -8.33301 -25 -25v-440c0 -7.33301 2.33301 -13.166 7 -17.499
s10.334 -6.5 17.001 -6.5c16.667 0 25 8 25 24v359l101 -153c6 -9.33301 13 -14 21 -14c7.33301 0 14 4.66699 20 14l102 153v-359c0 -7.33301 2.33301 -13.166 7 -17.499s10.334 -6.5 17.001 -6.5c16.667 0 25 8 25 24z" />
    <glyph glyph-name="afii10079" unicode="&#x43d;" 
d="M293 269l-194.999 -0.00390625v195c0 8 -2.5 14 -7.5 18s-10.833 6 -17.5 6s-12.334 -2.16699 -17.001 -6.5s-7 -10.166 -7 -17.499v-440c0 -7.33301 2.33301 -13.166 7 -17.499s10.334 -6.5 17.001 -6.5c16.667 0 25 8 25 24v196h195v-196
c0 -7.33301 2.5 -13.166 7.5 -17.499s10.5 -6.5 16.5 -6.5c16.667 0 25 8 25 24v440c0 8 -2.5 14 -7.5 18s-10.833 6 -17.5 6s-12.334 -2.16699 -17.001 -6.5s-7 -10.166 -7 -17.499v-195z" />
    <glyph glyph-name="afii10080" unicode="&#x43e;" 
d="M342 98l0.000976562 293c0 13.333 -2.5 25.833 -7.5 37.5s-12 22 -21 31s-19.333 16 -31 21s-24.5 7.5 -38.5 7.5h-98c-14 0 -26.833 -2.5 -38.5 -7.5s-21.834 -12 -30.501 -21s-15.5 -19.333 -20.5 -31s-7.5 -24.167 -7.5 -37.5v-293c0 -28 9.16699 -51.333 27.5 -70
s41.5 -28 69.5 -28h98c28 -0 51.333 9.33301 70 28s28 42 28 70zM293.001 98c0 -14 -4.66699 -25.667 -14 -35s-21 -14 -35 -14h-98c-13.333 0 -24.666 4.66699 -33.999 14s-14 21 -14 35v293c0 13.333 4.66699 24.666 14 33.999s20.666 14 33.999 14h98
c14 0 25.667 -4.66699 35 -14s14 -20.666 14 -33.999v-293z" />
    <glyph glyph-name="afii10081" unicode="&#x43f;" 
d="M342 24l-0.000976562 366.997c0 13.333 -2.5 25.833 -7.5 37.5s-12 22 -21 31s-19.333 16 -31 21s-24.5 7.5 -38.5 7.5h-171c-16 0 -24 -8 -24 -24v-440c0 -7.33301 2.33301 -13.166 7 -17.499s10.334 -6.5 17.001 -6.5c16.667 0 25 8 25 24v415h146
c14 0 25.667 -4.66699 35 -14s14 -20.666 14 -33.999v-367c0 -7.33301 2.5 -13.166 7.5 -17.499s10.5 -6.5 16.5 -6.5c16.667 0 25 8 25 24z" />
    <glyph glyph-name="afii10082" unicode="&#x440;" 
d="M98 48v390.999h147c13.333 0 24.666 -4.66699 33.999 -14s14 -20.666 14 -33.999v-293c0 -13.333 -4.66699 -25 -14 -35s-20.666 -15 -33.999 -15h-147zM98 -0.000976562h146.999c13.333 0 25.833 2.5 37.5 7.5s22 12 31 21s16 19.333 21 31s7.5 24.5 7.5 38.5v293
c0 13.333 -2.5 25.833 -7.5 37.5s-12 22 -21 31s-19.333 16 -31 21s-24.167 7.5 -37.5 7.5h-172c-16 0 -24 -8 -24 -24v-635c0 -8 2.33301 -14 7 -18s10.334 -6 17.001 -6c16.667 0 25 8 25 24v171z" />
    <glyph glyph-name="afii10083" unicode="&#x441;" 
d="M317 0c8 0 14.168 2.50098 18.501 7.50098s6.5 10.5 6.5 16.5c0 16.667 -8.33301 25 -25 25h-171c-13.333 0 -24.666 4.66699 -33.999 14s-14 21 -14 35v293c0 13.333 4.66699 24.666 14 33.999s20.666 14 33.999 14h171c8 0 14.167 2.5 18.5 7.5s6.5 10.833 6.5 17.5
c0 16 -8.33301 24 -25 24h-171c-14 0 -26.833 -2.5 -38.5 -7.5s-21.834 -12 -30.501 -21s-15.5 -19.333 -20.5 -31s-7.5 -24.167 -7.5 -37.5v-293c0 -28 9.16699 -51.333 27.5 -70s41.5 -28 69.5 -28h171z" />
    <glyph glyph-name="afii10084" unicode="&#x442;" horiz-adv-x="537" 
d="M244 439l-0.000976562 -415.004c0 -7.33301 2.5 -13.166 7.5 -17.499s10.833 -6.5 17.5 -6.5s12.334 2 17.001 6s7 10 7 18v415h98c13.333 0 24.666 -4.66699 33.999 -14s14 -20.666 14 -33.999v-367c0 -7.33301 2.5 -13.166 7.5 -17.499s10.833 -6.5 17.5 -6.5
c16 0 24 8 24 24v367c0 13.333 -2.5 25.833 -7.5 37.5s-12 22 -21 31s-19.333 16 -31 21s-24.167 7.5 -37.5 7.5h-318c-16 0 -24 -8 -24 -24v-440c0 -7.33301 2.33301 -13.166 7 -17.499s10.334 -6.5 17.001 -6.5c16.667 0 25 8 25 24v415h146z" />
    <glyph glyph-name="afii10085" unicode="&#x443;" 
d="M293 0l0.000976562 -97c0 -14 -4.66699 -25.667 -14 -35s-20.666 -14 -33.999 -14h-147c-8 0 -14.167 -2.5 -18.5 -7.5s-6.5 -10.5 -6.5 -16.5c0 -16.667 8.33301 -25 25 -25h147c13.333 0 25.833 2.66699 37.5 8s22 12.5 31 21.5s16 19.333 21 31s7.5 24.167 7.5 37.5
v561c0 8 -2.5 14.167 -7.5 18.5s-10.833 6.5 -17.5 6.5s-12.334 -2.16699 -17.001 -6.5s-7 -10.5 -7 -18.5v-415h-146c-14 0 -25.667 4.83301 -35 14.5s-14 21.167 -14 34.5v366c0 8 -2.5 14.167 -7.5 18.5s-10.833 6.5 -17.5 6.5s-12.334 -2.16699 -17.001 -6.5
s-7 -10.5 -7 -18.5v-366c0 -13.333 2.5 -25.833 7.5 -37.5s12 -22 21 -31s19.333 -16.167 31 -21.5s24.5 -8 38.5 -8h146z" />
    <glyph glyph-name="afii10086" unicode="&#x444;" horiz-adv-x="537" 
d="M293 440h49c13.333 0 25.833 -2.5 37.5 -7.5s22 -12 31 -21s16 -19.333 21 -31s7.5 -24.5 7.5 -38.5v-195c0 -14 -2.5 -26.833 -7.5 -38.5s-12 -22 -21 -31s-19.333 -16 -31 -21s-24.167 -7.5 -37.5 -7.5h-49v391zM244 49h-49c-28 0 -51.167 9.33301 -69.5 28
s-27.5 42 -27.5 70v195c0 28 9.16699 51.333 27.5 70s41.5 28 69.5 28h49v-391zM244 0l-0.000976562 -170.001c0 -8 2.5 -14.167 7.5 -18.5s10.833 -6.5 17.5 -6.5s12.334 2 17.001 6s7 10.333 7 19v170h49c40.667 0 75 14.333 103 43c28.667 28.667 43 63.334 43 104.001
v195c0 40.667 -14.333 75.334 -43 104.001c-28 28.667 -62.333 43 -103 43h-49v73c0 8 -2.5 14 -7.5 18s-10.5 6 -16.5 6c-16.667 0 -25 -8 -25 -24v-73h-49c-40.667 0 -75.334 -14.333 -104.001 -43c-28 -29.333 -42 -64 -42 -104v-195c0 -40.667 14 -75.334 42 -104.001
c28.667 -28.667 63.334 -43 104.001 -43h49z" />
    <glyph glyph-name="afii10087" unicode="&#x445;" 
d="M223 245l115.999 207.001c2 4 3 8 3 12c0 7.33301 -2.5 13.166 -7.5 17.499s-10.833 6.5 -17.5 6.5c-4 0 -8 -1 -12 -3s-7 -5 -9 -9l-101 -182l-100 183c-5.33301 8 -12.333 12 -21 12c-6.66699 0 -12.667 -2.16699 -18 -6.5s-8 -9.83301 -8 -16.5
c0 -5.33301 1.33301 -9.66602 4 -12.999l115 -209l-115 -208c-2.66699 -3.33301 -4 -7.33301 -4 -12c0 -6.66699 2.66699 -12.334 8 -17.001s11.333 -7 18 -7c9.33301 -0 16.333 4.33301 21 13l100 181l101 -181c4.66699 -8.66699 11.334 -13 20.001 -13
c7.33301 -0 13.5 2.33301 18.5 7s7.5 10 7.5 16c0 4.66699 -1 9 -3 13z" />
    <glyph glyph-name="afii10088" unicode="&#x446;" horiz-adv-x="439" 
d="M293 48l-147 -0.00195312c-13.333 0 -24.666 4.83301 -33.999 14.5s-14 21.167 -14 34.5v367c0 8 -2.5 14 -7.5 18s-10.833 6 -17.5 6s-12.334 -2.16699 -17.001 -6.5s-7 -10.166 -7 -17.499v-367c0 -28 9.16699 -51.167 27.5 -69.5s41.5 -27.5 69.5 -27.5h196v-73
c0 -8 2.5 -14.167 7.5 -18.5s10.833 -6.5 17.5 -6.5s12.334 2.16699 17.001 6.5s7 10.5 7 18.5v97c0 16 -8 24 -24 24h-25v416c0 8 -2.33301 14 -7 18s-10.334 6 -17.001 6s-12.5 -2.16699 -17.5 -6.5s-7.5 -10.166 -7.5 -17.499v-416z" />
    <glyph glyph-name="afii10089" unicode="&#x447;" 
d="M293 269l-146.999 -0.00195312c-13.333 0 -24.666 4.66699 -33.999 14s-14 20.666 -14 33.999v147c0 8 -2.5 14 -7.5 18s-10.833 6 -17.5 6s-12.334 -2.16699 -17.001 -6.5s-7 -10.166 -7 -17.499v-147c0 -28 9.16699 -51.167 27.5 -69.5s41.5 -27.5 69.5 -27.5h147v-196
c0 -7.33301 2.5 -13.166 7.5 -17.499s10.5 -6.5 16.5 -6.5c16.667 0 25 8 25 24v440c0 8 -2.5 14 -7.5 18s-10.833 6 -17.5 6s-12.334 -2.16699 -17.001 -6.5s-7 -10.166 -7 -17.499v-195z" />
    <glyph glyph-name="afii10090" unicode="&#x448;" horiz-adv-x="537" 
d="M293 49l0.000976562 414.998c0 8 -2.5 14 -7.5 18s-10.5 6 -16.5 6c-16.667 0 -25 -8 -25 -24v-415h-98c-13.333 0 -24.666 4.66699 -33.999 14s-14 21 -14 35v366c0 8 -2.5 14 -7.5 18s-10.833 6 -17.5 6s-12.334 -2.16699 -17.001 -6.5s-7 -10.166 -7 -17.499v-366
c0 -28 9.16699 -51.333 27.5 -70s41.5 -28 69.5 -28h318c16 0 24 8 24 24v440c0 8 -2.33301 14 -7 18s-10.334 6 -17.001 6s-12.5 -2.16699 -17.5 -6.5s-7.5 -10.166 -7.5 -17.499v-415h-146z" />
    <glyph glyph-name="afii10091" unicode="&#x449;" horiz-adv-x="586" 
d="M244 49l-98 -0.000976562c-13.333 0 -24.666 4.66699 -33.999 14s-14 21 -14 35v366c0 8 -2.5 14.167 -7.5 18.5s-10.833 6.5 -17.5 6.5s-12.334 -2.16699 -17.001 -6.5s-7 -10.5 -7 -18.5v-366c0 -28 9.16699 -51.333 27.5 -70s41.5 -28 69.5 -28h343v-73
c0 -7.33301 2.33301 -13.166 7 -17.499s10.334 -6.5 17.001 -6.5c16.667 0 25 8 25 24v97c0 16.667 -8.33301 25 -25 25h-24v415c0 8 -2.5 14.167 -7.5 18.5s-10.833 6.5 -17.5 6.5s-12.334 -2.16699 -17.001 -6.5s-7 -10.5 -7 -18.5v-415h-147v415
c0 8 -2.5 14.167 -7.5 18.5s-10.5 6.5 -16.5 6.5c-16.667 0 -25 -8.33301 -25 -25v-415z" />
    <glyph glyph-name="afii10092" unicode="&#x44a;" horiz-adv-x="488" 
d="M195 220h147c13.333 0 24.833 -4.83301 34.5 -14.5s14.5 -21.167 14.5 -34.5v-73c0 -14 -4.83301 -25.667 -14.5 -35s-21.167 -14 -34.5 -14h-147v171zM195 269v195.001c0 16 -8 24 -24 24h-98c-7.33301 0 -13.166 -2.33301 -17.499 -7s-6.5 -10.334 -6.5 -17.001
s2.16699 -12.5 6.5 -17.5s10.166 -7.5 17.499 -7.5h73v-415c0 -16 8.33301 -24 25 -24h171c28 -0 51.167 9.33301 69.5 28s27.5 42 27.5 70v73c0 13.333 -2.5 25.833 -7.5 37.5s-12 22 -21 31s-19.333 16.167 -31 21.5s-24.167 8 -37.5 8h-147z" />
    <glyph glyph-name="afii10093" unicode="&#x44b;" horiz-adv-x="439" 
d="M391 24v439.998c0 8 -2.5 14 -7.5 18s-10.833 6 -17.5 6s-12.334 -2.16699 -17.001 -6.5s-7 -10.166 -7 -17.499v-440c0 -7.33301 2.33301 -13.166 7 -17.499s10.334 -6.5 17.001 -6.5c16.667 0 25 8 25 24zM98 219.998h97c14 0 25.667 -4.83301 35 -14.5
s14 -21.167 14 -34.5v-73c0 -14 -4.66699 -25.667 -14 -35s-21 -14 -35 -14h-97v171zM98 268.998l0.000976562 194.999c0 8 -2.5 14 -7.5 18s-10.833 6 -17.5 6s-12.334 -2.16699 -17.001 -6.5s-7 -10.166 -7 -17.499v-440c0 -16 8 -24 24 -24h122
c28 0 51.333 9.33301 70 28s28 42 28 70v73c0 13.333 -2.5 25.833 -7.5 37.5s-12 22 -21 31s-19.333 16.167 -31 21.5s-24.5 8 -38.5 8h-97z" />
    <glyph glyph-name="afii10094" unicode="&#x44c;" 
d="M98 220h146c14 0 25.667 -4.83301 35 -14.5s14 -21.167 14 -34.5v-73c0 -14 -4.66699 -25.667 -14 -35s-21 -14 -35 -14h-146v171zM98 269l0.000976562 194.999c0 8 -2.5 14 -7.5 18s-10.833 6 -17.5 6s-12.334 -2.16699 -17.001 -6.5s-7 -10.166 -7 -17.499v-440
c0 -16 8 -24 24 -24h171c28 -0 51.333 9.33301 70 28s28 42 28 70v73c0 13.333 -2.5 25.833 -7.5 37.5s-12 22 -21 31s-19.333 16.167 -31 21.5s-24.5 8 -38.5 8h-146z" />
    <glyph glyph-name="afii10095" unicode="&#x44d;" 
d="M293 220v-121.998c0 -14 -4.66699 -25.667 -14 -35s-21 -14 -35 -14h-171c-7.33301 0 -13.166 -2.5 -17.499 -7.5s-6.5 -10.833 -6.5 -17.5s2.16699 -12.334 6.5 -17.001s10.166 -7 17.499 -7h171c28 0 51.333 9.33301 70 28s28 42 28 70v293
c0 13.333 -2.5 25.833 -7.5 37.5s-12 22 -21 31s-19.333 16 -31 21s-24.5 7.5 -38.5 7.5h-171c-7.33301 0 -13.166 -2.33301 -17.499 -7s-6.5 -10.334 -6.5 -17.001s2.16699 -12.5 6.5 -17.5s10.166 -7.5 17.499 -7.5h171c14 0 25.667 -4.66699 35 -14
s14 -20.666 14 -33.999v-122h-98c-7.33301 0 -13.166 -2.5 -17.499 -7.5s-6.5 -10.833 -6.5 -17.5s2.16699 -12.334 6.5 -17.001s10.166 -7 17.499 -7h98z" />
    <glyph glyph-name="afii10096" unicode="&#x44e;" horiz-adv-x="439" 
d="M342 98c0 -14 -4.83301 -25.667 -14.5 -35s-21.167 -14 -34.5 -14h-49c-13.333 0 -24.833 4.66699 -34.5 14s-14.5 21 -14.5 35v293c0 13.333 4.83301 24.666 14.5 33.999s21.167 14 34.5 14h49c13.333 0 24.833 -4.66699 34.5 -14s14.5 -20.666 14.5 -33.999v-293z
M98 269v194.998c0 8 -2.5 14 -7.5 18s-10.833 6 -17.5 6s-12.334 -2.16699 -17.001 -6.5s-7 -10.166 -7 -17.499v-440c0 -7.33301 2.33301 -13.166 7 -17.499s10.334 -6.5 17.001 -6.5c16.667 0 25 8 25 24v196h48v-122c0 -28 9.33301 -51.333 28 -70s42 -28 70 -28h49
c13.333 0 25.833 2.5 37.5 7.5s22 12 31 21s16.167 19.333 21.5 31s8 24.5 8 38.5v293c0 13.333 -2.66699 25.833 -8 37.5s-12.5 22 -21.5 31s-19.333 16 -31 21s-24.167 7.5 -37.5 7.5h-49c-14 0 -26.833 -2.5 -38.5 -7.5s-22 -12 -31 -21s-16 -19.333 -21 -31
s-7.5 -24.167 -7.5 -37.5v-122h-48z" />
    <glyph glyph-name="afii10097" unicode="&#x44f;" 
d="M342 24l0.000976562 440c0 16 -8.33301 24 -25 24h-171c-14 0 -26.833 -2.5 -38.5 -7.5s-21.834 -12 -30.501 -21s-15.5 -19.333 -20.5 -31s-7.5 -24.167 -7.5 -37.5v-74c0 -28 9.16699 -51.167 27.5 -69.5s41.5 -27.5 69.5 -27.5h8l-102 -184
c-2.66699 -3.33301 -4 -7.33301 -4 -12c0 -6.66699 2.66699 -12.334 8 -17.001s11.333 -7 18 -7c9.33301 0 16.333 4.33301 21 13l114 207h84v-196c0 -7.33301 2.5 -13.166 7.5 -17.499s10.5 -6.5 16.5 -6.5c16.667 0 25 8 25 24zM293.001 269l-147 0.00195312
c-13.333 0 -24.666 4.66699 -33.999 14s-14 20.666 -14 33.999v74c0 13.333 4.66699 24.666 14 33.999s20.666 14 33.999 14h147v-170z" />
    <glyph glyph-name="afii10071" unicode="&#x451;" 
d="M98 269l0.000976562 122c0 13.333 4.66699 24.666 14 33.999s20.666 14 33.999 14h98c14 0 25.667 -4.66699 35 -14s14 -20.666 14 -33.999v-122h-195zM98.001 220h219c16.667 0 25 8 25 24v147c0 13.333 -2.5 25.833 -7.5 37.5s-12 22 -21 31s-19.333 16 -31 21
s-24.5 7.5 -38.5 7.5h-98c-14 0 -26.833 -2.5 -38.5 -7.5s-21.834 -12 -30.501 -21s-15.5 -19.333 -20.5 -31s-7.5 -24.167 -7.5 -37.5v-293c0 -28 9.16699 -51.333 27.5 -70s41.5 -28 69.5 -28h171c8 0 14.167 2.5 18.5 7.5s6.5 10.5 6.5 16.5c0 16.667 -8.33301 25 -25 25
h-171c-13.333 0 -24.666 4.66699 -33.999 14s-14 21 -14 35v122zM98.001 658c0 -7.33301 2.5 -13.333 7.5 -18s11.167 -7 18.5 -7c6.66699 0 12.5 2.33301 17.5 7s7.5 10.667 7.5 18s-2.5 13.5 -7.5 18.5s-10.833 7.5 -17.5 7.5c-7.33301 0 -13.5 -2.5 -18.5 -7.5
s-7.5 -11.167 -7.5 -18.5zM242.001 658c0 -7.33301 2.5 -13.333 7.5 -18s11.167 -7 18.5 -7c6.66699 0 12.5 2.33301 17.5 7s7.5 10.667 7.5 18s-2.5 13.5 -7.5 18.5s-10.833 7.5 -17.5 7.5c-7.33301 0 -13.5 -2.5 -18.5 -7.5s-7.5 -11.167 -7.5 -18.5z" />
    <glyph glyph-name="FL0455h" unicode="&#x455;" 
d="M341 430c-14 18.667 -31.5 33.001 -52.5 43.001s-43.167 15 -66.5 15h-67c-31.333 0 -57 -10.667 -77 -32c-18.667 -20.667 -28 -45.334 -28 -74.001c0 -14.667 3.16699 -29 9.5 -43s15.833 -26.333 28.5 -37l188 -154c14 -11.333 21 -25.666 21 -42.999
c0 -14.667 -5.16699 -27.667 -15.5 -39s-23.833 -17 -40.5 -17h-67c-33.333 0 -60 13 -80 39c-4 6.66699 -10.333 10 -19 10c-7.33301 0 -13.333 -2.33301 -18 -7s-7 -10.334 -7 -17.001c0 -4.66699 1.66699 -9.66699 5 -15c14 -18.667 31.333 -33.167 52 -43.5
s43 -15.5 67 -15.5h67c30.667 0 56 11 76 33c19.333 20.667 29 45 29 73c0 14.667 -3.16699 29.167 -9.5 43.5s-15.833 26.833 -28.5 37.5l-188 153c-14 10.667 -21 25 -21 43c0 15.333 5.16699 28.5 15.5 39.5s23.833 16.5 40.5 16.5h67c33.333 0 60 -13 80 -39
c4.66699 -6.66699 11 -10 19 -10c7.33301 0 13.333 2.33301 18 7s7 10.334 7 17.001c0 5.33301 -1.66699 10.666 -5 15.999z" />
    <glyph glyph-name="FL0456h" unicode="&#x456;" horiz-adv-x="146" 
d="M73 684c-7.33301 0 -13.166 -2.5 -17.499 -7.5s-6.5 -10.833 -6.5 -17.5s2.16699 -12.334 6.5 -17.001s10.166 -7 17.499 -7c8 0 14.167 2.33301 18.5 7s6.5 10.334 6.5 17.001s-2.33301 12.5 -7 17.5s-10.667 7.5 -18 7.5zM98 464c0 8 -2.50098 14 -7.50098 18
s-10.5 6 -16.5 6c-6.66699 0 -12.5 -2 -17.5 -6s-7.5 -10 -7.5 -18v-440c0 -7.33301 2.5 -13.166 7.5 -17.499s10.833 -6.5 17.5 -6.5s12.334 2.16699 17.001 6.5s7 10.166 7 17.499v440z" />
    <glyph glyph-name="FL0458h" unicode="&#x458;" horiz-adv-x="146" 
d="M73 635c17.333 0 26 8.33301 26 25c0 6.66699 -2.33301 12.5 -7 17.5s-11 7.5 -19 7.5s-14.167 -2.5 -18.5 -7.5s-6.5 -10.833 -6.5 -17.5c0 -16.667 8.33301 -25 25 -25zM98 -119l0.000976562 577.999c0 8 -2.5 14 -7.5 18s-10.833 6 -17.5 6
s-12.334 -2.16699 -17.001 -6.5s-7 -10.166 -7 -17.499v-578c0 -14 -4.83301 -26 -14.5 -36s-21.5 -15 -35.5 -15h-26c-8 0 -14 -2.5 -18 -7.5s-6 -10.5 -6 -16.5c0 -16.667 8 -25 24 -25h26c28 0 51.5 9.66699 70.5 29s28.5 43 28.5 71z" />
    <glyph glyph-name="endash" unicode="&#x2013;" 
d="M342 220c8 0 14 2.33301 18 7s6 10.334 6 17.001c0 16.667 -8 25 -24 25h-293c-8 0 -14.167 -2.5 -18.5 -7.5s-6.5 -10.833 -6.5 -17.5s2.33301 -12.334 7 -17.001s10.667 -7 18 -7h293z" />
    <glyph glyph-name="emdash" unicode="&#x2014;" 
d="M342 220c8 0 14 2.33301 18 7s6 10.334 6 17.001c0 16.667 -8 25 -24 25h-293c-8 0 -14.167 -2.5 -18.5 -7.5s-6.5 -10.833 -6.5 -17.5s2.33301 -12.334 7 -17.001s10.667 -7 18 -7h293z" />
    <glyph glyph-name="FL201Eh" unicode="&#x201e;" horiz-adv-x="244" 
d="M97 13l-25.001 -96.001c-3.33301 -13.333 -11 -20 -23 -20c-6.66699 0 -12.667 2.33301 -18 7s-8 10.334 -8 17.001c0 2.66699 0.333008 5 1 7l25 97c2.66699 12.667 10.334 19 23.001 19c7.33301 0 13.5 -2.16699 18.5 -6.5s7.5 -9.83301 7.5 -16.5
c0 -3.33301 -0.333008 -6 -1 -8zM193.999 12.999l-24 -96.001c-4 -13.333 -12 -20 -24 -20c-6.66699 0 -12.5 2.33301 -17.5 7s-7.5 10.334 -7.5 17.001c0 2.66699 0.333008 5 1 7l24 97c4 12.667 12 19 24 19c6.66699 0 12.5 -2.16699 17.5 -6.5s7.5 -9.83301 7.5 -16.5
c0 -3.33301 -0.333008 -6 -1 -8z" />
    <glyph glyph-name="FL2026h" unicode="&#x2026;" horiz-adv-x="439" 
d="M98 24c0 -6.66699 2.33301 -12.334 7 -17.001s10.334 -7 17.001 -7s12.334 2.33301 17.001 7s7 10.334 7 17.001c0 7.33301 -2.33301 13.333 -7 18s-10.334 7 -17.001 7s-12.334 -2.33301 -17.001 -7s-7 -10.667 -7 -18zM195 24c0 -6.66699 2.33301 -12.334 7 -17.001
s10.667 -7 18 -7c6.66699 0 12.334 2.33301 17.001 7s7 10.334 7 17.001c0 7.33301 -2.33301 13.333 -7 18s-10.334 7 -17.001 7c-16.667 0 -25 -8.33301 -25 -25zM293 24c0 -6.66699 2.33301 -12.334 7 -17.001s10.334 -7 17.001 -7c7.33301 0 13.333 2.33301 18 7
s7 10.334 7 17.001c0 16.667 -8.33301 25 -25 25c-6.66699 0 -12.334 -2.33301 -17.001 -7s-7 -10.667 -7 -18z" />
    <glyph glyph-name="afii61352" unicode="&#x2116;" horiz-adv-x="684" 
d="M634 439v147c0 30.667 -10 55 -30 73c-18 16 -40.333 24 -67 24c-26 0 -48.333 -8 -67 -24c-20.667 -18 -31 -42.333 -31 -73v-147c0 -30.667 10.333 -55 31 -73c18 -16 40.333 -24 67 -24s49 8 67 24c20 18 30 42.333 30 73zM391 24l0.00195312 635.001
c0 8 -2.5 14.167 -7.5 18.5s-10.833 6.5 -17.5 6.5s-12.334 -2.33301 -17.001 -7s-7 -10.667 -7 -18v-524l-247 534c-2 5.33301 -5 9.16602 -9 11.499s-8.33301 3.5 -13 3.5c-6.66699 0 -12.334 -2.33301 -17.001 -7s-7 -10.667 -7 -18v-635
c0 -7.33301 2.33301 -13.166 7 -17.499s10.334 -6.5 17.001 -6.5c16.667 0 25 8 25 24v524l246 -534c5.33301 -9.33301 12.666 -14 21.999 -14c6.66699 0 12.5 2.16699 17.5 6.5s7.5 10.166 7.5 17.499zM585.002 439.001c0 -16 -4.99902 -28.333 -14.999 -37
c-9.33301 -7.33301 -20.333 -11 -33 -11c-14 0 -25.333 4 -34 12c-10 8.66699 -15 20.667 -15 36v147c0 16 4.83301 28.167 14.5 36.5s21.167 12.5 34.5 12.5s24.666 -4.33301 33.999 -13s14 -20.667 14 -36v-147z" />
    <glyph glyph-name="minus" unicode="&#x2212;" 
d="M342 220c8 0 14 2.33301 18 7s6 10.334 6 17.001c0 16.667 -8 25 -24 25h-293c-8 0 -14.167 -2.5 -18.5 -7.5s-6.5 -10.833 -6.5 -17.5s2.33301 -12.334 7 -17.001s10.667 -7 18 -7h293z" />
    <glyph glyph-name=".null" horiz-adv-x="0" 
 />
    <glyph glyph-name="nonmarkingreturn" horiz-adv-x="293" 
 />
    <glyph glyph-name="FL2014h" 
d="M342 220c8 0 14 2.33301 18 7s6 10.334 6 17.001c0 16.667 -8 25 -24 25h-293c-8 0 -14.167 -2.5 -18.5 -7.5s-6.5 -10.833 -6.5 -17.5s2.33301 -12.334 7 -17.001s10.667 -7 18 -7h293z" />
    <glyph glyph-name="FL2013h" 
d="M342 220c8 0 14 2.33301 18 7s6 10.334 6 17.001c0 16.667 -8 25 -24 25h-293c-8 0 -14.167 -2.5 -18.5 -7.5s-6.5 -10.833 -6.5 -17.5s2.33301 -12.334 7 -17.001s10.667 -7 18 -7h293z" />
    <glyph glyph-name="FL0410h" horiz-adv-x="488" 
d="M144 196h198.999l48 -177c2.66699 -12.667 10.334 -19 23.001 -19c6 -0 11.5 2.33301 16.5 7s7.5 10.334 7.5 17.001v7l-171 630c-4 14.667 -12 22 -24 22c-11.333 0 -19 -7.33301 -23 -22l-171 -630c-0.666992 -2 -1 -4.33301 -1 -7c0 -6.66699 2.5 -12.334 7.5 -17.001
s10.833 -7 17.5 -7c11.333 -0 19 6.33301 23 19zM329.999 245h-173l86 321z" />
    <glyph glyph-name="FL0411h" horiz-adv-x="439" 
d="M98 49v292h146c28 0 51.333 -9.16699 70 -27.5s28 -41.5 28 -69.5v-98c0 -28 -9.33301 -51.167 -28 -69.5s-42 -27.5 -70 -27.5h-146zM98 390v244.999h244c8 0 14 2.33301 18 7s6 10.334 6 17.001c0 16.667 -8 25 -24 25h-269c-16 0 -24 -8.33301 -24 -25v-635
c0 -16 8 -24 24 -24h171c40.667 -0 75.334 14.333 104.001 43s43 63 43 103v98c0 40.667 -14.333 75 -43 103c-28.667 28.667 -63.334 43 -104.001 43h-146z" />
    <glyph glyph-name="FL0412h" horiz-adv-x="439" 
d="M98 390v245h122c13.333 0 25.833 -2.5 37.5 -7.5s22 -12 31 -21s16 -19.333 21 -31s7.5 -24.5 7.5 -38.5v-49c0 -13.333 -2.5 -25.833 -7.5 -37.5s-12 -22 -21 -31s-19.333 -16.167 -31 -21.5s-24.167 -8 -37.5 -8h-122zM98 49v292h146c28 0 51.333 -9.16699 70 -27.5
s28 -41.5 28 -69.5v-98c0 -28 -9.33301 -51.167 -28 -69.5s-42 -27.5 -70 -27.5h-146zM73 0l170.999 -0.00195312c38 0 71.667 14.333 101 43c30.667 28.667 46 63 46 103v98c0 28 -7.16699 53.667 -21.5 77s-33.5 41 -57.5 53c16.667 14.667 29.834 31.834 39.501 51.501
s14.5 40.5 14.5 62.5v49c0 40.667 -14.333 75.334 -43 104.001c-28 28.667 -62.333 43 -103 43h-147c-16 0 -24 -8.33301 -24 -25v-635c0 -16 8 -24 24 -24z" />
    <glyph glyph-name="FL0413h" 
d="M317 635c8 0 14.166 2.33105 18.499 6.99805s6.5 10.334 6.5 17.001c0 16.667 -8.33301 25 -25 25h-244c-16 0 -24 -8.33301 -24 -25v-635c0 -7.33301 2.33301 -13.166 7 -17.499s10.334 -6.5 17.001 -6.5c16.667 0 25 8 25 24v611h219z" />
    <glyph glyph-name="FL0414h" horiz-adv-x="488" 
d="M415 49h-24.002v611c0 16 -8 24 -24 24h-196c-16.667 0 -25 -7.33301 -25 -22l-47 -613h-26c-16 0 -24 -8.33301 -24 -25v-48c0 -8 2.33301 -14 7 -18s10.334 -6 17.001 -6c16.667 0 25 8 25 24v24h293v-24c0 -8 2.33301 -14 7 -18s10.334 -6 17.001 -6c16 0 24 8 24 24
v48c0 16.667 -8 25 -24 25zM147.998 49l45 586h149v-586h-194z" />
    <glyph glyph-name="FL0415h" 
d="M98 341l122 -0.00195312c8 0 14.167 2.5 18.5 7.5s6.5 10.833 6.5 17.5s-2.16699 12.334 -6.5 17.001s-10.5 7 -18.5 7h-122v245h220c8 0 14 2.33301 18 7s6 10.334 6 17.001c0 16.667 -8 25 -24 25h-244c-16.667 0 -25 -8.33301 -25 -25v-635c0 -16 8.33301 -24 25 -24
h244c8 0 14 2.5 18 7.5s6 10.5 6 16.5c0 16.667 -8 25 -24 25h-220v292z" />
    <glyph glyph-name="FL0416h" horiz-adv-x="537" 
d="M292 394l-0.000976562 265c0 8 -2.33301 14.167 -7 18.5s-10.334 6.5 -17.001 6.5s-12.5 -2.16699 -17.5 -6.5s-7.5 -10.5 -7.5 -18.5v-263l-149 275c-4.66699 8.66699 -11.334 13 -20.001 13c-7.33301 0 -13.5 -2.33301 -18.5 -7s-7.5 -10.334 -7.5 -17.001
c0 -4 1 -8.33301 3 -13l153 -282l-153 -330c-2 -4 -3 -8 -3 -12c0 -6.66699 2.5 -12.167 7.5 -16.5s10.833 -6.5 17.5 -6.5c10.667 0 18 4.66699 22 14l148 319v-309c0 -7.33301 2.5 -13.166 7.5 -17.499s10.833 -6.5 17.5 -6.5s12.334 2 17.001 6s7 10 7 18v311l149 -321
c4.66699 -10 12.334 -15 23.001 -15c6.66699 0 12.334 2.16699 17.001 6.5s7 9.83301 7 16.5c0 3.33301 -1 7.66602 -3 12.999l-153 330l153 282c2 4.66699 3 9 3 13c0 6.66699 -2.5 12.334 -7.5 17.001s-10.833 7 -17.5 7c-9.33301 0 -16.333 -4.33301 -21 -13z" />
    <glyph glyph-name="FL0417h" horiz-adv-x="439" 
d="M322 366c20.667 13.333 36.832 30.8291 48.499 52.4961s17.5 44.834 17.5 69.501v49c0 41.333 -14.333 76 -43 104c-28.667 28.667 -63.334 43 -104.001 43h-34c-28.667 0 -55.167 -8 -79.5 -24s-42.5 -37.333 -54.5 -64c-1.33301 -5.33301 -2 -8.66602 -2 -9.99902
c0 -7.33301 2.5 -13.166 7.5 -17.499s10.833 -6.5 17.5 -6.5c9.33301 0 16.666 5 21.999 15c8 17.333 20 31.333 36 42s33.667 16 53 16h34c14 0 26.833 -2.66699 38.5 -8s22 -12.5 31 -21.5s16 -19.333 21 -31s7.5 -24.167 7.5 -37.5v-49
c0 -13.333 -2.5 -25.833 -7.5 -37.5s-12 -22 -21 -31s-19.333 -16.167 -31 -21.5s-24.5 -8 -38.5 -8h-73c-7.33301 0 -13.166 -2.5 -17.499 -7.5s-6.5 -10.5 -6.5 -16.5c0 -16.667 8 -25 24 -25h73c28 0 51.333 -9.16699 70 -27.5s28 -41.5 28 -69.5v-98
c0 -28 -9.33301 -51.167 -28 -69.5s-42 -27.5 -70 -27.5h-49c-22.667 0 -43 7.5 -61 22.5s-29.333 33.833 -34 56.5c-3.33301 13.333 -11 20 -23 20c-6.66699 0 -12.5 -2.16699 -17.5 -6.5s-7.5 -10.166 -7.5 -17.499v-6c4 -17.333 10.333 -33.166 19 -47.499
s19.334 -26.666 32.001 -36.999s26.834 -18.5 42.501 -24.5s32.167 -9 49.5 -9h49c40.667 0 75.334 14.333 104.001 43s43 63 43 103v98c0 25.333 -5.83301 48.666 -17.5 69.999s-27.834 38.666 -48.501 51.999z" />
    <glyph glyph-name="FL0418h" horiz-adv-x="439" 
d="M391 29v634.998c0 8.66699 -2.16699 15.5 -6.5 20.5s-9.5 7.5 -15.5 7.5c-10 0 -18 -6 -24 -18l-247 -534v524c0 8 -2.5 14 -7.5 18s-10.833 6 -17.5 6s-12.334 -2.16699 -17.001 -6.5s-7 -10.166 -7 -17.499v-635c0 -8 2.16699 -14.667 6.5 -20s9.5 -8 15.5 -8
c10 0 18 6 24 18l247 534v-524c0 -7.33301 2.5 -13.166 7.5 -17.499s10.833 -6.5 17.5 -6.5s12.334 2 17.001 6s7 10 7 18z" />
    <glyph glyph-name="FL0419h" horiz-adv-x="439" 
d="M269 732c8 0 14 2.50098 18 7.50098s6 10.833 6 17.5c0 16 -8 24 -24 24h-98c-8 0 -14.167 -2.33301 -18.5 -7s-6.5 -10.334 -6.5 -17.001s2.33301 -12.5 7 -17.5s10.667 -7.5 18 -7.5h98zM391 24.001v635.999c0 8 -2.33301 14.667 -7 20s-10 8 -16 8
c-10 0 -18 -6 -24 -18l-246 -535v525c0 7.33301 -2.5 13.166 -7.5 17.499s-10.833 6.5 -17.5 6.5s-12.334 -2.16699 -17.001 -6.5s-7 -10.166 -7 -17.499v-636c0 -8 2.16699 -14.5 6.5 -19.5s9.5 -7.5 15.5 -7.5c10 0 18 5.66699 24 17l247 535v-525
c0 -7.33301 2.33301 -13.166 7 -17.499s10.334 -6.5 17.001 -6.5c16.667 0 25 8 25 24z" />
    <glyph glyph-name="FL041Ah" horiz-adv-x="439" 
d="M98 261l81 108.999l166 -356c3.33301 -9.33301 10.333 -14 21 -14c6 0 11.667 2.33301 17 7s8 10 8 16c0 2.66699 -0.666992 6.66699 -2 12l-177 379l174 231c4 4 6 8.66699 6 14c0 6.66699 -2.66699 12.5 -8 17.5s-11.333 7.5 -18 7.5c-8 0 -14.333 -3.33301 -19 -10
l-249 -332v317c0 8 -2.5 14.167 -7.5 18.5s-10.833 6.5 -17.5 6.5s-12.334 -2.33301 -17.001 -7s-7 -10.667 -7 -18v-635c0 -7.33301 2.33301 -13.166 7 -17.499s10.334 -6.5 17.001 -6.5c16.667 0 25 8 25 24v237z" />
    <glyph glyph-name="FL041Bh" horiz-adv-x="488" 
d="M439 24l-0.000976562 634.999c0 16.667 -8 25 -24 25h-146c-12 0 -19.667 -5.66699 -23 -17l-196 -635c-1.33301 -4 -2 -7 -2 -9c0 -6.66699 2.5 -12.167 7.5 -16.5s11.167 -6.5 18.5 -6.5c11.333 0 19 5.66699 23 17l190 618h104v-611
c0 -7.33301 2.33301 -13.166 7 -17.499s10.334 -6.5 17.001 -6.5c16 0 24 8 24 24z" />
    <glyph glyph-name="FL041Ch" horiz-adv-x="537" 
d="M488 24v634.998c0 8.66699 -2.16699 15.667 -6.5 21s-9.5 8 -15.5 8c-9.33301 0 -17 -5.33301 -23 -16l-175 -283l-174 283c-6.66699 10.667 -14.334 16 -23.001 16c-6 0 -11.167 -2.66699 -15.5 -8s-6.5 -12.333 -6.5 -21v-635c0 -7.33301 2.33301 -13.166 7 -17.499
s10.334 -6.5 17.001 -6.5c16.667 0 25 8 25 24v548l149 -243c6 -10 13 -15 21 -15s15 5 21 15l150 244v-549c0 -7.33301 2.5 -13.166 7.5 -17.499s10.833 -6.5 17.5 -6.5c16 0 24 8 24 24z" />
    <glyph glyph-name="FL041Dh" horiz-adv-x="439" 
d="M342 390l-244.001 -0.00195312v269c0 8 -2.5 14.167 -7.5 18.5s-10.833 6.5 -17.5 6.5s-12.334 -2.33301 -17.001 -7s-7 -10.667 -7 -18v-635c0 -7.33301 2.33301 -13.166 7 -17.499s10.334 -6.5 17.001 -6.5c16.667 0 25 8 25 24v317h244v-317
c0 -7.33301 2.5 -13.166 7.5 -17.499s10.833 -6.5 17.5 -6.5s12.334 2 17.001 6s7 10 7 18v635c0 8 -2.5 14.167 -7.5 18.5s-10.5 6.5 -16.5 6.5c-16.667 0 -25 -8.33301 -25 -25v-269z" />
    <glyph glyph-name="FL041Eh" horiz-adv-x="439" 
d="M391 146l0.000976562 391.001c0 41.333 -14.333 76 -43 104c-28.667 28.667 -63.334 43 -104.001 43h-49c-40.667 0 -75.334 -14.333 -104.001 -43c-28 -29.333 -42 -64 -42 -104v-391c0 -40.667 14.333 -75.334 43 -104.001c28 -28 62.333 -42 103 -42h49
c40.667 -0 75.334 14.333 104.001 43s43 63 43 103zM342.001 146.001c0 -28 -9.33301 -51.167 -28 -69.5s-42 -27.5 -70 -27.5h-49c-13.333 0 -25.833 2.5 -37.5 7.5s-22 12 -31 21s-16 19.333 -21 31s-7.5 24.167 -7.5 37.5v391c0 14 2.5 26.833 7.5 38.5s12 22 21 31
s19.333 16 31 21s24.167 7.5 37.5 7.5h49c14 0 26.833 -2.66699 38.5 -8s22 -12.5 31 -21.5s16 -19.333 21 -31s7.5 -24.167 7.5 -37.5v-391z" />
    <glyph glyph-name="FL041Fh" horiz-adv-x="439" 
d="M391 24l-0.00195312 634.998c0 16.667 -8 25 -24 25h-294c-16 0 -24 -8.33301 -24 -25v-635c0 -7.33301 2.33301 -13.166 7 -17.499s10.334 -6.5 17.001 -6.5c16.667 0 25 8 25 24v611h244v-611c0 -7.33301 2.5 -13.166 7.5 -17.499s10.833 -6.5 17.5 -6.5
s12.334 2 17.001 6s7 10 7 18z" />
    <glyph glyph-name="FL0420h" horiz-adv-x="439" 
d="M98 342v293h146c14 0 26.833 -2.66699 38.5 -8s22 -12.5 31 -21.5s16 -19.333 21 -31s7.5 -24.167 7.5 -37.5v-98c0 -13.333 -2.5 -25.833 -7.5 -37.5s-12 -22 -21 -31s-19.333 -16 -31 -21s-24.5 -7.5 -38.5 -7.5h-146zM98 293l146 -0.00195312c40 0 74.667 14 104 42
c28.667 28.667 43 63.334 43 104.001v98c0 41.333 -14.333 76 -43 104c-28.667 28.667 -63.334 43 -104.001 43h-171c-16 0 -24 -8.33301 -24 -25v-635c0 -7.33301 2.33301 -13.166 7 -17.499s10.334 -6.5 17.001 -6.5c16.667 0 25 8 25 24v269z" />
    <glyph glyph-name="FL0421h" 
d="M317 0c8 0 14.167 2.50098 18.5 7.50098s6.5 10.5 6.5 16.5c0 16.667 -8.33301 25 -25 25h-121c-14 0 -26.833 2.5 -38.5 7.5s-22 12 -31 21s-16 19.333 -21 31s-7.5 24.167 -7.5 37.5v391c0 28 9.33301 51.333 28 70s42 28 70 28h121c8 0 14.167 2.33301 18.5 7
s6.5 10.334 6.5 17.001c0 16.667 -8.33301 25 -25 25h-121c-40.667 0 -75.334 -14.333 -104.001 -43s-43 -63.334 -43 -104.001v-391c0 -40.667 14.333 -75.334 43 -104.001c28.667 -28 63.334 -42 104.001 -42h121z" />
    <glyph glyph-name="FL0422h" horiz-adv-x="439" 
d="M195 635v-611.001c0 -7.33301 2.5 -13.166 7.5 -17.499s10.833 -6.5 17.5 -6.5s12.334 2 17.001 6s7 10 7 18v611h123c7.33301 0 13.166 2.33301 17.499 7s6.5 10.334 6.5 17.001c0 16.667 -8 25 -24 25h-294c-7.33301 0 -13.166 -2.5 -17.499 -7.5
s-6.5 -10.833 -6.5 -17.5s2.16699 -12.334 6.5 -17.001s10.166 -7 17.499 -7h122z" />
    <glyph glyph-name="FL0423h" horiz-adv-x="439" 
d="M342 293l0.00195312 -146.998c0 -28 -9.33301 -51.167 -28 -69.5s-42 -27.5 -70 -27.5h-122c-8 0 -14 -2.5 -18 -7.5s-6 -10.833 -6 -17.5s2.16699 -12.334 6.5 -17.001s10.166 -7 17.499 -7h122c40.667 0 75.334 14.333 104.001 43s43 63 43 103v513
c0 8 -2.5 14.167 -7.5 18.5s-10.5 6.5 -16.5 6.5c-16.667 0 -25 -8.33301 -25 -25v-317h-147c-14 0 -26.833 2.5 -38.5 7.5s-21.834 12 -30.501 21s-15.5 19.333 -20.5 31s-7.5 24.167 -7.5 37.5v220c0 8 -2.5 14.167 -7.5 18.5s-10.833 6.5 -17.5 6.5
s-12.334 -2.33301 -17.001 -7s-7 -10.667 -7 -18v-220c0 -40.667 14.333 -75.334 43 -104.001c28.667 -28 63 -42 103 -42h147z" />
    <glyph glyph-name="FL0424h" horiz-adv-x="635" 
d="M342 537h47.999c40.667 0 75.334 -14.333 104.001 -43s43 -63 43 -103v-49c0 -41.333 -14.333 -76.333 -43 -105c-29.333 -28 -64 -42 -104 -42h-48v342zM292.999 195l-49 -0.000976562c-40.667 0 -75.334 14.333 -104.001 43s-43 63.334 -43 104.001v49
c0 40.667 14.333 75 43 103c28.667 28.667 63.334 43 104.001 43h49v-342zM292.999 145.999l0.000976562 -122.001c0 -7.33301 2.5 -13.166 7.5 -17.499s10.5 -6.5 16.5 -6.5c16.667 0 25 8 25 24v122h48c54.667 0 101 19 139 57c38 38.667 57 85 57 139v49
c0 54.667 -19 100.667 -57 138c-38 38 -84.333 57 -139 57h-48v73c0 8 -2.5 14.167 -7.5 18.5s-10.833 6.5 -17.5 6.5s-12.334 -2.33301 -17.001 -7s-7 -10.667 -7 -18v-73h-49c-54 0 -100.333 -19 -139 -57c-38 -38 -57 -84 -57 -138v-49c0 -54.667 19 -101 57 -139
c38.667 -38 85 -57 139 -57h49z" />
    <glyph glyph-name="FL0425h" horiz-adv-x="488" 
d="M245 394l-150 277c-5.33301 9.33301 -12 14 -20 14c-7.33301 0 -13.5 -2.33301 -18.5 -7s-7.5 -10.334 -7.5 -17.001c0 -4.66699 1 -9 3 -13l165 -306l-165 -305c-2 -5.33301 -3 -9.66602 -3 -12.999c0 -6.66699 2.5 -12.334 7.5 -17.001s10.833 -7 17.5 -7
c9.33301 0 16.333 4.33301 21 13l150 278l149 -278c4.66699 -8.66699 11.667 -13 21 -13c6.66699 0 12.5 2.33301 17.5 7s7.5 10.334 7.5 17.001c0 3.33301 -1 7.66602 -3 12.999l-165 305l165 306c2 4 3 8.33301 3 13c0 6.66699 -2.5 12.334 -7.5 17.001s-10.833 7 -17.5 7
c-8.66699 0 -15.667 -4.66699 -21 -14z" />
    <glyph glyph-name="FL0426h" horiz-adv-x="488" 
d="M342 48h-244v611c0 8 -2.5 14.167 -7.5 18.5s-10.833 6.5 -17.5 6.5s-12.334 -2.33301 -17.001 -7s-7 -10.667 -7 -18v-635c0 -16 8 -24 24 -24h318v-73c0 -8 2.33301 -14.167 7 -18.5s10.334 -6.5 17.001 -6.5c16 0 24 8.33301 24 25v97c0 16 -8 24 -24 24h-24v611
c0 8 -2.5 14.167 -7.5 18.5s-10.5 6.5 -16.5 6.5c-16.667 0 -25 -8.33301 -25 -25v-611z" />
    <glyph glyph-name="FL0427h" horiz-adv-x="439" 
d="M342 293l0.000976562 -269c0 -7.33301 2.5 -13.166 7.5 -17.499s10.833 -6.5 17.5 -6.5s12.334 2 17.001 6s7 10 7 18v635c0 8 -2.5 14.167 -7.5 18.5s-10.5 6.5 -16.5 6.5c-16.667 0 -25 -8.33301 -25 -25v-317h-147c-14 0 -26.833 2.5 -38.5 7.5s-21.834 12 -30.501 21
s-15.5 19.333 -20.5 31s-7.5 24.167 -7.5 37.5v220c0 8 -2.5 14.167 -7.5 18.5s-10.833 6.5 -17.5 6.5s-12.334 -2.33301 -17.001 -7s-7 -10.667 -7 -18v-220c0 -40.667 14.333 -75.334 43 -104.001c28.667 -28 63 -42 103 -42h147z" />
    <glyph glyph-name="FL0428h" horiz-adv-x="537" 
d="M244 49h-145.996v610c0 8 -2.5 14.167 -7.5 18.5s-10.833 6.5 -17.5 6.5s-12.334 -2.33301 -17.001 -7s-7 -10.667 -7 -18v-635c0 -16 8 -24 24 -24h391c16 0 24 8 24 24v635c0 8 -2.33301 14.167 -7 18.5s-10.334 6.5 -17.001 6.5s-12.5 -2.33301 -17.5 -7
s-7.5 -10.667 -7.5 -18v-610h-147v610c0 8 -2.33301 14.167 -7 18.5s-10.334 6.5 -17.001 6.5s-12.334 -2.33301 -17.001 -7s-7 -10.667 -7 -18v-610z" />
    <glyph glyph-name="FL0429h" horiz-adv-x="586" 
d="M440 48h-146.999v611c0 8 -2.5 14.167 -7.5 18.5s-10.5 6.5 -16.5 6.5c-16.667 0 -25 -8.33301 -25 -25v-611h-146v611c0 8 -2.5 14.167 -7.5 18.5s-10.833 6.5 -17.5 6.5s-12.334 -2.33301 -17.001 -7s-7 -10.667 -7 -18v-635c0 -16 8 -24 24 -24h415v-73
c0 -8 2.5 -14.167 7.5 -18.5s10.833 -6.5 17.5 -6.5s12.334 2.16699 17.001 6.5s7 10.5 7 18.5v97c0 16 -8 24 -24 24h-24v611c0 8 -2.5 14.167 -7.5 18.5s-10.833 6.5 -17.5 6.5s-12.334 -2.33301 -17.001 -7s-7 -10.667 -7 -18v-611z" />
    <glyph glyph-name="FL042Ah" horiz-adv-x="537" 
d="M195 341h147c28 0 51.167 -9.16699 69.5 -27.5s27.5 -41.5 27.5 -69.5v-98c0 -13.333 -2.5 -25.833 -7.5 -37.5s-12 -22 -21 -31s-19.333 -16 -31 -21s-24.167 -7.5 -37.5 -7.5h-147v292zM195 390v269c0 16.667 -8 25 -24 25h-98c-7.33301 0 -13.166 -2.5 -17.499 -7.5
s-6.5 -10.833 -6.5 -17.5s2.16699 -12.334 6.5 -17.001s10.166 -7 17.499 -7h73v-611c0 -16 8.33301 -24 25 -24h171c40.667 0 75 14 103 42c28.667 28.667 43 63.334 43 104.001v98c0 40.667 -14.333 75 -43 103c-28.667 28.667 -63 43 -103 43h-147z" />
    <glyph glyph-name="FL042Bh" horiz-adv-x="488" 
d="M439 24l0.000976562 634.999c0 8 -2.33301 14.167 -7 18.5s-10.334 6.5 -17.001 6.5s-12.334 -2.33301 -17.001 -7s-7 -10.667 -7 -18v-635c0 -7.33301 2.33301 -13.166 7 -17.499s10.334 -6.5 17.001 -6.5c16 0 24 8 24 24zM98.001 340.999h97
c28 0 51.333 -9.16699 70 -27.5s28 -41.5 28 -69.5v-98c0 -28 -9.33301 -51.167 -28 -69.5s-42 -27.5 -70 -27.5h-97v292zM98.001 389.999l0.000976562 269c0 8 -2.5 14.167 -7.5 18.5s-10.833 6.5 -17.5 6.5s-12.334 -2.33301 -17.001 -7s-7 -10.667 -7 -18v-635
c0 -16 8 -24 24 -24h122c40.667 0 75.334 14.333 104.001 43s43 63 43 103v98c0 40.667 -14.333 75 -43 103c-28.667 28.667 -63.334 43 -104.001 43h-97z" />
    <glyph glyph-name="FL042Ch" horiz-adv-x="439" 
d="M98 341h146c28 0 51.333 -9.16699 70 -27.5s28 -41.5 28 -69.5v-98c0 -28 -9.33301 -51.167 -28 -69.5s-42 -27.5 -70 -27.5h-146v292zM98 390l0.000976562 269c0 8 -2.5 14.167 -7.5 18.5s-10.833 6.5 -17.5 6.5s-12.334 -2.33301 -17.001 -7s-7 -10.667 -7 -18v-635
c0 -16 8 -24 24 -24h171c40.667 -0 75.334 14.333 104.001 43s43 63 43 103v98c0 40.667 -14.333 75 -43 103c-28.667 28.667 -63.334 43 -104.001 43h-146z" />
    <glyph glyph-name="FL042Dh" horiz-adv-x="439" 
d="M342 341v-194.998c0 -28 -9.33301 -51.167 -28 -69.5s-42 -27.5 -70 -27.5h-171c-7.33301 0 -13.166 -2.5 -17.499 -7.5s-6.5 -10.833 -6.5 -17.5s2.16699 -12.334 6.5 -17.001s10.166 -7 17.499 -7h171c40.667 0 75.334 14.333 104.001 43s43 63 43 103v391
c0 41.333 -14.333 76 -43 104c-28.667 28.667 -63.334 43 -104.001 43h-171c-7.33301 0 -13.166 -2.5 -17.499 -7.5s-6.5 -10.833 -6.5 -17.5s2.16699 -12.334 6.5 -17.001s10.166 -7 17.499 -7h171c14 0 26.833 -2.66699 38.5 -8s22 -12.5 31 -21.5s16 -19.333 21 -31
s7.5 -24.167 7.5 -37.5v-147h-171c-8 0 -14.167 -2.5 -18.5 -7.5s-6.5 -10.5 -6.5 -16.5c0 -16.667 8.33301 -25 25 -25h171z" />
    <glyph glyph-name="FL042Eh" horiz-adv-x="488" 
d="M391 146c0 -30 -10.333 -54.333 -31 -73c-18 -16 -40.333 -24 -67 -24s-49 8 -67 24c-20.667 18 -31 42.333 -31 73v391c0 30.667 10.333 55 31 73c18 16 40.333 24 67 24s49 -8 67 -24c20.667 -18 31 -42.333 31 -73v-391zM98 390v269c0 8 -2.5 14.167 -7.5 18.5
s-10.833 6.5 -17.5 6.5s-12.334 -2.33301 -17.001 -7s-7 -10.667 -7 -18v-635c0 -7.33301 2.33301 -13.166 7 -17.499s10.334 -6.5 17.001 -6.5c16.667 0 25 8 25 24v317h48v-195c0 -46 15.333 -82.333 46 -109c27.333 -24.667 61 -37 101 -37
c40.667 0 74.334 12.333 101.001 37c30 26.667 45 63 45 109v391c0 46 -15 82.667 -45 110c-27.333 24.667 -61 37 -101 37c-40.667 0 -74.334 -12.333 -101.001 -37c-30.667 -26.667 -46 -63.334 -46 -110.001v-147h-48z" />
    <glyph glyph-name="FL042Fh" horiz-adv-x="439" 
d="M342 342h-146.999c-14 0 -26.833 2.5 -38.5 7.5s-21.834 12 -30.501 21s-15.5 19.333 -20.5 31s-7.5 24.167 -7.5 37.5v98c0 14 2.5 26.833 7.5 38.5s12 22 21 31s19.333 16 31 21s24.167 7.5 37.5 7.5h147v-293zM245.001 293l97 -0.00292969v-269
c0 -7.33301 2.5 -13.166 7.5 -17.499s10.833 -6.5 17.5 -6.5s12.334 2 17.001 6s7 10 7 18v635c0 16.667 -8 25 -24 25h-172c-40.667 0 -75.334 -14.333 -104.001 -43c-28 -29.333 -42 -64 -42 -104v-98c0 -39.333 13.667 -73.666 41 -102.999
c26.667 -28.667 59.667 -43 99 -43l-137 -257c-2.66699 -3.33301 -4 -7.33301 -4 -12c0 -7.33301 2.66699 -13.166 8 -17.499s11.333 -6.5 18 -6.5c9.33301 -0 16.333 4.33301 21 13z" />
    <glyph glyph-name="FL0430h" 
d="M293 98c0 -14 -4.66699 -25.666 -14 -34.999s-21 -14 -35 -14h-98c-13.333 0 -24.666 4.66699 -33.999 14s-14 21 -14 35v293c0 13.333 4.66699 24.666 14 33.999s20.666 14 33.999 14h147v-341zM375 47.001c-10 3.33301 -17.999 9.83301 -23.999 19.5s-9 20.167 -9 31.5
v366c0 16 -8.33301 24 -25 24h-171c-14 0 -26.833 -2.5 -38.5 -7.5s-21.834 -12 -30.501 -21s-15.5 -19.333 -20.5 -31s-7.5 -24.167 -7.5 -37.5v-293c0 -28 9.16699 -51.333 27.5 -70s41.5 -28 69.5 -28h98c29.333 0 53.666 11 72.999 33c7.33301 -8.66699 14 -15 20 -19
c10 -8 17.667 -12.667 23 -14c2 -0.666992 5 -1 9 -1c6.66699 0 12.334 2.5 17.001 7.5s7 10.833 7 17.5c0 11.333 -6 19 -18 23z" />
    <glyph glyph-name="FL0431h" 
d="M293 98c0 -13.333 -4.83301 -24.833 -14.5 -34.5s-21.167 -14.5 -34.5 -14.5h-97c-14 0 -25.667 4.66699 -35 14s-14 21 -14 35v293c0 13.333 4.66699 24.666 14 33.999s21 14 35 14h97c14 0 25.667 -4.66699 35 -14s14 -20.666 14 -33.999v-293zM313 460l-180 174.999
h184c8 0 14.167 2.33301 18.5 7s6.5 10.334 6.5 17.001c0 16.667 -8.33301 25 -25 25h-244c-8.66699 0 -15.5 -2 -20.5 -6s-7.5 -9 -7.5 -15c0 -6.66699 3.66699 -13.667 11 -21l157 -154h-66c-28 0 -51.333 -9.16699 -70 -27.5s-28 -41.5 -28 -69.5v-293
c0 -13.333 2.5 -25.833 7.5 -37.5s12 -22 21 -31s19.333 -16.167 31 -21.5s24.5 -8 38.5 -8h97c14 0 26.833 2.66699 38.5 8s22 12.5 31 21.5s16 19.333 21 31s7.5 24.167 7.5 37.5v293c0 26.667 -9 49 -27 67z" />
    <glyph glyph-name="FL0432h" 
d="M98 488l0.000976562 98c0 16 4.66699 28.167 14 36.5s20.666 12.5 33.999 12.5c14 0 25.667 -4.33301 35 -13s14 -20.667 14 -36c0 -13.333 -6 -25.333 -18 -36c-11.333 -11.333 -25.333 -23.333 -42 -36c-5.33301 -4.66699 -11 -9 -17 -13zM293.001 98
c0 -13.333 -4.83301 -24.833 -14.5 -34.5s-21.167 -14.5 -34.5 -14.5h-97c-14 0 -25.667 4.66699 -35 14s-14 21 -14 35v293c0 13.333 4.66699 24.666 14 33.999s21 14 35 14h97c14 0 25.667 -4.66699 35 -14s14 -20.666 14 -33.999v-293zM177.001 488
c3.33301 3.33301 7 6.33203 11 8.99902s8 5.66699 12 9c12 10 19.333 16.333 22 19c8.66699 10.667 14.667 21.334 18 32.001c2.66699 6 4 15.667 4 29c0 30.667 -10.333 55 -31 73c-18 16 -40.333 24 -67 24c-26 0 -48.333 -8 -67 -24c-20 -18 -30 -42.333 -30 -73v-488
c0 -13.333 2.5 -25.833 7.5 -37.5s12 -22 21 -31s19.333 -16.167 31 -21.5s24.5 -8 38.5 -8h97c14 0 26.833 2.66699 38.5 8s22 12.5 31 21.5s16 19.333 21 31s7.5 24.167 7.5 37.5v293c0 13.333 -2.5 25.833 -7.5 37.5s-12 22 -21 31s-19.333 16 -31 21
s-24.5 7.5 -38.5 7.5h-67z" />
    <glyph glyph-name="FL0433h" 
d="M342 65c1.33301 4 2.00098 6.99902 2.00098 8.99902c0 6.66699 -2.5 12.334 -7.5 17.001s-10.833 7 -17.5 7c-10.667 0 -18 -5.33301 -22 -16c-4 -10 -11 -18 -21 -24s-20.667 -9 -32 -9h-98c-14 0 -25.5 4.83301 -34.5 14.5s-13.5 21.167 -13.5 34.5
c0 14 5 25.667 15 35l199 187c20 18.667 30 42 30 70c0 26 -9 48.667 -27 68c-19.333 20 -43 30 -71 30h-98c-20.667 0 -40.334 -6 -59.001 -18s-31.334 -27.667 -38.001 -47c-1.33301 -4 -2 -7 -2 -9c0 -6.66699 2.66699 -12.167 8 -16.5s11 -6.5 17 -6.5
c10.667 0 18 5 22 15s11.167 18 21.5 24s20.5 9 30.5 9h98c14.667 0 26.5 -4.83301 35.5 -14.5s13.5 -21.167 13.5 -34.5s-5 -25 -15 -35l-198 -187c-20.667 -18.667 -31 -42 -31 -70c0 -13.333 2.5 -25.833 7.5 -37.5s11.667 -22 20 -31s18.5 -16.167 30.5 -21.5
s25 -8 39 -8h98c21.333 0 41.333 6 60 18s31.334 27.667 38.001 47z" />
    <glyph glyph-name="FL0434h" 
d="M293 439v-340.999c0 -13.333 -4.83301 -24.833 -14.5 -34.5s-21.167 -14.5 -34.5 -14.5h-97c-14 0 -25.667 4.66699 -35 14s-14 21 -14 35v293c0 13.333 4.66699 24.666 14 33.999s21 14 35 14h146zM293 488.001l-146 0.000976562c-28 0 -51.333 -9.16699 -70 -27.5
s-28 -41.5 -28 -69.5v-293c0 -13.333 2.5 -25.833 7.5 -37.5s12 -22 21 -31s19.333 -16.167 31 -21.5s24.5 -8 38.5 -8h97c14 0 26.833 2.66699 38.5 8s22 12.5 31 21.5s16 19.333 21 31s7.5 24.167 7.5 37.5v488c0 13.333 -2.66699 25.833 -8 37.5s-12.5 22 -21.5 31
s-19.333 16.167 -31 21.5s-24.167 8 -37.5 8h-171c-7.33301 0 -13.166 -2.5 -17.499 -7.5s-6.5 -10.833 -6.5 -17.5s2.16699 -12.334 6.5 -17.001s10.166 -7 17.499 -7h171c14 0 25.667 -4.83301 35 -14.5s14 -21.167 14 -34.5v-98z" />
    <glyph glyph-name="FL0435h" 
d="M98 269l0.000976562 122c0 13.333 4.66699 24.666 14 33.999s20.666 14 33.999 14h98c14 0 25.667 -4.66699 35 -14s14 -20.666 14 -33.999v-122h-195zM98.001 220h219c16.667 0 25 8 25 24v147c0 13.333 -2.5 25.833 -7.5 37.5s-12 22 -21 31s-19.333 16 -31 21
s-24.5 7.5 -38.5 7.5h-98c-14 0 -26.833 -2.5 -38.5 -7.5s-21.834 -12 -30.501 -21s-15.5 -19.333 -20.5 -31s-7.5 -24.167 -7.5 -37.5v-293c0 -28 9.16699 -51.333 27.5 -70s41.5 -28 69.5 -28h171c8 0 14.167 2.5 18.5 7.5s6.5 10.5 6.5 16.5c0 16.667 -8.33301 25 -25 25
h-171c-13.333 0 -24.666 4.66699 -33.999 14s-14 21 -14 35v122z" />
    <glyph glyph-name="FL0436h" horiz-adv-x="488" 
d="M267 287v176.997c0 8 -2.5 14 -7.5 18s-10.5 6 -16.5 6c-16.667 0 -25 -8 -25 -24v-175l-123 189c-5.33301 7.33301 -12 11 -20 11c-6.66699 0 -12.667 -2.5 -18 -7.5s-8 -10.833 -8 -17.5c0 -5.33301 1.66699 -10 5 -14l134 -206l-134 -206
c-3.33301 -5.33301 -5 -10 -5 -14c0 -6.66699 2.66699 -12.334 8 -17.001s11.333 -7 18 -7c8.66699 0 15.334 3.66699 20.001 11l123 189v-176c0 -7.33301 2.5 -13.166 7.5 -17.499s10.833 -6.5 17.5 -6.5s12.334 2 17.001 6s7 10 7 18v177l128 -190
c5.33301 -7.33301 11.666 -11 18.999 -11c6.66699 0 12.5 2.33301 17.5 7s7.5 10.334 7.5 17.001c0 2 -0.166992 4.33301 -0.5 7s-1.5 5 -3.5 7l-139 206l139 206c2.66699 4.66699 4 9.33398 4 14.001c0 6.66699 -2.5 12.334 -7.5 17.001s-10.5 7 -16.5 7
c-8.66699 0 -15.334 -3.33301 -20.001 -10z" />
    <glyph glyph-name="FL0437h" horiz-adv-x="366" 
d="M284 244c22 20 33 44.334 33 73.001v74c0 26.667 -10.333 49.334 -31 68.001c-21.333 19.333 -45.333 29 -72 29h-48c-22 0 -41.333 -6 -58 -18s-28.334 -28.333 -35.001 -49c-0.666992 -2 -1 -4.66699 -1 -8c0 -7.33301 2.5 -13.166 7.5 -17.499s10.833 -6.5 17.5 -6.5
c10.667 0 18 5.66699 22 17c3.33301 10 9.33301 18 18 24s18.334 9 29.001 9h48c14 0 26.667 -4.83301 38 -14.5s17 -20.834 17 -33.501v-74c0 -13.333 -5.66699 -24.666 -17 -33.999s-24 -14 -38 -14h-48c-8 0 -14.167 -2.5 -18.5 -7.5s-6.5 -10.833 -6.5 -17.5
s2.16699 -12.334 6.5 -17.001s10.5 -7 18.5 -7h48c14 0 26.667 -5 38 -15s17 -21.333 17 -34v-73c0 -13.333 -5.66699 -24.833 -17 -34.5s-24 -14.5 -38 -14.5h-73c-10.667 0 -20.334 3 -29.001 9c-8 6 -14 14.333 -18 25c-3.33301 11.333 -10.666 17 -21.999 17
c-6.66699 0 -12.5 -2.33301 -17.5 -7s-7.5 -10.334 -7.5 -17.001c0 -4 0.333008 -7 1 -9c6.66699 -20 18.667 -36.167 36 -48.5s36.333 -18.5 57 -18.5h73c14 0 27.167 2.66699 39.5 8s23.333 12.5 33 21.5s17.167 19.333 22.5 31s8 24.167 8 37.5v73
c0 29.333 -11 53.666 -33 72.999z" />
    <glyph glyph-name="FL0438h" 
d="M342 24l0.000976562 439.998c0 8 -2.5 14 -7.5 18s-10.833 6 -17.5 6s-12.334 -2.16699 -17.001 -6.5s-7 -10.166 -7 -17.499v-415h-147c-13.333 0 -24.666 4.66699 -33.999 14s-14 21 -14 35v366c0 8 -2.5 14 -7.5 18s-10.833 6 -17.5 6s-12.334 -2.16699 -17.001 -6.5
s-7 -10.166 -7 -17.499v-366c0 -28 9.16699 -51.333 27.5 -70s41.5 -28 69.5 -28h171c16.667 0 25 8 25 24z" />
    <glyph glyph-name="FL0439h" 
d="M244 635c7.33301 0 13.168 2.33301 17.501 7s6.5 10.334 6.5 17.001c0 16.667 -8 25 -24 25h-97c-8 0 -14 -2.5 -18 -7.5s-6 -10.833 -6 -17.5s2.16699 -12.334 6.5 -17.001s10.166 -7 17.499 -7h97zM342.002 24l0.00195312 439.998c0 8 -2.5 14 -7.5 18
s-10.833 6 -17.5 6s-12.334 -2.16699 -17.001 -6.5s-7 -10.166 -7 -17.499v-415h-146c-14 0 -25.667 4.66699 -35 14s-14 21 -14 35v366c0 8 -2.5 14 -7.5 18s-10.833 6 -17.5 6s-12.334 -2.16699 -17.001 -6.5s-7 -10.166 -7 -17.499v-366c0 -13.333 2.5 -25.833 7.5 -37.5
s12 -22 21 -31s19.333 -16.167 31 -21.5s24.5 -8 38.5 -8h170c16.667 0 25 8 25 24z" />
    <glyph glyph-name="FL043Ah" 
d="M185 280l150.998 164.996c4.66699 4.66699 7 10.334 7 17.001s-2.5 12.5 -7.5 17.5s-10.833 7.5 -17.5 7.5c-5.33301 0 -11.333 -2.66699 -18 -8l-202 -223v208c0 8 -2.5 14 -7.5 18s-10.5 6 -16.5 6c-16.667 0 -25 -8 -25 -24v-440c0 -7.33301 2.5 -13.166 7.5 -17.499
s10.833 -6.5 17.5 -6.5s12.334 2 17.001 6s7 10 7 18v159l53 59l146 -231c4.66699 -7.33301 11.334 -11 20.001 -11c6.66699 0 12.5 2.33301 17.5 7s7.5 10.334 7.5 17.001c0 4.66699 -1.33301 9.33398 -4 14.001z" />
    <glyph glyph-name="FL043Bh" 
d="M342 24l-0.000976562 439.998c0 16 -8.33301 24 -25 24h-146c-13.333 0 -21.333 -6.33301 -24 -19l-98 -439v-6c0 -7.33301 2.5 -13.166 7.5 -17.499s10.833 -6.5 17.5 -6.5c12.667 0 20.334 6.33301 23.001 19l93 420h103v-415c0 -7.33301 2.5 -13.166 7.5 -17.499
s10.5 -6.5 16.5 -6.5c16.667 0 25 8 25 24z" />
    <glyph glyph-name="FL043Ch" horiz-adv-x="439" 
d="M391 24l-0.00195312 439.998c0 7.33301 -2.5 13.333 -7.5 18s-10.5 7 -16.5 7c-8.66699 0 -15.667 -3.66699 -21 -11l-126 -189l-126 189c-5.33301 7.33301 -12 11 -20 11c-16.667 0 -25 -8.33301 -25 -25v-440c0 -7.33301 2.33301 -13.166 7 -17.499
s10.334 -6.5 17.001 -6.5c16.667 0 25 8 25 24v359l101 -153c6 -9.33301 13 -14 21 -14c7.33301 0 14 4.66699 20 14l102 153v-359c0 -7.33301 2.33301 -13.166 7 -17.499s10.334 -6.5 17.001 -6.5c16.667 0 25 8 25 24z" />
    <glyph glyph-name="FL043Dh" 
d="M293 269l-194.999 -0.00390625v195c0 8 -2.5 14 -7.5 18s-10.833 6 -17.5 6s-12.334 -2.16699 -17.001 -6.5s-7 -10.166 -7 -17.499v-440c0 -7.33301 2.33301 -13.166 7 -17.499s10.334 -6.5 17.001 -6.5c16.667 0 25 8 25 24v196h195v-196
c0 -7.33301 2.5 -13.166 7.5 -17.499s10.5 -6.5 16.5 -6.5c16.667 0 25 8 25 24v440c0 8 -2.5 14 -7.5 18s-10.833 6 -17.5 6s-12.334 -2.16699 -17.001 -6.5s-7 -10.166 -7 -17.499v-195z" />
    <glyph glyph-name="FL043Eh" 
d="M342 98l0.000976562 293c0 13.333 -2.5 25.833 -7.5 37.5s-12 22 -21 31s-19.333 16 -31 21s-24.5 7.5 -38.5 7.5h-98c-14 0 -26.833 -2.5 -38.5 -7.5s-21.834 -12 -30.501 -21s-15.5 -19.333 -20.5 -31s-7.5 -24.167 -7.5 -37.5v-293c0 -28 9.16699 -51.333 27.5 -70
s41.5 -28 69.5 -28h98c28 -0 51.333 9.33301 70 28s28 42 28 70zM293.001 98c0 -14 -4.66699 -25.667 -14 -35s-21 -14 -35 -14h-98c-13.333 0 -24.666 4.66699 -33.999 14s-14 21 -14 35v293c0 13.333 4.66699 24.666 14 33.999s20.666 14 33.999 14h98
c14 0 25.667 -4.66699 35 -14s14 -20.666 14 -33.999v-293z" />
    <glyph glyph-name="FL043Fh" 
d="M342 24l-0.000976562 366.997c0 13.333 -2.5 25.833 -7.5 37.5s-12 22 -21 31s-19.333 16 -31 21s-24.5 7.5 -38.5 7.5h-171c-16 0 -24 -8 -24 -24v-440c0 -7.33301 2.33301 -13.166 7 -17.499s10.334 -6.5 17.001 -6.5c16.667 0 25 8 25 24v415h146
c14 0 25.667 -4.66699 35 -14s14 -20.666 14 -33.999v-367c0 -7.33301 2.5 -13.166 7.5 -17.499s10.5 -6.5 16.5 -6.5c16.667 0 25 8 25 24z" />
    <glyph glyph-name="FL0440h" 
d="M98 48v390.999h147c13.333 0 24.666 -4.66699 33.999 -14s14 -20.666 14 -33.999v-293c0 -13.333 -4.66699 -25 -14 -35s-20.666 -15 -33.999 -15h-147zM98 -0.000976562h146.999c13.333 0 25.833 2.5 37.5 7.5s22 12 31 21s16 19.333 21 31s7.5 24.5 7.5 38.5v293
c0 13.333 -2.5 25.833 -7.5 37.5s-12 22 -21 31s-19.333 16 -31 21s-24.167 7.5 -37.5 7.5h-172c-16 0 -24 -8 -24 -24v-635c0 -8 2.33301 -14 7 -18s10.334 -6 17.001 -6c16.667 0 25 8 25 24v171z" />
    <glyph glyph-name="FL0441h" 
d="M317 0c8 0 14.168 2.50098 18.501 7.50098s6.5 10.5 6.5 16.5c0 16.667 -8.33301 25 -25 25h-171c-13.333 0 -24.666 4.66699 -33.999 14s-14 21 -14 35v293c0 13.333 4.66699 24.666 14 33.999s20.666 14 33.999 14h171c8 0 14.167 2.5 18.5 7.5s6.5 10.833 6.5 17.5
c0 16 -8.33301 24 -25 24h-171c-14 0 -26.833 -2.5 -38.5 -7.5s-21.834 -12 -30.501 -21s-15.5 -19.333 -20.5 -31s-7.5 -24.167 -7.5 -37.5v-293c0 -28 9.16699 -51.333 27.5 -70s41.5 -28 69.5 -28h171z" />
    <glyph glyph-name="FL0442h" horiz-adv-x="537" 
d="M244 439l-0.000976562 -415.004c0 -7.33301 2.5 -13.166 7.5 -17.499s10.833 -6.5 17.5 -6.5s12.334 2 17.001 6s7 10 7 18v415h98c13.333 0 24.666 -4.66699 33.999 -14s14 -20.666 14 -33.999v-367c0 -7.33301 2.5 -13.166 7.5 -17.499s10.833 -6.5 17.5 -6.5
c16 0 24 8 24 24v367c0 13.333 -2.5 25.833 -7.5 37.5s-12 22 -21 31s-19.333 16 -31 21s-24.167 7.5 -37.5 7.5h-318c-16 0 -24 -8 -24 -24v-440c0 -7.33301 2.33301 -13.166 7 -17.499s10.334 -6.5 17.001 -6.5c16.667 0 25 8 25 24v415h146z" />
    <glyph glyph-name="FL0443h" 
d="M293 0l0.000976562 -97c0 -14 -4.66699 -25.667 -14 -35s-20.666 -14 -33.999 -14h-147c-8 0 -14.167 -2.5 -18.5 -7.5s-6.5 -10.5 -6.5 -16.5c0 -16.667 8.33301 -25 25 -25h147c13.333 0 25.833 2.66699 37.5 8s22 12.5 31 21.5s16 19.333 21 31s7.5 24.167 7.5 37.5
v561c0 8 -2.5 14.167 -7.5 18.5s-10.833 6.5 -17.5 6.5s-12.334 -2.16699 -17.001 -6.5s-7 -10.5 -7 -18.5v-415h-146c-14 0 -25.667 4.83301 -35 14.5s-14 21.167 -14 34.5v366c0 8 -2.5 14.167 -7.5 18.5s-10.833 6.5 -17.5 6.5s-12.334 -2.16699 -17.001 -6.5
s-7 -10.5 -7 -18.5v-366c0 -13.333 2.5 -25.833 7.5 -37.5s12 -22 21 -31s19.333 -16.167 31 -21.5s24.5 -8 38.5 -8h146z" />
    <glyph glyph-name="FL0444h" horiz-adv-x="537" 
d="M293 440h49c13.333 0 25.833 -2.5 37.5 -7.5s22 -12 31 -21s16 -19.333 21 -31s7.5 -24.5 7.5 -38.5v-195c0 -14 -2.5 -26.833 -7.5 -38.5s-12 -22 -21 -31s-19.333 -16 -31 -21s-24.167 -7.5 -37.5 -7.5h-49v391zM244 49h-49c-28 0 -51.167 9.33301 -69.5 28
s-27.5 42 -27.5 70v195c0 28 9.16699 51.333 27.5 70s41.5 28 69.5 28h49v-391zM244 0l-0.000976562 -170.001c0 -8 2.5 -14.167 7.5 -18.5s10.833 -6.5 17.5 -6.5s12.334 2 17.001 6s7 10.333 7 19v170h49c40.667 0 75 14.333 103 43c28.667 28.667 43 63.334 43 104.001
v195c0 40.667 -14.333 75.334 -43 104.001c-28 28.667 -62.333 43 -103 43h-49v73c0 8 -2.5 14 -7.5 18s-10.5 6 -16.5 6c-16.667 0 -25 -8 -25 -24v-73h-49c-40.667 0 -75.334 -14.333 -104.001 -43c-28 -29.333 -42 -64 -42 -104v-195c0 -40.667 14 -75.334 42 -104.001
c28.667 -28.667 63.334 -43 104.001 -43h49z" />
    <glyph glyph-name="FL0445h" 
d="M223 245l115.999 207.001c2 4 3 8 3 12c0 7.33301 -2.5 13.166 -7.5 17.499s-10.833 6.5 -17.5 6.5c-4 0 -8 -1 -12 -3s-7 -5 -9 -9l-101 -182l-100 183c-5.33301 8 -12.333 12 -21 12c-6.66699 0 -12.667 -2.16699 -18 -6.5s-8 -9.83301 -8 -16.5
c0 -5.33301 1.33301 -9.66602 4 -12.999l115 -209l-115 -208c-2.66699 -3.33301 -4 -7.33301 -4 -12c0 -6.66699 2.66699 -12.334 8 -17.001s11.333 -7 18 -7c9.33301 -0 16.333 4.33301 21 13l100 181l101 -181c4.66699 -8.66699 11.334 -13 20.001 -13
c7.33301 -0 13.5 2.33301 18.5 7s7.5 10 7.5 16c0 4.66699 -1 9 -3 13z" />
    <glyph glyph-name="FL0446h" horiz-adv-x="439" 
d="M293 48l-147 -0.00195312c-13.333 0 -24.666 4.83301 -33.999 14.5s-14 21.167 -14 34.5v367c0 8 -2.5 14 -7.5 18s-10.833 6 -17.5 6s-12.334 -2.16699 -17.001 -6.5s-7 -10.166 -7 -17.499v-367c0 -28 9.16699 -51.167 27.5 -69.5s41.5 -27.5 69.5 -27.5h196v-73
c0 -8 2.5 -14.167 7.5 -18.5s10.833 -6.5 17.5 -6.5s12.334 2.16699 17.001 6.5s7 10.5 7 18.5v97c0 16 -8 24 -24 24h-25v416c0 8 -2.33301 14 -7 18s-10.334 6 -17.001 6s-12.5 -2.16699 -17.5 -6.5s-7.5 -10.166 -7.5 -17.499v-416z" />
    <glyph glyph-name="FL0447h" 
d="M293 269l-146.999 -0.00195312c-13.333 0 -24.666 4.66699 -33.999 14s-14 20.666 -14 33.999v147c0 8 -2.5 14 -7.5 18s-10.833 6 -17.5 6s-12.334 -2.16699 -17.001 -6.5s-7 -10.166 -7 -17.499v-147c0 -28 9.16699 -51.167 27.5 -69.5s41.5 -27.5 69.5 -27.5h147v-196
c0 -7.33301 2.5 -13.166 7.5 -17.499s10.5 -6.5 16.5 -6.5c16.667 0 25 8 25 24v440c0 8 -2.5 14 -7.5 18s-10.833 6 -17.5 6s-12.334 -2.16699 -17.001 -6.5s-7 -10.166 -7 -17.499v-195z" />
    <glyph glyph-name="FL0448h" horiz-adv-x="537" 
d="M293 49l0.000976562 414.998c0 8 -2.5 14 -7.5 18s-10.5 6 -16.5 6c-16.667 0 -25 -8 -25 -24v-415h-98c-13.333 0 -24.666 4.66699 -33.999 14s-14 21 -14 35v366c0 8 -2.5 14 -7.5 18s-10.833 6 -17.5 6s-12.334 -2.16699 -17.001 -6.5s-7 -10.166 -7 -17.499v-366
c0 -28 9.16699 -51.333 27.5 -70s41.5 -28 69.5 -28h318c16 0 24 8 24 24v440c0 8 -2.33301 14 -7 18s-10.334 6 -17.001 6s-12.5 -2.16699 -17.5 -6.5s-7.5 -10.166 -7.5 -17.499v-415h-146z" />
    <glyph glyph-name="FL0449h" horiz-adv-x="586" 
d="M244 49l-98 -0.000976562c-13.333 0 -24.666 4.66699 -33.999 14s-14 21 -14 35v366c0 8 -2.5 14.167 -7.5 18.5s-10.833 6.5 -17.5 6.5s-12.334 -2.16699 -17.001 -6.5s-7 -10.5 -7 -18.5v-366c0 -28 9.16699 -51.333 27.5 -70s41.5 -28 69.5 -28h343v-73
c0 -7.33301 2.33301 -13.166 7 -17.499s10.334 -6.5 17.001 -6.5c16.667 0 25 8 25 24v97c0 16.667 -8.33301 25 -25 25h-24v415c0 8 -2.5 14.167 -7.5 18.5s-10.833 6.5 -17.5 6.5s-12.334 -2.16699 -17.001 -6.5s-7 -10.5 -7 -18.5v-415h-147v415
c0 8 -2.5 14.167 -7.5 18.5s-10.5 6.5 -16.5 6.5c-16.667 0 -25 -8.33301 -25 -25v-415z" />
    <glyph glyph-name="FL044Ah" horiz-adv-x="488" 
d="M195 220h147c13.333 0 24.833 -4.83301 34.5 -14.5s14.5 -21.167 14.5 -34.5v-73c0 -14 -4.83301 -25.667 -14.5 -35s-21.167 -14 -34.5 -14h-147v171zM195 269v195.001c0 16 -8 24 -24 24h-98c-7.33301 0 -13.166 -2.33301 -17.499 -7s-6.5 -10.334 -6.5 -17.001
s2.16699 -12.5 6.5 -17.5s10.166 -7.5 17.499 -7.5h73v-415c0 -16 8.33301 -24 25 -24h171c28 -0 51.167 9.33301 69.5 28s27.5 42 27.5 70v73c0 13.333 -2.5 25.833 -7.5 37.5s-12 22 -21 31s-19.333 16.167 -31 21.5s-24.167 8 -37.5 8h-147z" />
    <glyph glyph-name="FL044Bh" horiz-adv-x="439" 
d="M391 24v439.998c0 8 -2.5 14 -7.5 18s-10.833 6 -17.5 6s-12.334 -2.16699 -17.001 -6.5s-7 -10.166 -7 -17.499v-440c0 -7.33301 2.33301 -13.166 7 -17.499s10.334 -6.5 17.001 -6.5c16.667 0 25 8 25 24zM98 219.998h97c14 0 25.667 -4.83301 35 -14.5
s14 -21.167 14 -34.5v-73c0 -14 -4.66699 -25.667 -14 -35s-21 -14 -35 -14h-97v171zM98 268.998l0.000976562 194.999c0 8 -2.5 14 -7.5 18s-10.833 6 -17.5 6s-12.334 -2.16699 -17.001 -6.5s-7 -10.166 -7 -17.499v-440c0 -16 8 -24 24 -24h122
c28 0 51.333 9.33301 70 28s28 42 28 70v73c0 13.333 -2.5 25.833 -7.5 37.5s-12 22 -21 31s-19.333 16.167 -31 21.5s-24.5 8 -38.5 8h-97z" />
    <glyph glyph-name="FL044Ch" 
d="M98 220h146c14 0 25.667 -4.83301 35 -14.5s14 -21.167 14 -34.5v-73c0 -14 -4.66699 -25.667 -14 -35s-21 -14 -35 -14h-146v171zM98 269l0.000976562 194.999c0 8 -2.5 14 -7.5 18s-10.833 6 -17.5 6s-12.334 -2.16699 -17.001 -6.5s-7 -10.166 -7 -17.499v-440
c0 -16 8 -24 24 -24h171c28 -0 51.333 9.33301 70 28s28 42 28 70v73c0 13.333 -2.5 25.833 -7.5 37.5s-12 22 -21 31s-19.333 16.167 -31 21.5s-24.5 8 -38.5 8h-146z" />
    <glyph glyph-name="FL044Dh" 
d="M293 220v-121.998c0 -14 -4.66699 -25.667 -14 -35s-21 -14 -35 -14h-171c-7.33301 0 -13.166 -2.5 -17.499 -7.5s-6.5 -10.833 -6.5 -17.5s2.16699 -12.334 6.5 -17.001s10.166 -7 17.499 -7h171c28 0 51.333 9.33301 70 28s28 42 28 70v293
c0 13.333 -2.5 25.833 -7.5 37.5s-12 22 -21 31s-19.333 16 -31 21s-24.5 7.5 -38.5 7.5h-171c-7.33301 0 -13.166 -2.33301 -17.499 -7s-6.5 -10.334 -6.5 -17.001s2.16699 -12.5 6.5 -17.5s10.166 -7.5 17.499 -7.5h171c14 0 25.667 -4.66699 35 -14
s14 -20.666 14 -33.999v-122h-98c-7.33301 0 -13.166 -2.5 -17.499 -7.5s-6.5 -10.833 -6.5 -17.5s2.16699 -12.334 6.5 -17.001s10.166 -7 17.499 -7h98z" />
    <glyph glyph-name="FL044Eh" horiz-adv-x="439" 
d="M342 98c0 -14 -4.83301 -25.667 -14.5 -35s-21.167 -14 -34.5 -14h-49c-13.333 0 -24.833 4.66699 -34.5 14s-14.5 21 -14.5 35v293c0 13.333 4.83301 24.666 14.5 33.999s21.167 14 34.5 14h49c13.333 0 24.833 -4.66699 34.5 -14s14.5 -20.666 14.5 -33.999v-293z
M98 269v194.998c0 8 -2.5 14 -7.5 18s-10.833 6 -17.5 6s-12.334 -2.16699 -17.001 -6.5s-7 -10.166 -7 -17.499v-440c0 -7.33301 2.33301 -13.166 7 -17.499s10.334 -6.5 17.001 -6.5c16.667 0 25 8 25 24v196h48v-122c0 -28 9.33301 -51.333 28 -70s42 -28 70 -28h49
c13.333 0 25.833 2.5 37.5 7.5s22 12 31 21s16.167 19.333 21.5 31s8 24.5 8 38.5v293c0 13.333 -2.66699 25.833 -8 37.5s-12.5 22 -21.5 31s-19.333 16 -31 21s-24.167 7.5 -37.5 7.5h-49c-14 0 -26.833 -2.5 -38.5 -7.5s-22 -12 -31 -21s-16 -19.333 -21 -31
s-7.5 -24.167 -7.5 -37.5v-122h-48z" />
    <glyph glyph-name="FL044Fh" 
d="M342 24l0.000976562 440c0 16 -8.33301 24 -25 24h-171c-14 0 -26.833 -2.5 -38.5 -7.5s-21.834 -12 -30.501 -21s-15.5 -19.333 -20.5 -31s-7.5 -24.167 -7.5 -37.5v-74c0 -28 9.16699 -51.167 27.5 -69.5s41.5 -27.5 69.5 -27.5h8l-102 -184
c-2.66699 -3.33301 -4 -7.33301 -4 -12c0 -6.66699 2.66699 -12.334 8 -17.001s11.333 -7 18 -7c9.33301 0 16.333 4.33301 21 13l114 207h84v-196c0 -7.33301 2.5 -13.166 7.5 -17.499s10.5 -6.5 16.5 -6.5c16.667 0 25 8 25 24zM293.001 269l-147 0.00195312
c-13.333 0 -24.666 4.66699 -33.999 14s-14 20.666 -14 33.999v74c0 13.333 4.66699 24.666 14 33.999s20.666 14 33.999 14h147v-170z" />
    <glyph glyph-name="FL0401h" 
d="M98 341l122 -0.00195312c8 0 14.167 2.5 18.5 7.5s6.5 10.833 6.5 17.5s-2.16699 12.334 -6.5 17.001s-10.5 7 -18.5 7h-122v245h220c8 0 14 2.33301 18 7s6 10.334 6 17.001c0 16.667 -8 25 -24 25h-244c-16.667 0 -25 -8.33301 -25 -25v-635c0 -16 8.33301 -24 25 -24
h244c8 0 14 2.5 18 7.5s6 10.5 6 16.5c0 16.667 -8 25 -24 25h-220v292zM98 804.998c0 -7.33301 2.5 -13.5 7.5 -18.5s11.167 -7.5 18.5 -7.5c6.66699 0 12.5 2.5 17.5 7.5s7.5 11.167 7.5 18.5c0 6.66699 -2.5 12.5 -7.5 17.5s-10.833 7.5 -17.5 7.5
c-7.33301 0 -13.5 -2.5 -18.5 -7.5s-7.5 -10.833 -7.5 -17.5zM242 804.998c0 -7.33301 2.5 -13.5 7.5 -18.5s11.167 -7.5 18.5 -7.5c6.66699 0 12.5 2.5 17.5 7.5s7.5 11.167 7.5 18.5c0 6.66699 -2.5 12.5 -7.5 17.5s-10.833 7.5 -17.5 7.5
c-7.33301 0 -13.5 -2.5 -18.5 -7.5s-7.5 -10.833 -7.5 -17.5z" />
    <glyph glyph-name="FL0451h" 
d="M98 269l0.000976562 122c0 13.333 4.66699 24.666 14 33.999s20.666 14 33.999 14h98c14 0 25.667 -4.66699 35 -14s14 -20.666 14 -33.999v-122h-195zM98.001 220h219c16.667 0 25 8 25 24v147c0 13.333 -2.5 25.833 -7.5 37.5s-12 22 -21 31s-19.333 16 -31 21
s-24.5 7.5 -38.5 7.5h-98c-14 0 -26.833 -2.5 -38.5 -7.5s-21.834 -12 -30.501 -21s-15.5 -19.333 -20.5 -31s-7.5 -24.167 -7.5 -37.5v-293c0 -28 9.16699 -51.333 27.5 -70s41.5 -28 69.5 -28h171c8 0 14.167 2.5 18.5 7.5s6.5 10.5 6.5 16.5c0 16.667 -8.33301 25 -25 25
h-171c-13.333 0 -24.666 4.66699 -33.999 14s-14 21 -14 35v122zM98.001 658c0 -7.33301 2.5 -13.333 7.5 -18s11.167 -7 18.5 -7c6.66699 0 12.5 2.33301 17.5 7s7.5 10.667 7.5 18s-2.5 13.5 -7.5 18.5s-10.833 7.5 -17.5 7.5c-7.33301 0 -13.5 -2.5 -18.5 -7.5
s-7.5 -11.167 -7.5 -18.5zM242.001 658c0 -7.33301 2.5 -13.333 7.5 -18s11.167 -7 18.5 -7c6.66699 0 12.5 2.33301 17.5 7s7.5 10.667 7.5 18s-2.5 13.5 -7.5 18.5s-10.833 7.5 -17.5 7.5c-7.33301 0 -13.5 -2.5 -18.5 -7.5s-7.5 -11.167 -7.5 -18.5z" />
    <glyph glyph-name="FL2116h" horiz-adv-x="684" 
d="M634 439v147c0 30.667 -10 55 -30 73c-18 16 -40.333 24 -67 24c-26 0 -48.333 -8 -67 -24c-20.667 -18 -31 -42.333 -31 -73v-147c0 -30.667 10.333 -55 31 -73c18 -16 40.333 -24 67 -24s49 8 67 24c20 18 30 42.333 30 73zM391 24l0.00195312 635.001
c0 8 -2.5 14.167 -7.5 18.5s-10.833 6.5 -17.5 6.5s-12.334 -2.33301 -17.001 -7s-7 -10.667 -7 -18v-524l-247 534c-2 5.33301 -5 9.16602 -9 11.499s-8.33301 3.5 -13 3.5c-6.66699 0 -12.334 -2.33301 -17.001 -7s-7 -10.667 -7 -18v-635
c0 -7.33301 2.33301 -13.166 7 -17.499s10.334 -6.5 17.001 -6.5c16.667 0 25 8 25 24v524l246 -534c5.33301 -9.33301 12.666 -14 21.999 -14c6.66699 0 12.5 2.16699 17.5 6.5s7.5 10.166 7.5 17.499zM585.002 439.001c0 -16 -4.99902 -28.333 -14.999 -37
c-9.33301 -7.33301 -20.333 -11 -33 -11c-14 0 -25.333 4 -34 12c-10 8.66699 -15 20.667 -15 36v147c0 16 4.83301 28.167 14.5 36.5s21.167 12.5 34.5 12.5s24.666 -4.33301 33.999 -13s14 -20.667 14 -36v-147z" />
    <glyph glyph-name="FL0168" 
d="M98 341l122 -0.00195312c8 0 14.167 2.5 18.5 7.5s6.5 10.833 6.5 17.5s-2.16699 12.334 -6.5 17.001s-10.5 7 -18.5 7h-122v245h220c8 0 14 2.33301 18 7s6 10.334 6 17.001c0 16.667 -8 25 -24 25h-244c-16.667 0 -25 -8.33301 -25 -25v-635c0 -16 8.33301 -24 25 -24
h244c8 0 14 2.5 18 7.5s6 10.5 6 16.5c0 16.667 -8 25 -24 25h-220v292zM98 804.998c0 -7.33301 2.5 -13.5 7.5 -18.5s11.167 -7.5 18.5 -7.5c6.66699 0 12.5 2.5 17.5 7.5s7.5 11.167 7.5 18.5c0 6.66699 -2.5 12.5 -7.5 17.5s-10.833 7.5 -17.5 7.5
c-7.33301 0 -13.5 -2.5 -18.5 -7.5s-7.5 -10.833 -7.5 -17.5zM242 804.998c0 -7.33301 2.5 -13.5 7.5 -18.5s11.167 -7.5 18.5 -7.5c6.66699 0 12.5 2.5 17.5 7.5s7.5 11.167 7.5 18.5c0 6.66699 -2.5 12.5 -7.5 17.5s-10.833 7.5 -17.5 7.5
c-7.33301 0 -13.5 -2.5 -18.5 -7.5s-7.5 -10.833 -7.5 -17.5z" />
    <glyph glyph-name="FL0184" 
d="M98 269l0.000976562 122c0 13.333 4.66699 24.666 14 33.999s20.666 14 33.999 14h98c14 0 25.667 -4.66699 35 -14s14 -20.666 14 -33.999v-122h-195zM98.001 220h219c16.667 0 25 8 25 24v147c0 13.333 -2.5 25.833 -7.5 37.5s-12 22 -21 31s-19.333 16 -31 21
s-24.5 7.5 -38.5 7.5h-98c-14 0 -26.833 -2.5 -38.5 -7.5s-21.834 -12 -30.501 -21s-15.5 -19.333 -20.5 -31s-7.5 -24.167 -7.5 -37.5v-293c0 -28 9.16699 -51.333 27.5 -70s41.5 -28 69.5 -28h171c8 0 14.167 2.5 18.5 7.5s6.5 10.5 6.5 16.5c0 16.667 -8.33301 25 -25 25
h-171c-13.333 0 -24.666 4.66699 -33.999 14s-14 21 -14 35v122zM98.001 658c0 -7.33301 2.5 -13.333 7.5 -18s11.167 -7 18.5 -7c6.66699 0 12.5 2.33301 17.5 7s7.5 10.667 7.5 18s-2.5 13.5 -7.5 18.5s-10.833 7.5 -17.5 7.5c-7.33301 0 -13.5 -2.5 -18.5 -7.5
s-7.5 -11.167 -7.5 -18.5zM242.001 658c0 -7.33301 2.5 -13.333 7.5 -18s11.167 -7 18.5 -7c6.66699 0 12.5 2.33301 17.5 7s7.5 10.667 7.5 18s-2.5 13.5 -7.5 18.5s-10.833 7.5 -17.5 7.5c-7.33301 0 -13.5 -2.5 -18.5 -7.5s-7.5 -11.167 -7.5 -18.5z" />
    <glyph glyph-name=".null" horiz-adv-x="0" 
 />
    </font>
</defs>
</svg>
